<?xml version="1.0" standalone="no"?>
<!DOCTYPE svg PUBLIC "-//W3C//DTD SVG 1.1//EN" "http://www.w3.org/Graphics/SVG/1.1/DTD/svg11.dtd" >
<svg xmlns="http://www.w3.org/2000/svg" xmlns:xlink="http://www.w3.org/1999/xlink" version="1.1">
<metadata></metadata>
<defs>
<font id="le_havre_roughprimary" horiz-adv-x="1608" >
<font-face units-per-em="2048" ascent="1638" descent="-410" />
<missing-glyph horiz-adv-x="451" />
<glyph horiz-adv-x="0" />
<glyph horiz-adv-x="682" />
<glyph unicode=" "  horiz-adv-x="451" />
<glyph unicode="&#x09;" horiz-adv-x="451" />
<glyph unicode="&#xa0;" horiz-adv-x="451" />
<glyph unicode="!" horiz-adv-x="619" d="M171 119q0 53 37 89t86 36q58 0 107 -40t51 -111q0 -48 -43 -80.5t-93 -32.5q-54 0 -99.5 42t-45.5 97zM186 435v715q0 26 0.5 40t5.5 26t9 16t19 7.5t27 3.5h42h6.5h6.5h7q27 0 46.5 -2.5t38.5 -10t29 -23t10 -39.5q0 -64 1 -199.5t1 -191.5v-389q-5 -41 -28.5 -49.5 t-97.5 -8.5h-29q-25 0 -40.5 3.5t-28.5 14t-19 32t-6 55.5z" />
<glyph unicode="&#x22;" horiz-adv-x="851" d="M131 788v303q0 17 0.5 27.5t3.5 20.5t5.5 15t12 9.5t16.5 6t25 3t32 1.5h43h38.5t28 -3.5t20 -7t12.5 -14t8 -20t3.5 -31t2.5 -40.5t1 -55.5t3 -68.5v-175q0 -13 -1.5 -22t-5 -16.5t-10 -11t-16 -6.5t-23 -3.5t-31 -1t-40.5 0.5h-33q-47 0 -71 17.5t-24 71.5zM463 800 v290q0 19 2 32.5t4.5 23.5t11 15.5t14 9t21.5 5t27 2t35 0.5h15q24 0 42 -3t35 -10.5t26 -23.5t9 -40q0 -164 2 -164q0 -28 -1 -86t-1 -87q0 -20 -7.5 -34t-22 -20.5t-29.5 -8.5t-35 -2q-33 0 -52 0.5t-38 4t-28 10t-17 18t-10.5 27.5t-2.5 41z" />
<glyph unicode="#" horiz-adv-x="1261" d="M80 420q0 60 8.5 77.5t44.5 19.5q135 5 138 5q11 0 18 1t18 4t18 10.5t14.5 19.5t11 32t3.5 47q0 13 -8 17.5t-30 4.5q-21 0 -61.5 -0.5t-60.5 -0.5q-16 0 -26 8.5t-14 25.5t-5 32t-1 38q0 24 1 36.5t4.5 26t12 19.5t23 9.5t36.5 3.5q43 0 62 -2q25 0 39.5 0.5t30 3 t22.5 4t15.5 9t11.5 12t7.5 19.5t6.5 25t7 34q18 91 38 162q8 30 24.5 36t64.5 6q29 0 48.5 -1.5t41 -7t32.5 -18.5t11 -33q0 -37 -25.5 -111.5t-25.5 -110.5q0 -10 6 -16.5t19 -8.5t22 -3t27 -1q19 0 30.5 2t20 8.5t12.5 13.5t8.5 24.5t7 33.5t8 47t11.5 60q1 4 3.5 17.5 t4 18.5t4.5 17.5t6 18t7.5 14.5t9.5 13.5t11.5 10t15 7.5t18.5 2q6 0 17 -1t17 -1q8 0 25 1t27 1q45 -3 63.5 -17.5t18.5 -46.5q0 -37 -25 -108.5t-25 -103.5q0 -18 13.5 -24t39.5 -6h41q34 0 53.5 -8.5t20.5 -34.5q4 -71 4 -109q0 -49 -60 -49q-20 0 -62.5 1t-63.5 1 q-12 0 -22.5 -8.5t-17.5 -21t-12.5 -28t-8 -29.5t-2.5 -26q0 -16 16 -21.5t46 -5.5q5 0 14 1t13 1q18 0 30.5 -1t25 -5t19 -12t7.5 -20q1 -37 1 -113q0 -46 -85 -46q-18 0 -49.5 1t-43.5 1q-27 0 -39 -12.5t-19 -56.5q-5 -30 -12.5 -62t-17 -71t-14.5 -60q-4 -17 -7.5 -27 t-11.5 -17.5t-13.5 -11t-23.5 -5.5t-31 -2.5t-45 -0.5h-8q-42 0 -62 11t-20 38q0 38 25.5 121.5t25.5 125.5q0 17 -10 23.5t-32 6.5q-24 0 -37 -0.5t-28 -4.5t-21.5 -8t-15.5 -17.5t-13 -26.5t-9.5 -40.5t-9 -53.5t-9.5 -72q0 -2 -1 -5q-4 -19 -5.5 -27.5t-5.5 -21t-8 -17 t-11.5 -11.5t-16.5 -9t-23.5 -4.5t-31.5 -3t-41 -0.5q-50 0 -71 9t-21 41q0 34 25.5 118t25.5 125q0 17 -14.5 22t-42.5 5q-8 0 -25.5 -0.5t-26.5 -0.5q-53 0 -72 18t-19 81zM563 546q0 -10 6.5 -17t20.5 -9t20 -2.5t20 -0.5q38 0 65 29.5t27 89.5q0 16 -11.5 19t-47.5 3 q-100 0 -100 -112z" />
<glyph unicode="$" horiz-adv-x="1020" d="M116 128q0 31 47.5 80t68.5 49q34 0 121.5 -29.5t135.5 -29.5q57 0 103 36t46 92q0 25 -11.5 47.5t-28.5 39.5t-44.5 35t-50 29.5t-54.5 28t-50 26.5q-2 1 -6 4q-38 21 -57 32t-50.5 32t-48 36.5t-38 39t-31.5 46.5t-17.5 53.5t-7.5 64.5q0 232 221 306q22 7 31 11 t18 10.5t10 11.5t4 18t2.5 25.5t2.5 39t7 53.5q2 14 10 22.5t23 12t26 4t32 0.5h9q30 0 50 -1.5t42 -6.5t34.5 -16.5t15.5 -29.5l14 -135q8 -2 23 -7q36 -13 55 -20t44.5 -19t36.5 -24t11 -27q0 -7 -6.5 -25.5t-17.5 -40.5t-29 -38.5t-38 -16.5q-23 0 -82 15t-91 15 q-90 0 -138 -34t-48 -92q0 -29 12.5 -54t31.5 -43t47.5 -36.5t54.5 -31t60 -29.5t55 -31q121 -75 179 -146t58 -161q0 -93 -55 -175.5t-143 -108.5q-42 -15 -42 -70q0 -11 1.5 -32.5t1.5 -31.5q0 -32 -16 -49.5t-64 -17.5q-6 0 -17.5 0.5t-17.5 0.5q-7 0 -21.5 -0.5 t-22.5 -0.5q-17 0 -29.5 2t-21.5 5t-15 12t-9 15t-5 22t-3 26.5t-2 33.5q0 15 -1 23q-2 24 -30 24q-51 0 -119 21.5t-117 53t-49 56.5z" />
<glyph unicode="%" horiz-adv-x="2051" d="M89 851q0 59 23.5 110.5t63 88.5t89.5 63.5t104 40t107 13.5q104 0 193 -38.5t145 -112.5t56 -168q0 -88 -48 -162.5t-134 -119t-189 -44.5q-119 0 -211 38.5t-145.5 113.5t-53.5 177zM348 836q0 -31 15.5 -56.5t47 -41.5t71.5 -16q37 11 58.5 19t41 22t28 33t8.5 47 q0 24 -9.5 46.5t-25 39t-37 27t-44.5 10.5q-22 0 -42 -3.5t-41 -12.5t-36.5 -23.5t-25 -37.5t-9.5 -53zM481 7q0 20 45 82q56 78 222 309.5t256 355.5q18 25 73.5 91.5t77.5 106.5q35 63 87 119.5t86 56.5q10 0 38.5 1t45.5 1q115 0 115 -37q0 -8 -5 -19.5t-10.5 -19.5 t-15.5 -21.5t-13 -18.5l-574 -809q-10 -14 -35 -47.5t-42 -58.5t-32 -49q-13 -20 -29 -33.5t-29.5 -20.5t-37 -10.5t-39.5 -4t-49 -0.5h-17v3q-6 0 -25 -1.5t-30 -1.5q-63 0 -63 26zM1186 316q0 53 19 104.5t61 96t99 64.5q125 47 194 47q61 0 118.5 -11.5t110.5 -36.5 t92.5 -61.5t62.5 -91t23 -119.5q0 -90 -50 -163t-135 -114.5t-189 -45.5q-113 3 -206 47t-146.5 119t-53.5 165zM1444 308q0 -54 38.5 -87t105.5 -33q3 1 13.5 4t15.5 5t16 6t17.5 7t16 9t15.5 11.5t13 13t10.5 16t6.5 19t3 22.5q0 58 -40 92.5t-108 34.5q-51 0 -87 -34.5 t-36 -85.5z" />
<glyph unicode="&#x26;" horiz-adv-x="1330" d="M93 295q0 43 12.5 84.5t32 75.5t49 67.5t58.5 59t66 53.5q25 17 25 28q0 8 -16.5 36.5t-37.5 65t-29 56.5q-21 51 -21 108q0 82 42 143.5t110 92.5t151 31q87 0 156 -21t113 -56.5t67 -81.5t23 -98q0 -32 -7 -59t-24.5 -55.5t-32.5 -49t-47 -60t-52 -66.5q-9 -14 -9 -27 q0 -26 60.5 -95t82.5 -69q10 0 26 16t31 35t32 34.5t27 15.5t37.5 -17t55.5 -39t50 -44.5t22 -32.5q0 -18 -24 -49.5t-48 -58.5t-24 -36q0 -11 8 -22q20 -22 53 -62t61.5 -71.5t58.5 -55.5q6 -5 13 -12t11.5 -15t4.5 -14q0 -5 -2 -9t-6 -6.5t-8 -4.5t-10 -3.5t-10.5 -2 t-12 -1t-11 -0.5h-10.5h-8q-9 0 -27.5 1t-27.5 1v-3q-13 0 -36.5 -2t-34.5 -2q-24 0 -47.5 9.5t-41 23.5t-33.5 30.5t-27.5 30.5t-22 23.5t-17.5 9.5q-12 0 -25.5 -8t-42.5 -29q-7 -5 -11 -8q-130 -93 -298 -93q-55 0 -110.5 12t-107.5 38t-91.5 61.5t-63.5 86.5t-24 110z M358 317q0 -27 8.5 -45.5t29 -30t41.5 -18t58 -13.5q29 3 58 8.5t62 15t53.5 25.5t20.5 35q0 11 -26.5 44t-59.5 66.5t-62.5 59.5t-35.5 26q-27 0 -62 -30t-60 -71t-25 -72zM482 895q0 -28 21 -63.5t50 -35.5q32 0 55 41.5t23 69.5q0 43 -17 62.5t-55 19.5q-31 0 -54 -29 t-23 -65z" />
<glyph unicode="'" horiz-adv-x="533" d="M139 1096q0 38 3 57t15.5 30t30 13.5t54.5 2.5q53 0 82.5 -3.5t45 -14t19.5 -23t4 -38.5q0 -24 -1 -73.5t-1 -70.5q0 -11 0.5 -25.5t1 -27t1 -28.5t0.5 -28q0 -82 -27.5 -98t-140.5 -16q-21 0 -33.5 1.5t-26 8t-19.5 20.5t-6 36q0 3 1 10t1 11q0 41 -2 124.5t-2 131.5z " />
<glyph unicode="(" horiz-adv-x="659" d="M96 522q1 10 3.5 57t6.5 76q10 79 46 180t83 189t103.5 148t101.5 60q22 0 50 -21t45.5 -43t17.5 -29q0 -8 -5 -19t-11.5 -21t-19.5 -31.5t-23 -40.5q-71 -99 -102 -234.5t-31 -281.5q0 -152 41 -304.5t129 -265.5q35 -49 35 -71q0 -18 -53 -61t-78 -43q-19 0 -42 21 q-138 125 -215.5 324.5t-81.5 410.5z" />
<glyph unicode=")" horiz-adv-x="659" d="M93 -130q0 22 35 71q86 113 127.5 266t41.5 304q0 330 -132 516q-13 23 -30.5 50t-24 39.5t-6.5 22.5q0 7 18 29t45.5 43t48.5 21q47 0 103.5 -60t103.5 -148t83 -188.5t47 -180.5q3 -29 6 -76t4 -57q-4 -210 -82 -410t-215 -325q-23 -21 -43 -21q-27 0 -78.5 43 t-51.5 61z" />
<glyph unicode="*" horiz-adv-x="933" d="M117 998q0 27 27.5 78t52.5 51q14 0 59 -17t65 -17q13 0 17 14.5t4 35.5t2.5 42t18 36t45.5 15q10 0 35 0.5t39 0.5q96 0 104 -40q2 -9 3.5 -23.5t2.5 -25t3.5 -20.5t7.5 -15.5t14 -5.5q13 0 46 10t47 10q39 0 72.5 -48t33.5 -93q0 -21 -24.5 -34t-54 -17.5t-54.5 -14 t-25 -23.5q0 -12 20.5 -32t40.5 -42.5t20 -38.5q0 -13 -27.5 -41t-62.5 -50.5t-55 -22.5t-40.5 16t-34 35t-27 35t-20.5 16q-8 0 -21 -12.5t-30.5 -34t-26.5 -30.5q-5 -5 -33 -22q-42 0 -102.5 44t-60.5 79q0 10 8.5 23.5t19 24.5t25 26.5t21.5 23.5q4 3 4 8q0 14 -25 24.5 t-54.5 17t-54.5 20.5t-25 34z" />
<glyph unicode="+" horiz-adv-x="1146" d="M107 436q0 57 9 74t47 19q36 2 81.5 2.5t91.5 1t82 2.5q39 2 39 85q0 16 -2 45.5t-2 38.5q0 27 0.5 40.5t2 30t4.5 23.5t8 14.5t13.5 10t19 4t26.5 1.5q37 0 114 -3q32 -1 42.5 -11.5t11.5 -42.5q4 -58 7 -165v-16q1 -42 9 -49.5t57 -8.5h9q23 0 65.5 -1t77 -1.5 t66.5 -2.5q38 -1 45 -13.5t7 -71.5v-14q0 -65 -17 -76.5t-114 -12.5q-30 -1 -47 -1q-10 0 -37 0.5t-41 0.5q-80 0 -82 -36q-1 -42 -2 -107q-1 -30 -1 -43.5t-2 -33.5t-2 -27t-5.5 -19.5t-7.5 -15t-12 -9t-16 -6.5t-22.5 -2t-27 -2h-34.5q-15 1 -24 1q-40 0 -62 9.5t-25 40.5 q-3 29 -4 63.5t-0.5 61.5t-0.5 62q-1 43 -7.5 53t-36.5 10q-36 0 -112.5 -5t-117.5 -5q-45 0 -58 20.5t-13 86.5z" />
<glyph unicode="," horiz-adv-x="574" d="M87 -138q0 29 19.5 93.5t21.5 71.5q18 81 42 176q5 22 23 29.5t49 7.5q9 0 28.5 -0.5t30.5 -0.5q8 -1 27.5 -1t34.5 -1t31.5 -4t26 -11t9.5 -20q0 -9 -5 -19q-11 -26 -30.5 -77.5t-31.5 -83t-31 -74t-37 -76.5q-4 -8 -9 -14.5t-12 -11t-11.5 -8t-14.5 -5.5t-14 -3.5 t-17.5 -2t-17 -0.5h-20.5h-21q-19 0 -28 0.5t-21 3.5t-17 11t-5 20z" />
<glyph unicode="-" horiz-adv-x="800" d="M144 516q0 64 16.5 81.5t78.5 17.5q162 -2 162 -7h190q29 0 42 -6.5t20 -28t7 -66.5q0 -57 -15.5 -78t-68.5 -21q-55 0 -165 3.5t-166 3.5q-75 0 -88 12.5t-13 88.5z" />
<glyph unicode="." horiz-adv-x="523" d="M116 102q0 54 42 100t86 46q52 0 99 -33t58 -84q2 -5 3.5 -14t2.5 -11q-1 -18 -7 -35t-16 -31.5t-23.5 -27t-29 -21t-33 -13.5t-34.5 -5q-53 0 -100.5 39t-47.5 90z" />
<glyph unicode="/" horiz-adv-x="1011" d="M102 -32q0 25 15 66.5t31 69.5q48 88 94.5 179.5t97 202.5t80 178.5t89 205.5t79.5 185q2 5 7 16q13 30 20.5 46t22.5 43t28 41.5t31 26t37 11.5q6 0 17.5 -1t16.5 -1q8 0 23.5 1t22.5 1v-2q8 0 28.5 1t30.5 1q29 0 45 -6.5t16 -24.5q0 -8 -4 -20t-8 -21.5t-11 -24 t-9 -19.5q-9 -19 -55 -117.5t-59 -126t-53.5 -114.5t-58 -126t-52 -115t-56.5 -127.5t-50 -117.5t-53 -126q-2 -6 -7 -17q-10 -24 -15 -37t-15.5 -36t-18.5 -36.5t-20 -32t-23 -29.5t-24.5 -21.5t-29 -15.5t-32.5 -5q-8 0 -23.5 -0.5t-26 -0.5t-26 0.5t-26 1.5t-23.5 3 t-21.5 5.5t-16 8t-11.5 11.5t-4 16z" />
<glyph unicode="0" horiz-adv-x="1181" d="M104 646q0 87 13 162.5t46 147.5t83.5 123t131.5 82t185 31q176 0 298 -79t165 -227q12 -43 20 -96t10.5 -87t5.5 -97q0 -12 1 -18q-16 -174 -30 -266q-37 -158 -156.5 -248t-300.5 -90q-89 0 -168.5 30t-137.5 82.5t-95.5 123t-46.5 150.5q-2 21 -7.5 67t-8.5 72.5 t-5.5 65.5t-2.5 71zM388 606q0 -9 1 -28q1 -35 1.5 -54t3 -55t5.5 -58.5t9.5 -54.5t14.5 -52.5t21 -43.5t28.5 -36t37 -21.5t46.5 -8.5q66 3 111 29t70.5 76.5t37 116.5t11.5 156q0 40 -1.5 71.5t-6 75.5t-12.5 78t-23 70t-35 59.5t-51.5 39t-70.5 15.5q-34 0 -61.5 -9 t-47 -24.5t-34.5 -42t-24.5 -55t-15.5 -70t-9.5 -81t-5.5 -93.5z" />
<glyph unicode="1" horiz-adv-x="777" d="M85 736q-28 38 4 60q194 160 418 339q34 27 52 27q20 0 24.5 -27t4.5 -97v-12v-450v-483q0 -61 -16.5 -77t-77.5 -16h-89q-38 0 -56.5 18t-18.5 56q-2 115 -3.5 308.5t-2.5 274.5q-3 19 -16 19q-7 0 -15 -4t-14.5 -9.5t-15.5 -13.5t-16 -13q-38 -31 -71 2z" />
<glyph unicode="2" horiz-adv-x="1096" d="M111 25q0 4 3.5 11t10.5 16t13.5 17t14.5 18t12 14q70 89 220.5 269.5t225.5 275.5q93 107 93 194q0 147 -137 147q-117 0 -142 -70q-3 -8 -8.5 -26.5t-9.5 -30t-14 -21t-25 -9.5q-107 0 -163 5q-29 2 -37 13.5t-8 46.5q4 62 28.5 112.5t62.5 84.5t89 57t105.5 33 t113.5 10q66 0 125.5 -12t112 -39.5t90.5 -68.5t60 -101t22 -135q0 -37 -9 -75.5t-20.5 -69.5t-36 -69t-41.5 -62.5t-51 -62.5t-51.5 -56.5t-56 -57.5t-51.5 -53q-86 -92 -86 -110q0 -4 2 -7.5t6 -5.5t9 -2q28 0 64.5 0.5l73 1t65.5 0.5q91 0 137 -5q41 -4 49.5 -24.5 t8.5 -92.5v-5v-4.5v-4.5q0 -21 -2.5 -35t-13 -25t-28.5 -11q-45 0 -143 1.5t-124 1.5q-76 0 -228 -3t-227 -3q-104 0 -104 28z" />
<glyph unicode="3" horiz-adv-x="1067" d="M101 266q0 28 24 31q16 2 58.5 8.5t73 10t57.5 3.5q11 0 21.5 -6.5t18 -16.5t16.5 -25q16 -37 51.5 -55.5t80.5 -18.5q65 0 115 36t50 96q0 40 -7.5 69t-26.5 55t-55.5 39t-90.5 13q-21 0 -35.5 2t-25.5 8t-17.5 11.5t-13 20.5t-9.5 25t-10 34q-8 16 -8 66q0 21 12 31 t33.5 11.5t45.5 1.5t55.5 6t56.5 20q74 44 74 121q0 63 -39.5 102t-108.5 39t-114 -63q-26 -37 -69 -37q-23 0 -59 7t-68.5 23.5t-32.5 36.5q0 10 8 24q35 66 78 107t111.5 65.5t160.5 24.5q40 0 80 -6t78.5 -18.5t73.5 -30.5t64.5 -43t51 -54.5t33.5 -67t12 -78.5 q0 -65 -29.5 -118t-94.5 -116q-6 -5 -12 -10.5t-9.5 -9l-6.5 -6.5t-4.5 -5.5t-1.5 -5.5q0 -9 33 -22q2 -1 7 -3l1 -1h1l2 -1q81 -33 123.5 -106t42.5 -154q0 -75 -26.5 -136t-71 -100.5t-106.5 -66t-129.5 -38t-142.5 -11.5q-44 0 -90.5 7.5t-98 24.5t-92.5 52.5t-59 84.5 l-13 26t-13.5 29t-9 27t-4.5 31z" />
<glyph unicode="4" horiz-adv-x="1131" d="M106 280q0 10 8 61q18 70 51.5 207.5t62 247.5t56.5 207q4 15 12.5 24.5t17.5 14.5t26.5 7.5t29 3t37.5 0.5h16q101 0 101 -53q0 -8 -5 -37q-96 -423 -107 -473q-4 -23 -4 -27q0 -16 9.5 -20.5t35.5 -6.5q8 0 18.5 0.5t18.5 1.5t9 1h1h1h1h1h1h1h1h1h1h1h1h1h1h1h1h1h1h1 h1h1h1h1h1h1h1h1h1h1h1h1h1h1h1h1h1h1h1h1h1h1h1h9q27 0 43 4.5t24 14t10 19.5t2 28v41q0 86 2.5 283.5t2.5 279.5q0 13 0.5 22t4 16.5t6 12t12.5 8t16 5t24 2.5t30 1h40h25q37 0 55 -3t32 -15t18 -34.5t4 -64.5q0 -90 2.5 -291t2.5 -278q0 -35 5.5 -42t36.5 -11q8 -1 13 -2 t13.5 -2.5t17.5 -2.5q22 -6 28.5 -26.5t6.5 -52.5v-8v-10q0 -20 -0.5 -31.5t-2.5 -24.5t-5.5 -20t-10.5 -13.5t-17 -9t-24 -2.5q-44 -6 -54 -14.5t-10 -44.5q0 -8 1 -30t1 -41q0 -62 -11.5 -82t-54.5 -20h-133h-28t-19 3t-12.5 5t-6 10.5t-3 15t-1.5 22.5q0 1 -1 5t-1 6 q-8 73 -8 133q0 37 -67 37q-12 0 -39 -1t-37 -1q-210 0 -339 10q-37 3 -37 35z" />
<glyph unicode="5" horiz-adv-x="1017" d="M80 40q0 49 22 117t42 68q37 0 113.5 -11t113.5 -11q78 0 130 12.5t80.5 38t40 58.5t11.5 79q0 51 -24 85.5t-62.5 50.5t-85.5 25t-93.5 13t-85.5 9.5t-63 18.5t-24 37q0 28 8 67t22 92.5t19 73.5q5 26 25 123.5t34 146.5q10 37 51 37q33 0 100.5 -2.5t101.5 -2.5 q30 0 43 5q19 0 74.5 3t85.5 3q132 0 132 -44q0 -47 -17.5 -103t-37.5 -58q-52 0 -142.5 -1.5t-135.5 -1.5q-22 0 -38.5 -25.5t-24.5 -59.5t-12 -58t-4 -32q0 -16 20 -22t79 -12q69 -10 127.5 -38.5t104 -75t71.5 -116.5t26 -158q0 -78 -27.5 -143.5t-74 -110t-109.5 -75 t-133.5 -44.5t-147.5 -14q-29 0 -60.5 0.5t-71.5 3t-74.5 6.5t-64 10t-47 15.5t-17.5 20.5z" />
<glyph unicode="6" horiz-adv-x="1084" d="M101 396q0 48 11 98.5t25.5 89.5t43 92t47 83.5t55.5 86.5q2 4 3.5 6t3.5 5.5t4 5.5q44 69 131 192q1 1 2 2.5l2 3l2 3t2 2.5q21 33 30.5 46.5t22.5 29t24.5 20t26.5 8t37 3.5q7 0 26.5 -1.5t32.5 -1.5q8 0 24 0.5t25 0.5t22 -0.5t20.5 -2t15 -3.5t11 -6.5t3.5 -9.5 q0 -9 -5.5 -20t-18 -26.5t-15.5 -20.5q-11 -18 -49 -73t-55 -81.5t-42 -70t-42 -80.5q8 -8 19 -8q7 0 20 5.5t15 6.5q39 7 76 7q80 0 160 -37t119 -105q70 -124 70 -276q0 -88 -38 -161t-101.5 -120.5t-145.5 -73.5t-172 -26q-86 0 -166.5 28t-143 79t-100.5 129t-38 171z M378 391q0 -54 17.5 -97t54.5 -70t89 -27q88 0 138 56t50 137q0 96 -45.5 155t-128.5 59q-80 0 -127.5 -58t-47.5 -155z" />
<glyph unicode="7" horiz-adv-x="1025" d="M101 1137q0 23 20.5 31t67.5 8q58 0 199 -2.5t141 -3.5q58 0 175 1.5t176 1.5q77 0 77 -41q0 -21 -21 -62q-270 -496 -523 -991q-10 -20 -20 -33t-24.5 -22t-26.5 -13.5t-35.5 -7t-42 -3t-54.5 -0.5q-18 0 -30.5 1t-29 4.5t-25 12t-8.5 21.5q0 4 2 9.5t5.5 12t6.5 12.5 t6.5 12.5t5.5 10.5q20 36 163.5 309.5t227.5 412.5q20 29 38.5 64t18.5 50q0 20 -59 20q-96 0 -171.5 -1t-102.5 -1q-30 0 -49.5 2t-38 6t-29 13t-19.5 21.5t-13 33.5t-6 47t-2 64z" />
<glyph unicode="8" horiz-adv-x="1133" d="M91 330q0 105 40.5 173.5t140.5 137.5q12 9 12 19q0 7 -13 21.5t-31.5 34t-26.5 29.5q-57 71 -57 146q0 62 22.5 113.5t60 85.5t87 57.5t101 34t104.5 10.5q55 0 113.5 -11t114.5 -35t100 -57.5t71 -83.5t27 -108q0 -118 -101 -195q-29 -20 -33 -37q0 -5 1 -8.5t5 -6.5 t6.5 -5t10.5 -6.5t13 -7.5q75 -53 116 -121t41 -166q0 -106 -59 -189.5t-154.5 -127t-209.5 -43.5q-102 0 -191.5 21.5t-159.5 63.5t-110.5 109t-40.5 152zM356 348q0 -82 57 -128.5t135 -46.5q50 0 97.5 20.5t79 61t31.5 91.5q0 56 -26 101t-70 69t-96 24q-36 0 -71 -10.5 t-66.5 -32t-51 -60.5t-19.5 -89zM413 886q0 -53 29.5 -81.5t89.5 -38.5q73 0 118 33.5t45 82.5q0 27 -12 51.5t-32 41t-45 25.5t-52 9q-56 0 -98.5 -35t-42.5 -88z" />
<glyph unicode="9" horiz-adv-x="1070" d="M96 803q0 52 13.5 106.5t39.5 103.5t68.5 86.5t94.5 50.5q13 4 42.5 11.5t44.5 11.5t40 9t47.5 7.5t47.5 2.5q126 -4 228 -51.5t162 -133.5t60 -194q0 -76 -22 -150t-60 -142.5t-77.5 -128.5t-88 -134.5t-78.5 -132.5q-19 -33 -32 -53t-27.5 -34.5t-23 -21.5t-25.5 -10.5 t-28.5 -4t-38.5 0.5h-7.5h-7h-8.5q-3 0 -17 -1t-23 -1q-69 0 -69 37q0 26 17.5 59.5t51.5 81t45 64.5q7 12 24.5 38.5t28 43.5t23.5 41.5t20 46.5q0 2 -5 7.5t-8 5.5q-19 -2 -67.5 -14t-72.5 -12q-86 0 -158.5 58t-113 150.5t-40.5 195.5zM359 781q0 -88 46.5 -148.5 t115.5 -60.5q39 0 69 11t49 27.5t34 45.5t23.5 56t18.5 69q0 78 -21.5 126t-59.5 67.5t-95 19.5q-86 0 -133 -62t-47 -151z" />
<glyph unicode=":" horiz-adv-x="578" d="M146 102q0 54 42 100t86 46q53 0 100 -33t57 -84q2 -4 2.5 -9.5t1.5 -9.5t1 -6q-2 -54 -45.5 -93.5t-96.5 -39.5t-100.5 39t-47.5 90zM146 758q0 53 42 99.5t86 46.5q52 0 99.5 -33.5t57.5 -84.5q2 -6 3.5 -14.5t1.5 -10.5q-2 -54 -45.5 -93.5t-96.5 -39.5t-100.5 39 t-47.5 91z" />
<glyph unicode=";" horiz-adv-x="624" d="M104 -239q0 29 19.5 94.5t20.5 70.5q18 81 42 176q6 23 24 30t48 7q10 0 29.5 -0.5t29.5 -0.5q8 -1 28 -1t35 -1t31.5 -4t26 -11t9.5 -20q0 -9 -5 -19q-10 -25 -24.5 -62.5t-25 -65.5t-24 -60.5t-27.5 -63.5t-29 -59q-4 -8 -9 -14.5t-12 -11t-11.5 -8t-14.5 -5.5 t-14 -3.5t-17.5 -2t-17.5 -0.5h-20.5h-20.5q-19 0 -28.5 0.5t-21 3.5t-16.5 11t-5 20zM176 761q0 53 42 99.5t86 46.5q53 0 100 -33t58 -84q2 -6 3 -15t2 -11q-3 -53 -46.5 -93t-96.5 -40q-34 0 -68 17t-57 47.5t-23 65.5z" />
<glyph unicode="&#x3c;" horiz-adv-x="1056" d="M99 415v22v36t3.5 24t6 17.5t14.5 12t21.5 12t34.5 12.5q5 2 8 3.5t7.5 3t8.5 3.5q59 23 158.5 63.5t167.5 68t159 61t168 57.5q10 5 21 5q19 0 24 -21t4 -70v-15h-1q0 -13 0.5 -32.5t0.5 -25.5q0 -24 -11 -36t-51 -28q-68 -27 -212.5 -78.5t-209.5 -76.5q4 -14 10 -16 q40 -15 138 -49t168.5 -61.5t132.5 -58.5q16 -11 24 -30t9 -34.5t1 -47.5v-13q0 -69 -34 -69q-29 0 -72.5 15.5t-117 50.5t-89.5 42q-79 30 -230.5 85t-222.5 82q-24 9 -31.5 29.5t-7.5 56.5z" />
<glyph unicode="=" horiz-adv-x="1049" d="M153 189q0 65 16.5 83t77.5 18q14 0 70 -1.5t98 -1.5v-2q28 0 189.5 1t211.5 1q15 0 25.5 -0.5t19.5 -3t14.5 -5t10 -9t6.5 -13t3.5 -19t1.5 -24.5v-32q0 -58 -15 -79.5t-69 -21.5q-7 0 -247.5 3.5t-310.5 3.5q-77 0 -89.5 13t-12.5 89zM153 458q0 65 16.5 83t77.5 18 q14 0 70 -1.5t98 -1.5v-2q28 0 189.5 1t211.5 1q21 0 33 -1t22 -6t14.5 -10.5t7.5 -19.5t3.5 -28t0.5 -41q0 -20 -1 -32.5t-4 -25t-8.5 -20t-15 -13t-23 -8t-32.5 -2.5q-7 0 -247.5 3.5t-310.5 3.5q-77 0 -89.5 13t-12.5 89z" />
<glyph unicode="&#x3e;" horiz-adv-x="1056" d="M148 652q0 6 1.5 25.5t1.5 32.5h-2v15q0 25 0.5 37t3 27t8.5 21t17 6q8 0 20 -5q100 -31 205.5 -71t248.5 -98.5t199 -80.5q9 -4 26 -10q24 -9 33.5 -12.5t21.5 -12t14.5 -12.5t6 -18.5t3 -25t-0.5 -37.5v-18q0 -36 -7 -56.5t-31 -29.5q-68 -26 -220.5 -81t-233.5 -86 q-14 -7 -88.5 -42t-118.5 -50.5t-73 -15.5q-12 0 -19.5 6t-10 18.5t-3.5 21t-1 25.5v17v18.5t0.5 16.5t2 17.5t4 15.5t6.5 15.5t9.5 12t12.5 10.5q62 31 133 58.5t168.5 61.5t137.5 49q6 2 10 16q-64 25 -209 76.5t-212 78.5q-29 11 -42 20t-17.5 18.5t-4.5 25.5z" />
<glyph unicode="?" horiz-adv-x="1011" d="M91 894q0 38 32 124q14 39 40 67.5t57 47t78.5 31.5t93 20t111.5 13q125 -5 221 -43t154.5 -114.5t58.5 -180.5q0 -30 -4.5 -55.5t-11 -45t-23 -42t-28.5 -37t-40.5 -39t-47 -39.5t-58.5 -46q-22 -17 -34 -26q-30 -25 -49 -62t-21 -74q-1 -22 -1.5 -31.5t-4 -22.5t-5 -17 t-12 -10.5t-16.5 -7.5t-26 -3t-33.5 -2h-46.5h-3q-29 0 -44 1t-34.5 6t-28.5 15t-15.5 28.5t-6.5 46.5q0 39 19.5 79.5t54 79t67 68.5t75 66t61.5 55q52 49 52 124q0 67 -46 99.5t-127 32.5q-100 0 -135 -85q-29 -69 -85 -69q-11 0 -35.5 3.5t-35.5 3.5q-7 0 -22.5 -1 t-23.5 -1q-37 0 -54 9t-17 34zM341 102q0 54 42.5 98.5t86.5 44.5q30 0 59.5 -13.5t51.5 -34.5t35.5 -47.5t13.5 -51.5q0 -50 -42.5 -86t-115.5 -36q-39 0 -85 38.5t-46 87.5z" />
<glyph unicode="@" horiz-adv-x="1628" d="M96 507q0 87 24 175.5t77.5 173t128.5 136.5q218 155 493 155q72 0 144.5 -10t144 -31t135.5 -51.5t119 -74t95.5 -95.5t63 -119.5t22.5 -142.5q0 -67 -22.5 -132.5t-63 -119t-93 -95t-116 -64.5t-128.5 -23q-94 0 -163 46q-24 13 -40 13q-13 0 -81.5 -26.5t-104.5 -26.5 q-116 0 -194.5 82t-78.5 207q0 56 15.5 109t49 100.5t80.5 83t115 56.5t149 21q45 0 89.5 -9.5t84 -29.5t70 -47.5t48 -65t17.5 -80.5q0 -34 -18.5 -98t-18.5 -94q0 -23 21 -23q34 0 60.5 20.5t41 49t24 62.5t12.5 57t3 35q0 97 -55 169.5t-152 110.5t-222 38 q-162 0 -283.5 -55t-188.5 -159.5t-67 -245.5q0 -122 63 -214.5t177 -143.5t263 -51q52 0 112.5 8t106 18t112 24.5t109.5 22.5q26 0 50.5 -57.5t24.5 -93.5q0 -33 -86 -61.5t-192.5 -42.5t-190.5 -14q-38 4 -111.5 9.5t-107.5 8.5q-109 11 -215 58t-191 130t-119 186 q-42 121 -42 231zM687 477q0 -34 17 -56t49 -27q73 0 131 54.5t58 131.5q0 28 -8 46t-25 27t-44 9q-47 0 -88.5 -26.5t-65.5 -69t-24 -89.5z" />
<glyph unicode="A" horiz-adv-x="1074" d="M56 29q0 14 10 37l255 633q47 153 161 426q9 20 14 29.5t17 22t24 12.5q23 0 44 -22.5t37.5 -61t30 -77.5t29 -84.5t26.5 -70.5q337 -803 337 -838q0 -13 -12.5 -23t-39.5 -10h-72q-15 0 -51 -1t-50 -1q-24 0 -36 10.5t-15.5 26t-6.5 31t-13.5 26t-31.5 10.5h-333 q-27 0 -37.5 -9t-21.5 -50q-6 -47 -66 -47q-8 0 -21.5 1t-18.5 1h-121q-38 0 -38 29zM450 344q0 -16 17 -19.5t72 -3.5h59q16 0 25 2t13 8t4.5 11t0.5 17v5q-45 126 -74 258q-9 9 -19 9q-98 -225 -98 -287z" />
<glyph unicode="B" horiz-adv-x="1094" d="M151 125v602q0 65 7 191t7 189q0 32 14.5 46.5t57.5 25.5q134 20 223 20q40 0 76.5 -3t76.5 -9t74.5 -17.5t67.5 -27.5t59 -39.5t45.5 -53t30 -69.5t10.5 -86q0 -33 -9 -63.5t-22.5 -51t-29.5 -38.5t-29.5 -29t-23 -18t-9.5 -8l7 -14q96 -32 155 -121t59 -200 q0 -75 -29 -140t-84.5 -116.5t-147 -81t-206.5 -29.5q-68 0 -98.5 0.5t-83 6.5t-102.5 19q-10 3 -26 7.5t-21.5 6.5t-16 6.5t-13.5 8.5t-8.5 11.5t-6.5 17.5t-2.5 24t-1.5 33zM431 279q0 -53 11 -62t75 -9h42q83 11 118.5 54.5t35.5 128.5q0 40 -15 69t-37.5 45.5t-56.5 26 t-63.5 12t-66.5 2.5q-15 0 -24 -2.5t-13 -9t-5 -12.5t-1 -19v-224zM431 840q0 -62 12.5 -72t87.5 -10q50 0 77 38t27 86q0 50 -35 76t-81 26h-7h-31.5t-21.5 -2t-15 -4.5t-7.5 -9t-5 -14.5t-0.5 -22v-92z" />
<glyph unicode="C" horiz-adv-x="1331" d="M96 594q0 156 63.5 284.5t184.5 206.5q159 101 385 107q164 -4 279 -35t205 -101q24 -20 24 -40q0 -21 -23 -50l-50 -66q-13 -17 -22.5 -24.5t-23.5 -7.5q-16 0 -63 26q-15 10 -44.5 23.5t-95.5 31t-133 17.5q-61 0 -118.5 -13.5t-110.5 -44t-92 -74.5t-62.5 -109.5 t-23.5 -144.5q0 -174 110.5 -270.5t307.5 -96.5q156 0 260 66q47 29 69 29q23 0 45 -31l51 -65q0 -1 16 -28q7 -10 7 -22q0 -30 -60 -63q-105 -61 -197.5 -88t-220.5 -27q-64 0 -128 9.5t-130 31.5t-125.5 55t-111.5 82.5t-90 111t-60 143.5t-22 177z" />
<glyph unicode="D" horiz-adv-x="1213" d="M153 138q0 362 0.5 615t0.5 258q0 10 -0.5 33t-0.5 36q0 93 50 101q83 13 198 13q135 0 277 -35q3 -2 9 -2q136 -37 229.5 -111.5t142 -187.5t48.5 -260q0 -68 -9.5 -131.5t-30.5 -127.5t-59 -120t-90 -94q-63 -50 -147.5 -82.5t-166 -45.5t-168.5 -13q-79 0 -178 16 q-38 5 -58 12t-31.5 24t-13.5 38t-2 64zM430 248q0 -51 38 -51q86 0 153.5 32t108.5 88t62 128t21 156q0 59 -9 111t-31.5 102.5t-57 86.5t-90.5 58t-128 22q-55 0 -57 -31q0 -20 -2 -169t-7 -220q0 -51 -0.5 -155.5t-0.5 -157.5z" />
<glyph unicode="E" horiz-adv-x="939" d="M170 82q0 87 0.5 258.5t0.5 255.5v490q0 25 0.5 37t4 24t8 16.5t16 8t24 4t36.5 0.5h477q46 0 59 -19.5t13 -79.5q0 -76 -15 -95t-75 -19h-229q-16 0 -26.5 -5t-16 -14.5t-7 -19.5t-1.5 -24v-128q0 -68 35 -68q47 -2 125 -2h16q103 0 123 -12t20 -79v-74 q0 -28 -17.5 -36.5t-72.5 -8.5q-14 0 -72.5 1t-96.5 1q-37 0 -48.5 -8.5t-11.5 -38.5q0 -33 1.5 -97.5t1.5 -97.5q0 -22 7.5 -29.5t29.5 -7.5q75 -3 226 -3q78 0 91 -14.5t13 -98.5v-17q0 -38 -13 -60t-52 -22h-470q-61 0 -82.5 17t-21.5 65z" />
<glyph unicode="F" horiz-adv-x="892" d="M173 123v475v488q0 25 0.5 37.5t4 24.5t7.5 16t16 7.5t23.5 4t35.5 0.5q74 0 223.5 -1t224.5 -1q18 0 29.5 -1t23 -4.5t17.5 -11.5t8 -20q4 -49 4 -111q0 -30 -16.5 -41.5t-74.5 -11.5q-37 -2 -110 -3.5t-110 -3.5q-35 0 -35 -64l1 -123q0 -71 34 -71t99.5 -1.5 t99.5 -1.5q36 0 47 -19t11 -58q0 -61 -9.5 -90.5t-26 -37.5t-51.5 -8q-30 0 -89.5 1.5t-89.5 1.5q-28 0 -28 -51q0 -7 1 -18.5t1 -15.5q0 -10 -1 -29.5t-1 -29.5q0 -25 1 -75.5t1 -75.5q0 -81 -8 -158q-1 -10 -9 -18t-21 -12t-29 -7t-33 -4t-33.5 -1.5t-29.5 0.5h-14 q-32 0 -47.5 3t-27.5 16t-15.5 36.5t-3.5 67.5z" />
<glyph unicode="G" horiz-adv-x="1405" d="M107 611q0 271 178 429.5t484 158.5q125 0 251 -35t203 -103q26 -24 26 -46t-18 -46q-11 -17 -39 -52q-37 -45 -58 -49h-5q-20 0 -61 26q-122 69 -299 69q-40 0 -78 -6t-76 -19t-71 -33t-62 -50t-49 -68t-31.5 -88t-11.5 -109q0 -171 111 -274t289 -103q57 0 93 3t62 9.5 t39 20.5t18.5 33t5.5 50q0 30 -0.5 44t-3 30t-6.5 21.5t-12.5 11.5t-20 7t-29.5 1q-10 0 -41.5 -1t-53.5 -1q-24 0 -38.5 1t-25.5 7t-16 11t-8.5 20.5t-3.5 29v42.5q0 31 8 50.5t26.5 28.5t37 11.5t49.5 2.5q20 0 68.5 -1.5t74.5 -1.5q17 0 62 3t69 3t41 -1.5t35.5 -5.5 t29.5 -11.5t18.5 -21.5t7.5 -33v-403q0 -33 -15.5 -61t-44.5 -41q-186 -87 -413 -87q-100 0 -186.5 14t-170 49.5t-147 91t-111 143t-67.5 200.5q-14 70 -14 129z" />
<glyph unicode="H" horiz-adv-x="1235" d="M166 1075q0 19 1 31.5t4 24t7 18t13.5 12.5t19.5 8t29 4t37.5 2.5t49.5 0.5q66 0 89.5 -21t23.5 -91q0 -30 -0.5 -92.5t-0.5 -94.5q0 -76 6 -145q3 -22 13.5 -27.5t43.5 -5.5q40 0 121.5 1.5t121.5 1.5q14 0 21.5 1t13 3.5t8 9.5t3 15t0.5 23q0 59 2 169.5t2 169.5 q0 17 1 28t5.5 25.5t16 22t28.5 7.5h157q25 0 37.5 -6t20 -29t7.5 -69v-949v-35.5t-1.5 -28t-4 -22.5t-6.5 -15.5t-10 -11.5t-15 -7q-45 -3 -168 -3q-27 0 -45 11.5t-20 44.5q-10 54 -10 132q0 38 1 111.5t1 108.5q0 50 -37 50q-43 0 -129.5 -0.5t-129.5 -0.5q-38 0 -45 -7 t-7 -45q0 -64 -1.5 -179t-1.5 -179q-3 -22 -11 -31.5t-27 -10.5q-84 -5 -162 -5q-23 0 -34 2.5t-20.5 13.5t-13 33.5t-3.5 61.5v475q0 84 -1 244.5t-1 244.5z" />
<glyph unicode="I" horiz-adv-x="609" d="M166 1127q0 51 39 51q34 0 96.5 -2t96.5 -2q6 0 11.5 -1.5t9.5 -6t7 -8.5t4.5 -11t2.5 -12t1.5 -13.5t0.5 -13v-13.5v-12v-982v-27t-2 -21t-3 -17t-6 -12.5t-9.5 -10t-15 -6t-19.5 -4t-27 -2t-33.5 -1.5h-42.5q-22 0 -35.5 0.5t-26.5 3.5t-19.5 5t-13 11t-8.5 15.5 t-4 23.5t-2 30v41v478q0 91 -1 259t-1 260z" />
<glyph unicode="J" horiz-adv-x="622" d="M-25 -255q0 21 5.5 46t14 55.5t12.5 46.5q0 5 1.5 8.5t4.5 6.5l5 5t7 3.5t7.5 2t9.5 1t9.5 0.5h11h11.5q27 0 45 5t28.5 13.5t15.5 27t6.5 38t1.5 53.5q0 171 2 507t2 506v44t4.5 28.5t9 19.5t19 8.5t28.5 5t44 0.5h39t32 -1t27.5 -2.5t21.5 -4.5t17 -7t12 -11t9.5 -15 t5.5 -19t4 -24.5t1 -30.5q0 -2 -1 -89.5t-1 -153.5q0 -262 6 -262q0 -48 1 -143.5t1 -143.5q0 -218 -19 -380q-11 -89 -83 -144.5t-180 -55.5q-198 0 -198 56z" />
<glyph unicode="K" horiz-adv-x="1183" d="M165 64v524v505q0 24 5 40.5t11 25t21.5 12.5t26.5 4.5t35 0.5h8q28 0 45 -0.5t35.5 -2t29.5 -5t22 -9t16.5 -13t10 -19t6.5 -25.5t2 -34q0 -410 18 -410q8 0 48 49t106 135.5t76 99.5q12 17 30 45t32 51.5t33 49.5t37 44t40 30t45 12q13 0 62.5 1t78.5 1q69 0 69 -34 q0 -7 -7.5 -17.5t-15.5 -15.5q-41 -58 -166.5 -225.5t-187.5 -258.5q-13 -16 -13 -34q0 -8 2.5 -14.5t10.5 -16.5t12 -16q187 -255 360 -469q16 -19 16 -35q0 -40 -116 -40q-41 0 -62 1t-48.5 5t-43.5 12.5t-33 23.5t-32 38q-120 187 -296 414q-5 6 -12 12.5t-15.5 13.5 t-13.5 12q-14 -10 -14 -29q0 -4 1.5 -15.5t1.5 -15.5q-3 -256 -3 -388q0 -24 -4 -38t-12 -24t-27.5 -14.5t-43.5 -6t-68 -1.5q-74 0 -96.5 10t-22.5 54z" />
<glyph unicode="L" horiz-adv-x="825" d="M168 593v463v34.5t1 26t2.5 21.5t5 15t8.5 11.5t12.5 6t17 4.5t22.5 1q49 0 149 -3q16 -1 26 -5.5t15.5 -10.5t8 -20.5t3 -25.5t0.5 -35v-6v-5v-6q0 -130 4 -390t4 -390v-29t3.5 -18.5t6.5 -12t14.5 -5t21 -2.5h33.5h160q19 0 29.5 -5.5t14.5 -16t4 -30.5t1 -60t1 -61 q0 -39 -52 -39q-73 0 -216 1.5t-213 1.5q-27 0 -40.5 2.5t-25 13t-15.5 32t-4 58.5q0 83 -1 243.5t-1 240.5z" />
<glyph unicode="M" horiz-adv-x="1721" d="M93 48q0 60 24 138q41 134 81.5 286.5t87.5 340t73 288.5l3 9q4 16 6.5 25.5t8.5 22.5t13.5 19.5t16.5 6.5q17 0 38 -32q244 -373 363 -571q30 -62 48 -62q9 0 21.5 15t21.5 32q85 128 375 580q24 36 46 36q13 0 22 -10t15.5 -28.5t10.5 -36t8.5 -42.5t7.5 -38 q12 -48 110.5 -415t139.5 -560q2 -5 2 -13q0 -39 -74 -39h-91q-54 0 -76 20.5t-31 80.5q-13 44 -38 143t-47 174t-47 138q-5 8 -11 8q-7 0 -25 -24t-42.5 -64.5t-47 -79t-47.5 -82.5t-35 -61q-9 -16 -47 -91t-66 -118.5t-46 -43.5q-8 0 -15.5 5.5t-15.5 16.5t-14 21 t-14.5 25t-12.5 21q-40 67 -83.5 144t-95.5 169.5t-82 145.5q-16 24 -25 24t-20.5 -23t-22 -60.5t-21 -82t-19.5 -91.5t-16 -84.5t-12 -64.5t-5 -28.5t-1 -4.5q-24 -87 -39 -110t-56 -23h-97q-40 0 -62 4t-32.5 14.5t-10.5 29.5z" />
<glyph unicode="N" horiz-adv-x="1359" d="M160 1035v33t1 32.5t3 32t5.5 25t9 18.5t12.5 6q12 0 36.5 -12t38.5 -26q77 -85 176.5 -175.5t223.5 -197t185 -162.5q12 -13 29 -26.5t25 -13.5q5 0 8.5 2.5t5 8t3 10.5t2 13.5t0.5 14t-0.5 15t-0.5 13.5q0 75 2 220t2 219q0 60 16.5 75.5t74.5 15.5h42q39 1 54.5 1.5 t34.5 -8.5t23.5 -16t10 -38t5.5 -56.5t-1 -89.5v-40q0 -217 4 -217q0 -76 -3.5 -226t-3.5 -224q0 -32 4 -93.5t4 -93.5q0 -72 -32 -72q-28 0 -109 81q-80 76 -169 154.5t-207 178t-175 149.5l-11 10t-19.5 16t-14.5 6q-19 0 -19 -77q0 -75 -3 -214t-2 -214q0 -14 -0.5 -25 t-3.5 -20.5t-5.5 -16t-9.5 -11.5t-11 -8.5t-15.5 -5.5t-18.5 -3.5t-23.5 -2t-26.5 -0.5h-32h-6q-25 0 -42.5 3t-34.5 11t-25.5 25.5t-8.5 44.5q0 92 -1.5 260.5t-1.5 259.5q0 47 1.5 148t1.5 145q0 21 -4 66.5t-4 71.5z" />
<glyph unicode="O" d="M104 585q0 88 23.5 171.5t75 160.5t125.5 136t183.5 96t241.5 42q5 0 10.5 -0.5t10.5 -1t8 -0.5q95 -1 180.5 -16.5t163 -46.5t141.5 -75.5t114.5 -108t81.5 -141.5q42 -111 42 -213q0 -112 -41.5 -210t-112 -169t-162.5 -122.5t-194.5 -77t-206.5 -25.5 q-104 2 -204.5 30t-186.5 80.5t-152 124t-103.5 166t-37.5 200.5zM394 576q0 -58 19.5 -112.5t56 -99.5t85.5 -79t111.5 -53t129.5 -19q76 0 150.5 28t134 76.5t96.5 122t37 156.5q0 87 -33.5 161.5t-95 124.5t-140.5 65q-37 7 -127 21q-10 -2 -38.5 -4.5t-49.5 -5.5t-40 -8 q-132 -28 -214 -127t-82 -247z" />
<glyph unicode="P" horiz-adv-x="1043" d="M171 117v990q0 34 14 48.5t67 20.5q144 16 227 16q75 0 143 -14.5t129 -47.5t105.5 -81t71 -119t26.5 -158q0 -63 -19.5 -124.5t-62 -116.5t-103.5 -84q-20 -9 -40.5 -16.5t-44.5 -13t-40 -9t-44.5 -7t-39.5 -5t-43.5 -4t-39.5 -2.5q-11 -1 -17 -3t-10 -4.5t-5 -10 t-1.5 -14t-0.5 -22.5t-1 -30v-135q0 -73 -3 -112q-2 -19 -15 -31.5t-34.5 -18t-41 -7.5t-45.5 -2h-22h-33t-25 1.5t-20 4t-13 8.5t-10 14t-5 21.5t-3.5 29t-0.5 38.5zM442 897q0 -70 3 -208v-58q0 -17 13 -23.5t37 -6.5q76 0 129.5 57t53.5 140q0 54 -14.5 91.5t-43 57.5 t-63.5 28.5t-81 8.5q-21 0 -27.5 -23t-6.5 -64z" />
<glyph unicode="Q" d="M114 611q0 135 54 254.5t159 190.5q102 70 213 100.5t244 30.5q139 -2 254.5 -34.5t197 -88t138 -131t83.5 -162.5t27 -183q0 -135 -54 -248.5t-156 -188.5q-9 -7 -24 -18q-33 -24 -43.5 -33.5t-10.5 -19.5t10.5 -26t33.5 -50.5t43 -77.5q5 -15 5 -20q0 -12 -9.5 -19.5 t-30 -10.5t-34.5 -3.5t-40 -0.5h-12q-151 0 -194 103q-11 27 -37 27q-15 0 -44 -1t-44 -1q-113 0 -217 21.5t-198.5 69t-163.5 117t-109.5 173t-40.5 230.5zM396 586q0 -91 45.5 -172t125 -130.5t172.5 -49.5q49 0 49 19q0 13 -39 64t-39 69q0 22 66 22q12 0 33.5 -0.5 t28.5 -0.5q9 0 29 0.5t32 0.5q72 0 87 -18q8 -10 20 -31t21.5 -33t20.5 -12q39 0 75.5 54t56 121.5t19.5 118.5q0 71 -25.5 135.5t-72 114t-118.5 79t-160 29.5q-210 0 -318.5 -102t-108.5 -278z" />
<glyph unicode="R" horiz-adv-x="1075" d="M168 85q0 90 2.5 271t2.5 259v508q0 12 6 22.5t17 16.5t25 6q170 24 249 24q70 0 133.5 -10.5t128.5 -39t111.5 -73t76 -118t29.5 -169.5q0 -74 -31 -150t-85 -121q-29 -15 -40 -24.5t-11 -18.5q0 -6 1.5 -10.5t3 -7t6 -9.5t8.5 -13l180 -354q10 -20 10.5 -34.5 t-4.5 -21.5t-17 -11.5t-22 -5.5t-25 -1h-109q-23 0 -39 4t-32.5 17.5t-29.5 37.5l-144 276q-25 36 -41 46t-36 10q-14 0 -24.5 -1t-16.5 -4.5t-10 -5.5t-5 -9t-1.5 -9.5t0 -12t0.5 -13.5v-7q0 -42 2 -115.5t2 -104.5q0 -57 -13 -83t-53 -26l-161 2q-44 4 -44 83zM439 680 q0 -34 7.5 -45.5t35.5 -11.5q86 0 141 53.5t55 134.5q0 31 -6 55.5t-16 41t-25.5 29t-32 19t-38.5 10.5t-41 5.5t-43 1.5q-37 -5 -37 -39v-254z" />
<glyph unicode="S" horiz-adv-x="990" d="M90 120q3 12 16 29q4 6 13.5 20.5t15.5 23.5t15.5 20t17.5 19q16 13 29.5 19t27.5 4.5t26 -6.5t29 -15q77 -40 148 -40q30 0 57.5 3.5t53 12t44.5 20.5t30.5 30.5t11.5 40.5q0 30 -21 68t-48 56q-37 20 -103 64q-161 92 -187 119q-62 55 -97.5 113.5t-35.5 126.5 q0 98 44 183.5t118 112.5q136 48 253 48q45 0 133 -15.5t137 -39.5q28 -16 33 -36t-8 -48q-17 -39 -50 -76q-21 -23 -40 -23q-17 0 -45 9q-54 21 -152 21q-28 0 -48.5 -2t-43.5 -9t-37 -18.5t-23.5 -33t-9.5 -51.5q0 -12 3.5 -23.5t7 -20.5t12.5 -19.5t14.5 -17.5t18.5 -17 t19 -14.5t22 -14.5t21 -12.5t22 -12t20 -11.5l42 -27q34 -21 51 -32t48 -32t47.5 -35t41.5 -36.5t39 -41.5t30.5 -45.5t25 -52.5t14.5 -58t6 -67q0 -64 -27 -117t-68.5 -85.5t-94.5 -54.5t-101.5 -30.5t-93.5 -8.5q-126 0 -202 14.5t-159 58.5q-4 3 -12 7q-20 11 -29 17.5 t-17 16.5t-5 22z" />
<glyph unicode="T" horiz-adv-x="948" d="M93 1045.5v33.5v14q0 53 22 68t95 15q162 0 258 -3h336q16 -2 27 -12t15.5 -26.5t6 -32t1.5 -36.5q0 -7 0.5 -21t0.5 -25.5t-1.5 -21.5t-4 -18.5t-7 -15t-11.5 -11t-18 -8t-25.5 -5t-33.5 -1.5q-16 0 -46 1t-45 1q-19 0 -28 -1.5t-15 -7.5t-7.5 -16t-1.5 -30v-51 q0 -118 -1 -368.5t-1 -365.5q0 -24 -1 -35.5t-3 -25t-10.5 -18.5t-17.5 -10.5t-31 -7t-44.5 -2t-62.5 -0.5q-30 0 -47 3.5t-29.5 15t-17 33t-4.5 58.5q0 127 -4 398.5t-4 394.5q0 36 -51 36q-21 0 -58 -1t-51 -1q-13 0 -22 0.5t-17 3t-13.5 4t-10.5 7.5t-7.5 9.5t-4.5 14.5 t-3 17.5t-1.5 23t-0.5 27z" />
<glyph unicode="U" horiz-adv-x="1179" d="M160 462q0 100 2.5 323.5t2.5 323.5q0 36 10 51.5t37 15.5q112 0 171 -3q11 0 19.5 -4t13.5 -12.5t8 -16.5t4 -22.5t1.5 -23.5t0.5 -26v-10q0 -95 -2 -315.5t-2 -321.5q0 -39 2.5 -66.5t11.5 -57t25 -47t43.5 -29t67.5 -11.5q86 0 125 49.5t39 145.5q0 104 1 340t1 343 q0 58 13 73t68 15q11 0 52 -1t74 -1q41 0 52.5 -21.5t11.5 -91.5q0 -15 -1 -62t-1 -81q0 -223 3 -223q0 -32 2 -104.5t2 -109.5q0 -60 -3.5 -107t-14.5 -101t-30 -94t-52.5 -78.5t-78.5 -63t-111 -39t-148 -14.5q-61 0 -116 9t-109 29.5t-95 59.5t-60 93q-40 112 -40 287z " />
<glyph unicode="V" horiz-adv-x="1074" d="M64 1150q0 26 27 26h124q42 0 67 -11t39 -48q5 -16 22 -58t33 -82t22 -57q21 -54 62 -162.5t62 -163.5q5 -6 15 -9q8 0 55.5 123.5t101 270t65.5 173.5q1 5 3 8.5t5 5.5t5 4t6.5 3t7.5 2t9 1h9h9.5h9.5h143q12 0 21 -4.5t13 -11.5t4 -14q0 -30 -16.5 -86t-33.5 -92 q-95 -205 -199.5 -465t-176.5 -461q-19 -45 -43 -45q-11 0 -22.5 13t-21.5 36.5t-18.5 46.5t-18 51t-15.5 42q-67 178 -250 644q-15 39 -50.5 109.5t-55 121.5t-19.5 89z" />
<glyph unicode="W" horiz-adv-x="1714" d="M42 1144q0 8 3 13.5t10 8.5t15 4.5t20 2t23 1t26.5 1t28.5 1.5q12 0 31.5 1t26.5 1q26 0 42.5 -5.5t34.5 -25t33 -56.5q2 -3 66.5 -166t106 -255t54.5 -92q17 0 76.5 109.5t120 234t68.5 136.5q16 24 32 24q6 0 15 -8.5t20 -25t21.5 -34.5t23.5 -42.5t22 -42.5 t21.5 -42.5t17.5 -35.5q8 -15 25.5 -52.5t33.5 -71.5t33.5 -68.5t31 -55t19.5 -20.5q21 0 55.5 78t86 220.5t71.5 191.5q16 54 36 77.5t60 23.5h164q22 0 32 -5.5t10 -19.5q0 -15 -7 -31q-24 -57 -84 -211.5t-84 -212.5q-48 -111 -142 -333t-142 -332q-2 -12 -12.5 -26 t-20.5 -16q-5 0 -13 4t-14.5 9.5t-6.5 9.5q-45 90 -128 262.5t-120 248.5q-4 4 -13.5 12.5t-11.5 10.5q-27 -30 -33 -45q-37 -74 -118 -241t-126 -256q-1 -1 -4 -7t-4.5 -8l-4.5 -6t-6.5 -5t-7.5 -1q-32 0 -107 198q-145 375 -321 754q-18 37 -52 121t-34 96z" />
<glyph unicode="X" horiz-adv-x="1047" d="M79 34q0 3 1 7.5t2.5 9t3.5 9.5t4 9.5t5 10.5t4 9q167 307 231 435q32 62 34 82q0 6 -2.5 12.5t-5.5 12.5t-10 19t-13 25q-31 58 -68 132.5t-77.5 154.5t-66.5 133q-18 33 -18 51q-1 6 1 10q8 18 54 17h141q47 0 64 -13t36 -62q5 -13 14 -37.5t14 -39.5t14 -38 t14.5 -37.5t13.5 -32.5t14 -29t12.5 -21.5t12.5 -15t11 -4.5q10 0 22.5 17t27 51.5t22 54.5t20.5 57q31 91 52 121t50 30l178 2q36 0 47.5 -6.5t11.5 -27.5q0 -13 -6 -24q-33 -60 -76 -143.5t-85 -165.5t-76 -142q-23 -45 -23 -71t18 -61q41 -74 116 -217.5t111 -210.5 q3 -5 10.5 -19t11.5 -22t8 -19t4 -18q0 -20 -15 -28t-48 -11h-112q-51 0 -75.5 10.5t-40.5 49.5q-3 7 -25 59.5t-35.5 83t-33 73t-33.5 64t-21 21.5q-14 0 -41 -55t-60.5 -136.5t-37.5 -90.5q-19 -40 -43.5 -55.5t-64.5 -15.5h-154q-19 0 -31.5 10.5t-12.5 25.5z" />
<glyph unicode="Y" horiz-adv-x="1086" d="M71 1142q0 10 3 16.5t6.5 9.5t13.5 4.5t13.5 1.5h17.5l125 -1q64 0 83 -48q28 -51 78 -160.5t85 -172.5q33 -61 52 -61h1q6 0 23.5 35.5t35.5 79.5t23 67q16 47 61 121t57 99q11 21 26 31t33 12.5t52 2.5q159 0 159 -35q0 -27 -62 -149q-149 -266 -265 -483 q-9 -16 -15 -33t-8 -40.5t-2.5 -34t0 -41.5t0.5 -36q0 -42 -1 -126t-1 -122q0 -27 -6.5 -42.5t-24.5 -23t-38 -9.5t-57 -2h-41t-31.5 1.5t-25.5 4.5t-17 8.5t-12.5 14t-6 20t-2.5 28.5q0 38 -2.5 118.5t-2.5 119.5q0 17 0.5 49t0.5 47q0 64 -31 122q-50 92 -141 280 t-126 255q-3 5 -9.5 18t-10 20.5t-7 17.5t-3.5 16z" />
<glyph unicode="Z" horiz-adv-x="1008" d="M102 99v8q0 63 12.5 104t47.5 93q207 309 397 576q42 62 44 77q0 17 -34 17q-29 0 -88 -0.5t-88 -0.5q-132 0 -227 14q-32 6 -32 90q0 24 0.5 36t3 26t6.5 19t12 10.5t19 6.5t28 1q104 0 311.5 -1t310.5 -1q42 -2 54 -15t12 -59v-41.5v-30.5t-2.5 -27.5t-3.5 -21 t-6.5 -21.5t-8.5 -19.5t-13 -24t-16.5 -25t-21.5 -33.5q-35 -52 -114 -171t-139 -207.5t-117 -169.5q-3 -4 -14.5 -20.5t-18.5 -27.5t-14 -24t-8 -20q0 -18 269 -18q50 0 123 1t86 1q37 -4 45 -23.5t8 -85.5v-17q0 -50 -26 -59.5t-157 -9.5q-132 0 -230 -3q-52 0 -153 -2.5 t-161 -2.5q-24 0 -40 1.5t-27 7.5t-16.5 11.5t-8.5 20.5t-3.5 25.5t-0.5 35.5z" />
<glyph unicode="[" horiz-adv-x="660" d="M178 -96v1201q0 24 0.5 36t3 24.5t7 17.5t13.5 9.5t20.5 5.5t30.5 1q83 0 244 -7q49 0 49 -104q0 -42 -8.5 -57t-38.5 -17q-6 0 -18 2t-18 2q-38 0 -38 -108q0 -114 2 -279t4 -331t2 -284q0 -37 10 -49t47 -12q41 0 50.5 -19t8.5 -74v-10q0 -43 -13 -66t-55 -23 q-40 0 -121.5 -1t-122.5 -1q-14 0 -24.5 5.5t-17 17t-10 22t-5 29.5t-2 30.5t-0.5 33.5v5z" />
<glyph unicode="\" horiz-adv-x="973" d="M104 1159q0 30 61 30q8 0 25.5 -1t25.5 -1v2q8 0 22 -1t20 -1q4 0 11.5 1t10.5 1q14 0 25.5 -3t22.5 -10.5t19 -13.5t17.5 -20t14.5 -21.5t14 -26t12 -25t12 -27.5t11 -26q88 -202 135.5 -308t124.5 -265t150 -292q15 -28 27.5 -66.5t12.5 -62.5q0 -13 -8 -22t-24 -13 t-32 -5.5t-38 -1.5q-12 0 -32 0.5t-29 0.5q-17 0 -33 6.5t-28 14t-25 24.5t-20.5 27.5t-19 35t-16.5 35t-16 38t-14 35.5q-19 45 -54 118t-49 103q-59 128 -304 662q-3 5 -9.5 18t-11 21.5t-8 19.5t-3.5 20z" />
<glyph unicode="]" horiz-adv-x="660" d="M111 -150q0 24 0.5 34.5t3 24.5t8.5 19.5t17.5 10t29.5 4.5q37 0 46.5 12.5t9.5 49.5q0 1 -0.5 3.5l-0.5 2.5q0 143 5 453t5 446v11t-1 19.5t-3.5 26.5t-6.5 24t-11.5 20t-17.5 7q-5 0 -16.5 -2t-16.5 -2q-31 2 -39.5 17t-8.5 57q0 21 1.5 36.5t6 32.5t15 26t26.5 9 q161 7 233 7q52 0 64 -15.5t12 -78.5v-591v-38v-583q0 -18 -0.5 -25.5t-1 -24.5t-2 -25t-4 -21t-7 -19.5t-10.5 -14t-14.5 -10.5t-19.5 -3q-41 0 -117 1t-116 1q-23 0 -37.5 6.5t-21 20t-8.5 27t-2 34.5v10z" />
<glyph unicode="^" horiz-adv-x="1125" d="M104 665q0 10 18.5 38t35.5 44q43 40 121.5 110t142 129t117.5 114q15 9 25 9q6 0 16.5 -6.5t25 -18t30 -25t34.5 -30.5t35 -32t35 -32.5t31 -28.5q22 -21 77 -69.5t95 -87.5t71 -77q11 -28 15 -35q-27 -44 -81 -96t-85 -52q-15 0 -34 11.5t-32 23.5t-34 34t-29 30 q-29 26 -81.5 71t-69.5 60q-11 7 -16 7q-6 0 -17 -7.5t-24.5 -20.5t-25.5 -25.5t-25.5 -27t-19.5 -20.5q-131 -131 -179 -131q-10 0 -38 19t-57.5 42.5t-53 47.5t-23.5 32z" />
<glyph unicode="_" horiz-adv-x="1089" d="M131 -71q0 38 14 57t58 19q111 0 333.5 -1.5t335.5 -1.5q20 -1 32.5 -2.5t22 -8t13.5 -12t7 -22t3 -31v-45.5v-21t-1 -17t-2 -14t-5 -10.5t-7.5 -8.5t-11.5 -5.5t-16 -4.5t-21 -2t-27 -1h-34h-98q-187 0 -187 -9q-31 2 -65.5 3t-68.5 2t-65 2t-68.5 1.5t-65.5 1.5 q-47 0 -61.5 27t-14.5 104z" />
<glyph unicode="`" horiz-adv-x="822" d="M134 1314q0 21 81 21q8 0 23.5 -1t21.5 -1h15.5h16.5h15t16 -0.5t15 -2t15.5 -3t13.5 -4t14 -5.5t12.5 -7t11.5 -10q1 0 28 -27t37.5 -38t30 -33t28 -36t8.5 -23q0 -16 -11 -25t-29 -9h-101q-31 0 -51.5 9.5t-50.5 32.5q-78 58 -129 116q-31 21 -31 46z" />
<glyph unicode="a" horiz-adv-x="998" d="M48 25q0 11 4.5 24.5t13.5 32.5t11 25q31 73 164.5 381.5t202.5 475.5q0 2 2 7q7 18 11.5 28t12 24.5t15 22t15.5 7.5q7 0 15 -7t17.5 -21.5t16.5 -27.5t17.5 -36t15.5 -35.5t15 -36.5t12 -29q202 -490 303 -716q35 -81 35 -114q0 -13 -7 -20.5t-30 -9.5l-174 2 q-16 0 -26 2t-20.5 13.5t-14.5 32.5q-7 21 -37 21q-37 0 -110.5 -2.5t-110.5 -2.5q-5 0 -16 0.5t-16 0.5q-56 0 -81 -47q-15 -25 -84 -25l-131 2q-25 0 -33 7.5t-8 20.5zM415 280q0 -5 1.5 -9t4.5 -6.5t7.5 -4t11.5 -2.5l118 2q12 0 20 8.5t3 23.5l-50 165q-8 26 -14 35.5 t-13 4t-17 -28.5l-66 -164q-6 -13 -6 -24z" />
<glyph unicode="b" horiz-adv-x="1029" d="M158 79q3 139 3 283.5t-1.5 310t-1.5 254.5q0 32 0.5 47.5t10.5 32t18 22t40.5 14t58.5 11.5t91 11q6 1 9.5 1.5t8.5 1t10 0.5q38 5 76 5q86 0 184 -23q51 -13 94 -54.5t67 -92t24 -95.5q0 -55 -23 -94.5t-77 -93.5q-11 -9 -11 -12.5t26 -19.5t58.5 -38.5t44.5 -40.5 q36 -50 51 -91t15 -91q0 -82 -36 -148t-98 -108t-142.5 -64t-172.5 -22q-47 0 -96 4t-104.5 13t-91 29t-35.5 48zM425 248q0 -28 7 -39t35 -11q182 0 182 146q0 65 -37 97.5t-118 32.5q-24 0 -37.5 -3t-21 -12t-7.5 -24v-105q-3 -30 -3 -82zM426 825q0 -10 1 -28t1 -28v-18 q0 -22 0.5 -31.5t2.5 -19t7.5 -12t14.5 -2.5q14 0 33.5 4t43 13t39.5 29t16 47q0 22 -8.5 39t-22.5 26.5t-30.5 14t-34.5 4.5q-63 0 -63 -38z" />
<glyph unicode="c" horiz-adv-x="1232" d="M101 509q0 126 42.5 231t119 178.5t187 114t242.5 40.5q60 0 123 -7.5t145.5 -35t139.5 -71.5q32 -26 41 -38.5t4 -26.5t-30 -41l-40 -53q-10 -11 -17 -18.5t-14.5 -12.5t-12 -8.5t-12 -3.5t-10.5 0.5t-12 4.5t-13.5 6.5t-17.5 10.5t-21 12q-94 55 -213 55 q-82 0 -150.5 -25.5t-114 -69.5t-71 -101.5t-25.5 -122.5q0 -136 91.5 -225t237.5 -89q28 0 54 3.5t44 7t46 13t42 15.5t50 21t53 22q10 4 24 3q22 0 71 -58t49 -89q0 -32 -70 -70.5t-164.5 -64.5t-162.5 -26q-10 0 -26 1t-47 1q-22 -5 -46 -5q-22 0 -48.5 4.5t-46.5 10 t-51 14t-50 13.5q-79 17 -176 120q-144 152 -144 360z" />
<glyph unicode="d" horiz-adv-x="1149" d="M158 502q1 48 4 203t3 237q0 22 0.5 34.5t5 31t13 28.5t25 18.5t39.5 9.5q41 3 116 6t93 3q291 -6 438.5 -141.5t147.5 -383.5q0 -555 -644 -555q-55 0 -170 10q-42 4 -55.5 23t-13.5 72q0 335 -2 404zM420 255q0 -33 16.5 -44t72.5 -11q51 0 94.5 22t74 57.5t52.5 80.5 t32 91.5t10 88.5q0 44 -9.5 91t-29.5 93t-56 79t-83 42q-12 2 -31 5.5t-33.5 6.5t-32.5 5.5t-32 2.5q-37 0 -37 -32q0 -11 -3.5 -81t-3.5 -98q0 -51 1 -92.5t1 -66.5q0 -30 -1.5 -111t-1.5 -129z" />
<glyph unicode="e" horiz-adv-x="941" d="M168 123v23q0 65 1 195t1 196v426q0 64 10.5 79.5t59.5 15.5q83 0 250.5 -2t253.5 -1q12 0 20 -0.5t15.5 -2.5t12.5 -3t9.5 -6.5t7 -8t4.5 -12.5t2.5 -15.5t1 -20.5t1 -24.5t0.5 -30.5v-16q0 -33 -11 -52.5t-43 -19.5q-48 0 -142.5 1.5t-153.5 1.5q-24 0 -24 -25v-161 q0 -22 33 -22q164 -3 240 -3q55 0 55 -71v-70q0 -17 -2 -28.5t-7.5 -20t-14.5 -13t-24 -6.5h-250q-18 0 -25 -7t-7 -25q0 -102 2 -154q0 -21 7 -28t28 -7q34 0 100 -2.5t99 -2.5q14 0 40 1t38 1q44 0 54.5 -17t10.5 -79q0 -31 -1 -48.5t-7 -32t-11.5 -20.5t-22.5 -10 t-31 -4.5t-46 -0.5q-160 0 -468 10q-17 0 -28 3t-18.5 11.5t-11.5 15.5t-5.5 24.5t-2 29.5t-0.5 39z" />
<glyph unicode="f" horiz-adv-x="884" d="M156 64v467v419q0 21 0.5 32.5t1.5 25t4.5 20t8.5 13t13 9.5t19.5 4.5t26.5 1.5q13 0 470 -5q18 0 28.5 -0.5t21 -3.5t15.5 -5t10 -10.5t6.5 -14t2.5 -21.5t1.5 -27t0.5 -36v-6q0 -67 -39 -71q-37 -4 -89 -5q-34 -1 -63 -1q-15 0 -28.5 0.5t-27.5 0.5q-29 0 -60 -1 q-32 -2 -40.5 -10t-8.5 -37q0 -106 -2 -162h83q23 0 72 1t80 1q37 0 51 -11.5t17 -41.5l1 -103q0 -38 -15 -47.5t-55 -9.5q-31 0 -100 0.5t-100 0.5q-18 0 -25 -7t-7 -25q0 -55 -2 -168.5t-2 -171.5q0 -36 -23 -47.5t-91 -11.5q-12 1 -36 1t-37 0.5t-31 3.5t-27.5 9.5 t-16.5 19t-8 30.5z" />
<glyph unicode="g" horiz-adv-x="1333" d="M102 531q0 95 25 177.5t75.5 149t123.5 114t173.5 73t221.5 25.5q122 0 239.5 -33t207.5 -103q19 -16 19 -35q0 -28 -45.5 -81.5t-64.5 -53.5q-20 0 -48 26q-20 15 -50 28.5t-62 22.5t-64 14t-58 5q-425 0 -425 -343q0 -79 30.5 -142t84 -102t123.5 -59t151 -20h43.5 t37.5 2.5t33.5 7t26 13t21.5 21.5t11.5 32t4.5 44q0 37 -8.5 51.5t-40.5 14.5q-15 0 -46 -2t-46 -2q-60 0 -75.5 23.5t-15.5 105.5q0 26 4.5 41.5t17.5 24.5t37 9q33 0 97.5 0.5t97.5 0.5h203q15 -1 25 -10.5t15 -20t7.5 -29.5t3 -30.5t0.5 -32.5v-8q0 -33 -1 -97.5 t-1 -97.5q0 -17 1 -51.5t1 -50.5q0 -39 -49 -73q-64 -42 -187 -66t-223 -24q-71 0 -137.5 8t-132.5 27t-122 47.5t-104.5 72t-82.5 98t-53.5 128t-19.5 160.5z" />
<glyph unicode="h" horiz-adv-x="1183" d="M154 62v909q0 18 0.5 29.5t2.5 22t6 15.5t10 11t14.5 6.5t20.5 3t28 1t36 0.5q21 -1 32 -1q79 0 100 -12t22 -63q1 -24 1 -94.5t1.5 -118t6.5 -93.5v-5q1 -20 6.5 -25t32.5 -5q98 0 233 6q20 0 26.5 7t6.5 30q0 47 2 141t2 142v35t2.5 23t6.5 16.5t13 8.5t20.5 5.5 t31.5 0.5q11 0 51 -1t72 -1h31.5t20.5 -5.5t13 -9.5t6 -21t3 -30t-1 -46v-35q0 -64 1 -189.5t1 -188.5q-2 -153 -2 -459q0 -19 -1 -30.5t-6 -20t-9.5 -12.5t-19 -6.5t-25 -2.5h-35.5h-11h-43t-34.5 1.5t-28.5 3.5t-21 6.5t-16.5 10.5t-10 15.5t-7.5 21.5t-2 28 q-1 29 -1.5 140t-5.5 169q0 10 -2 16t-5.5 10t-9.5 6t-15 2q-123 0 -248 -5q-31 0 -31 -82q0 -16 1 -41t1 -35q0 -145 -2 -215q-1 -27 -13 -38.5t-38 -11.5q-29 0 -86.5 -1t-86.5 -1q-17 0 -27.5 5t-14.5 16t-5 19t-1 22z" />
<glyph unicode="i" horiz-adv-x="590" d="M165 80v865v30t0.5 23.5t2 20.5t4.5 14.5t7 12t10.5 6.5t15 5t20.5 1q53 0 165 -3q32 -2 39 -21.5t7 -73.5v-867q0 -37 -2 -51.5t-18.5 -26.5t-43 -13.5t-85.5 -1.5q-73 0 -97.5 14.5t-24.5 65.5z" />
<glyph unicode="j" horiz-adv-x="605" d="M-13 -230q0 34 5 77.5t15 76.5t20 33q9 0 29.5 -2t34.5 -2q46 1 60.5 28t14.5 90q0 39 -3 118t-3 119q0 109 2.5 328t2.5 328q0 63 11 77.5t59 14.5q103 0 151 -3q15 -1 24.5 -6.5t15 -12t7.5 -22.5t2.5 -28t0.5 -39q0 -2 -0.5 -82t-0.5 -139q0 -145 4.5 -328.5 t4.5 -310.5q0 -49 -2.5 -84.5t-9.5 -75t-20 -67t-35.5 -53.5t-54 -41.5t-76 -25t-102.5 -9.5q-32 0 -55 1.5t-49 5t-39.5 12t-13.5 22.5z" />
<glyph unicode="k" horiz-adv-x="1148" d="M158 56q0 368 2 634t2 283q0 21 0.5 33t3 23t6.5 16t12.5 9t19.5 4.5t28 0.5q78 0 156 -4q15 -2 25 -9t14 -22.5t5 -28.5t1 -36q0 -56 1.5 -170t1.5 -169q0 -18 13 -30q9 0 38 37t68.5 93.5t48.5 69.5q2 2 70 90t92 129q25 42 64 42q32 0 103.5 1t106.5 1q33 0 33 -27 q0 -9 -15 -28q-153 -205 -308 -405q-35 -44 -35 -64q0 -12 4.5 -22.5t7.5 -14t13 -15.5l333 -430q7 -9 7 -20q0 -13 -8 -20t-34 -7h-188q-23 0 -42 9.5t-27 24.5q-61 70 -165 218.5t-124 175.5q-27 34 -42 34t-15 -42q0 -44 0.5 -127t0.5 -127q0 -62 -5 -123q-4 -43 -75 -43 h-117q-25 0 -40.5 3.5t-28 16.5t-12.5 36z" />
<glyph unicode="l" horiz-adv-x="798" d="M165 101v436v437q0 33 2 48t12 24.5t24.5 11t46.5 1.5q44 0 128 -3q17 -1 27.5 -5.5t17 -11.5t9.5 -23t3.5 -31t0.5 -44q0 -113 4 -338.5t4 -338.5q0 -35 10.5 -43t59.5 -8q54 0 158 -3q33 -1 40 -21.5t7 -90.5v-7.5v-6.5v-7q0 -35 -9 -53t-35 -19q-190 -7 -425 -7 q-58 0 -71.5 17.5t-13.5 85.5z" />
<glyph unicode="m" horiz-adv-x="1578" d="M77 54q0 21 14 65q39 120 76.5 255.5t82.5 307.5t69 259q1 2 3.5 14t5 19.5t7 19t10 18.5t13.5 12t18 5q17 0 42 -37q152 -211 324 -465q1 0 3.5 -5t3.5 -6.5t4.5 -6t5 -6.5t4.5 -5.5t5.5 -5t6 -2.5t6.5 -1q2 0 4.5 0.5t5 2.5l5 4t5.5 5.5t5 6t5 6.5t4.5 6.5t5 7t4.5 6.5 l339 482q18 25 33 25q14 0 26 -17.5t18 -37.5q172 -643 243 -895q1 -4 4 -13t5 -17t2 -14q0 -16 -10.5 -28t-26.5 -12q-30 0 -87.5 1.5t-87.5 1.5q-39 0 -51 46q-5 18 -19.5 74t-28 107.5t-29 105.5t-28 87t-18.5 33q-11 -4 -19 -11t-11 -12.5t-8 -16.5t-7 -15 q-96 -163 -237 -358q-1 -1 -5.5 -5t-5.5 -5t-5 -4.5t-6.5 -5t-6 -3.5t-7 -2.5t-7.5 -0.5q-16 0 -26 15l-255 392q-1 2 -5.5 9.5t-7.5 11.5t-8 7.5t-10 3.5q-15 0 -40.5 -86t-52 -195.5t-31.5 -124.5q-7 -18 -10.5 -26t-10 -15t-15.5 -8t-25 -1h-90h-36.5t-28.5 1.5t-24 4.5 t-16.5 8t-11.5 13.5t-3 19.5z" />
<glyph unicode="n" horiz-adv-x="1302" d="M160 994q0 49 23 49q7 0 18.5 -5t22.5 -12t18 -13q105 -88 309 -239.5t260 -195.5q8 -7 20 -15.5t19 -8.5q12 0 15.5 91t3.5 210t3 149q1 29 13 42t40 13q26 0 54.5 -0.5t63.5 -2t55 -1.5q14 -1 23.5 -8.5t13.5 -20.5t5.5 -25.5t1.5 -29.5v-29q0 -144 1 -433t1 -432 q0 -28 -6.5 -41.5t-25.5 -13.5q-17 0 -44 15.5t-47.5 31.5t-54.5 45.5t-43 36.5q-52 41 -143.5 116.5t-169.5 137t-150 109.5q-3 2 -8 2q-19 0 -19 -244v-193q0 -61 -22 -71.5t-142 -10.5h-6.5h-6h-6.5q-52 0 -70 14t-18 64v457q0 76 -1 230.5t-1 231.5z" />
<glyph unicode="o" horiz-adv-x="1479" d="M89 524q0 58 13 116.5t37.5 115t64 107t90 90.5t118 67.5t144.5 35.5l194 22q188 -13 326.5 -79.5t217 -186t78.5 -280.5q0 -126 -42 -231t-133 -170q-97 -69 -215.5 -107.5t-244.5 -38.5q-71 0 -145 15.5t-146.5 44t-136.5 75t-113.5 104t-78 135.5t-28.5 165zM385 517 q0 -49 15.5 -94.5t46 -83.5t71.5 -66t94.5 -44t113.5 -16q71 0 137 23t116.5 64.5t81 104t30.5 135.5q0 69 -30.5 132t-82.5 105t-111 51q-16 2 -37.5 5.5l-43 7t-37.5 5.5q-172 0 -268 -90t-96 -239z" />
<glyph unicode="p" horiz-adv-x="1005" d="M156 67v10q0 28 1 84t1 78q0 15 -1 47.5t-1 49.5q0 32 1 96t1 97v452q2 20 7.5 32.5t17 21t30.5 11.5q146 26 229 26q96 0 181 -26t149 -73t101 -119t37 -159q0 -75 -33.5 -140.5t-89.5 -109.5t-128 -69t-148 -25q-8 0 -23.5 1.5t-24.5 1.5q-43 -2 -43 -72 q0 -27 2.5 -105.5t2.5 -122.5q0 -54 -54 -54h-159q-21 2 -32.5 6.5t-16.5 15t-6 19t-1 26.5zM420 617q0 -33 9 -40.5t48 -7.5q77 3 120.5 39.5t43.5 104.5q0 155 -169 155q-52 0 -52 -20v-231z" />
<glyph unicode="q" horiz-adv-x="1479" d="M112 532q0 158 76.5 279.5t215 188t318.5 66.5q155 0 280.5 -43.5t207 -119t125 -175.5t43.5 -216q0 -134 -61 -245t-170 -182q-19 -9 -19 -21q0 -19 40 -79.5t40 -69.5q0 -12 -17.5 -16.5t-57.5 -4.5h-135q-16 1 -26 2t-19.5 6.5t-13.5 7.5t-12.5 14.5t-11.5 17.5 t-15 26q-6 12 -13.5 19t-16.5 10t-22 3q-15 0 -44.5 -1t-44.5 -1q-187 0 -308 41t-221 152q-59 66 -88.5 156.5t-29.5 184.5zM399 537q0 -58 18 -112.5t52.5 -100.5t91.5 -74.5t128 -28.5q23 0 23 16q0 17 -37 67.5t-37 61.5q0 8 3.5 13.5t10 7.5t11.5 2.5t13 0.5 q124 0 180 -2q72 -6 86 -62q18 -29 32 -29q26 0 53.5 39.5t45 95t17.5 102.5q0 146 -89 226t-254 80q-82 0 -148.5 -25t-109.5 -67.5t-66 -96.5t-24 -114z" />
<glyph unicode="r" horiz-adv-x="1035" d="M162 895q0 25 0.5 42t3 33t6.5 26.5t11.5 20t16 15.5t22.5 11.5t30 9t38 6.5q101 14 178 14q55 0 101.5 -5.5t94.5 -20t90 -42.5t74 -69q85 -108 85 -223q0 -78 -30 -138t-101 -145q-11 -14 -11 -29q0 -9 4 -19.5t12 -24.5t11 -19q19 -37 44.5 -94.5t50.5 -112.5t43 -89 q3 -13 3 -18q0 -15 -12 -19.5t-42 -4.5h-140q-32 0 -50.5 6t-26.5 26q-22 31 -49.5 87t-56.5 118t-45 90q-6 10 -19.5 16t-27.5 6q-13 0 -19.5 -2t-13 -9.5t-8.5 -26t-3 -46.5t-1 -76q0 -75 2.5 -98.5t2.5 -24.5q0 -46 -29 -56q-26 -9 -110 -8h-18h-26q-24 0 -37 3.5t-24 16 t-15.5 38.5t-4.5 70q0 392 -3 392q0 77 -0.5 211.5t-0.5 161.5zM430 828q0 -67 3 -205q1 -26 3 -38t9 -18t22 -6q29 0 56 7t52.5 22.5t40.5 45t15 69.5q0 68 -43.5 111t-105.5 43q-34 0 -43 -4.5t-9 -26.5z" />
<glyph unicode="s" horiz-adv-x="934" d="M93 111q0 9 12 28.5t25 36t33 40t25 29.5q13 13 30 13q7 0 24 -6q99 -49 200 -49q34 0 60.5 11t42.5 31t16 47t-34 60.5t-75.5 58t-83.5 41.5q-104 45 -169.5 123t-65.5 189q0 78 36 154.5t95 100.5q132 54 252 54q89 -4 154.5 -18.5t124.5 -54.5q11 -6 11 -21 q0 -35 -42 -91.5t-64 -56.5q-15 0 -30 7q-67 25 -127 25q-140 0 -140 -94q0 -24 13.5 -47t30 -39.5t47.5 -36t50 -29.5t54 -26q10 -5 15 -8q222 -112 222 -294q0 -79 -29 -137t-79 -88q-122 -80 -225 -80q-120 0 -216 22.5t-179 78.5q-14 15 -14 26z" />
<glyph unicode="t" horiz-adv-x="916" d="M98 926.5v46.5q0 64 22.5 74.5t155.5 10.5h46h437q52 0 52 -47q0 -23 1.5 -70.5t1.5 -72.5q0 -16 -13.5 -24t-32.5 -8q-20 0 -64 2t-74 2q-37 0 -37 -31q0 -98 -1 -239t-1.5 -282.5t-0.5 -240.5q-4 -30 -26 -38.5t-67 -8.5h-18q-15 -1 -32.5 -0.5t-34 1.5t-32 3.5 t-27 6.5t-18 11t-6.5 17q-13 177 -13 446q0 52 0.5 149.5t0.5 141.5q0 21 -0.5 30t-5 16t-12 8t-23.5 1h-47q-29 0 -42.5 0.5t-31 3t-24 4.5t-15.5 11t-10.5 16.5t-4.5 25.5t-3 34.5z" />
<glyph unicode="u" horiz-adv-x="1097" d="M160 462q0 86 5 271.5t5 270.5q2 39 18 47t72 8h46t36 -1t30.5 -3.5t22 -7.5t17 -11.5t10 -17t7 -24t1.5 -31.5q0 -96 -3.5 -277t-3.5 -263q0 -25 0.5 -42t3 -40.5t6.5 -39.5t12.5 -33t19.5 -27.5t28 -17.5t39 -7q81 0 110.5 37.5t29.5 127.5q0 2 -1 47t-1 79q0 95 3 251 t3 245q0 58 64 58q28 0 79 -1t78 -1q11 0 18.5 -3t12 -11t7.5 -15t4 -19.5t1.5 -20.5t0.5 -22q0 -89 1.5 -280t1.5 -278q0 -76 -8 -132t-28 -107t-58 -87t-94 -59q-101 -41 -202 -41q-59 0 -111 8.5t-99.5 30t-83 54t-59 82.5t-30.5 113q-11 109 -11 190z" />
<glyph unicode="v" horiz-adv-x="1005" d="M61 1024q0 9 2.5 15t8 9.5t14 6t19.5 3t24.5 0.5h30.5h31h59q36 0 48.5 -11.5t34.5 -62.5q19 -45 51 -125t58.5 -142.5t51.5 -112.5q2 -3 17 -8q8 0 65.5 140t88.5 224q1 2 2 7q8 20 12.5 30.5t14 25.5t22.5 21.5t29 6.5q26 0 78.5 1t78.5 1q19 0 29 -1.5t18 -8t8 -19.5 q0 -23 -28 -95q-50 -118 -174.5 -392.5t-178.5 -405.5q-46 -115 -71 -115q-9 0 -15 2.5t-10 8.5t-6 10t-5 13.5t-4 13.5q-30 69 -124 283.5t-158.5 365t-115.5 279.5q-6 16 -6 32z" />
<glyph unicode="w" horiz-adv-x="1572" d="M56 1029q0 27 43 27h145q52 -1 65.5 -9.5t34.5 -55.5q13 -28 69 -157t90 -199.5t43 -70.5q3 0 97 176q7 13 19.5 39t23 47.5t24.5 48t25.5 47t23 38.5t21.5 28t16 10q23 0 60 -76q21 -45 46 -95t58 -112t60 -101.5t39 -39.5q10 0 38.5 67.5t73 184.5t52.5 137 q8 29 14.5 45t16.5 27.5t23 15.5t34 5q45 2 163 2q47 0 47 -29q0 -19 -15 -48q-48 -113 -109 -261t-107.5 -261.5t-101 -248t-78.5 -191.5q-10 -26 -42 -26q-27 0 -39 31q-46 114 -128 269.5t-103 155.5q-22 0 -104 -178q-8 -15 -25.5 -55.5t-34.5 -77.5t-37 -75.5 t-38.5 -61.5t-31.5 -23q-30 0 -102 197q-44 115 -103 251t-134 303t-111 248q-21 39 -21 52z" />
<glyph unicode="x" horiz-adv-x="1013" d="M74 34q0 7 5.5 20t17.5 34t14 24q160 299 210 385q18 34 18 57q0 21 -23 68q-119 203 -215 381q-8 15 -9 25.5t2.5 16t14 8.5t20.5 4t25 1h163q19 0 35.5 -11.5t29 -33.5t22 -42.5t21 -50.5t19.5 -45q8 -18 18 -37t22 -36.5t18 -17.5t19 19.5t30.5 52.5t32.5 63.5 t32.5 67t23.5 48.5q13 26 41 26l205 -3q16 0 24 -5.5t7.5 -16t-3.5 -19.5t-9 -22l-139 -251q-99 -155 -99 -188q0 -31 27 -79q7 -13 40.5 -69t45 -75.5t39 -68t42.5 -77t35 -68t35 -74.5q7 -24 -6 -34.5t-30 -10.5l-188 2q-16 1 -27.5 6t-21.5 17.5t-15 31.5 q-13 29 -29.5 63.5t-39.5 78.5t-43.5 73t-31.5 29q-14 0 -45.5 -62t-62 -131.5t-37.5 -77.5q-4 -7 -9 -12.5t-11.5 -8.5t-11.5 -5t-14 -3t-12.5 -1h-14h-12.5l-163 2q-32 8 -32 32z" />
<glyph unicode="y" horiz-adv-x="1017" d="M52 1036q0 18 12 22t47 3h17l127 -2q25 -1 38.5 -6.5t20.5 -14t15 -27.5q7 -13 52 -103t77.5 -145.5t44.5 -55.5q15 0 35 32t47.5 91.5t31.5 66.5q6 12 17.5 37t20.5 43.5t21 38.5t24 31t24 11q30 0 89 0.5t89 0.5q52 0 52 -23q0 -31 -37 -91q-36 -70 -78.5 -151 t-90.5 -173.5t-78 -150.5q-32 -61 -32 -206q0 -24 1 -69.5t1 -68.5q0 -21 -0.5 -34.5t-3 -27.5t-3.5 -22t-7.5 -16t-10 -12t-16.5 -7.5t-20.5 -4.5t-27.5 -2.5t-33 -1.5h-42h-6q-26 0 -41 1.5t-28 6.5t-19 12t-10 23t-5 34t-1 50q0 100 -4 100q0 24 1 72.5t1 72.5 q0 57 -28 109q-172 312 -282 547q-2 5 -2 10z" />
<glyph unicode="z" horiz-adv-x="978" d="M77 75q0 43 2 70t15.5 65t38.5 64q49 51 98.5 119t103.5 147.5t91 127.5q8 10 39 46.5t50 62.5t33 53q0 6 -2 9.5t-3.5 6t-6.5 3.5t-7 1h-9h-9q-32 0 -98 -2t-99 -2q-92 0 -151 8q-36 5 -43.5 26t-7.5 86v21q0 38 16.5 54.5t71.5 16.5q94 0 284 -2.5t284 -2.5 q57 0 70 -14t13 -76q0 -116 -69 -202q-184 -228 -370 -481q-3 -4 -10 -12t-11 -13.5t-7.5 -13.5t-3.5 -15q0 -29 33 -29q6 0 18.5 1.5t17.5 1.5q16 0 49 -1t50 -1q37 0 110.5 1t110.5 1t53.5 -2.5t30.5 -14.5t18 -34.5t4 -64.5q0 -23 -4.5 -39t-11.5 -25.5t-18.5 -14.5 t-23 -6.5t-26.5 -1.5q-121 0 -337 1.5t-318 1.5q-20 0 -33 6t-18 18.5t-6.5 23t-1.5 27.5z" />
<glyph unicode="{" horiz-adv-x="705" d="M77 467q0 77 54 109q4 4 7 4q28 12 46 29.5t26.5 41t11.5 45.5t3 53q0 46 -5.5 133t-6.5 104q0 103 75.5 162.5t193.5 59.5q19 0 30.5 -0.5t26 -3t23 -7t17.5 -12.5t14 -19.5t8 -28.5t3 -39q0 -24 -8.5 -41.5t-25 -29t-43.5 -19.5q-27 -9 -36 -27t-9 -50q0 -34 2.5 -102 t2.5 -102q0 -42 -21 -97t-42 -99.5t-21 -60.5q0 -18 21.5 -66t43 -109.5t21.5 -111.5q0 -28 -9.5 -85.5t-9.5 -87.5q0 -24 12 -40t29.5 -24t35.5 -15.5t32 -18.5t17 -28q5 -38 5 -75q0 -24 -5 -34t-27 -17.5t-70 -10.5q-4 0 -11 -1t-11 -1q-121 0 -198 83.5t-77 205.5 q0 35 8 106.5t8 104.5q0 49 -21 82.5t-67 63.5q-15 10 -21.5 14.5t-15.5 14t-12.5 21t-3.5 26.5z" />
<glyph unicode="|" horiz-adv-x="599" d="M181 -154v663v677q0 76 13.5 89t89.5 13h5q26 0 45.5 -2t40.5 -8t33 -19.5t13 -34.5v-1436q0 -13 -2 -22.5t-4.5 -16.5t-10.5 -11t-13.5 -6.5t-21 -3.5t-25.5 -1.5t-33 -0.5q-31 0 -47 1t-33.5 4.5t-24.5 11t-14 21t-9 33t-2 49.5z" />
<glyph unicode="}" horiz-adv-x="703" d="M96 1098q0 26 3.5 44.5t12.5 30.5t18 19t25 10.5t29.5 4.5t35.5 1q118 0 193.5 -59.5t75.5 -162.5q-1 -17 -6.5 -104t-5.5 -133q0 -31 3 -53t11.5 -45.5t26.5 -41t46 -29.5q3 0 7 -4q54 -32 54 -109q0 -20 -8.5 -35t-17 -21.5t-27.5 -19.5q-30 -20 -49 -40t-29 -46.5 t-10 -59.5t7.5 -104.5t7.5 -106.5q0 -122 -76.5 -205.5t-197.5 -83.5q-5 0 -12 1t-10 1q-49 3 -71 10.5t-26.5 17.5t-4.5 34q0 50 5 75q2 17 16.5 28t32.5 18.5t35.5 15.5t29.5 24t12 40q0 30 -9.5 87.5t-9.5 85.5q0 50 21.5 111.5t43 109.5t21.5 66q0 16 -21 60.5t-42 99.5 t-21 97q0 34 2.5 102t2.5 102q0 32 -9 50t-36 27q-40 13 -59.5 34t-19.5 56z" />
<glyph unicode="~" horiz-adv-x="1069" d="M136 381q0 38 111 140q62 57 143 57q35 0 85 -20t98 -40.5t79 -20.5q29 0 77 28t69 28q36 0 91.5 -30.5t55.5 -59.5q0 -59 -40.5 -107t-98 -74t-119.5 -32q-39 12 -127.5 45.5t-128.5 45.5q-6 2 -18 2q-18 0 -38.5 -17.5t-39 -34.5t-31.5 -17q-19 0 -43 7t-45.5 19 t-39.5 26t-29 29t-11 26z" />
<glyph unicode="&#xa0;" horiz-adv-x="800" d="M144 516q0 64 16.5 81.5t78.5 17.5q162 -2 162 -7h190q29 0 42 -6.5t20 -28t7 -66.5q0 -57 -15.5 -78t-68.5 -21q-55 0 -165 3.5t-166 3.5q-75 0 -88 12.5t-13 88.5z" />
<glyph unicode="&#xa1;" horiz-adv-x="555" d="M131 495q0 55 40 88t93 37q62 -3 108 -42t46 -97q0 -48 -41.5 -87.5t-99.5 -39.5t-102 39.5t-44 101.5zM148 11q0 39 0.5 116.5t0.5 116.5q0 20 6 34t13 21.5t22 10.5t25.5 3.5t31.5 0.5h13q21 0 35.5 -0.5t33 -3t30 -7.5t23 -13t16.5 -21t5 -30v-242v-209 q0 -27 -1 -41.5t-7.5 -28t-14.5 -18.5t-29.5 -9t-43.5 -4.5t-65 -0.5q-24 0 -38 2.5t-28 11.5t-20.5 29t-6.5 53q0 37 -0.5 114t-0.5 115z" />
<glyph unicode="&#xa2;" horiz-adv-x="797" d="M102 282q0 42 11 84.5t39 82.5t68 56q2 1 8 3q19 8 29.5 13t24.5 15.5t20.5 24.5t6.5 33q3 8 7 14.5t9 11t9 8t12 5.5t11.5 3t13.5 1.5t13 0.5h14.5h14.5q28 0 45 -1.5t36 -6.5t29 -16.5t12 -30.5q3 -19 25 -35t46.5 -25t45 -22.5t20.5 -28.5q0 -20 -24 -48t-52.5 -48 t-42.5 -20q-13 0 -49.5 14.5t-54.5 14.5q-45 0 -80.5 -33.5t-35.5 -82.5q0 -40 26.5 -67t70.5 -27q23 0 65 7t59 7q24 0 70 -48t46 -66q0 -21 -20 -34.5t-44.5 -19.5t-47 -21t-26.5 -37q-5 -26 -16.5 -34.5t-38.5 -8.5q-7 0 -28 0.5t-36 0.5q-8 0 -26 -0.5t-26 -0.5 q-22 0 -33.5 7.5t-15 20.5t-5.5 26.5t-8.5 28.5t-19.5 24t-37.5 24.5t-35.5 22.5t-29 21.5t-26.5 25t-20 27.5t-16 35.5t-8.5 43.5t-4 55z" />
<glyph unicode="&#xa3;" horiz-adv-x="1099" d="M93 69q0 35 3.5 54t18 37t30 30.5t52 44.5t72.5 69q37 40 37 92q0 31 -20 44.5t-49 14t-58.5 0.5t-51.5 10.5t-25 36.5q-3 44 -3 70q0 18 1 28t4.5 21t12 17t22.5 8q11 2 30.5 2.5t34.5 2t30.5 4.5t24 10.5t8.5 20.5q0 16 -0.5 45.5t-0.5 44.5q0 133 39.5 214 t127.5 120.5t234 39.5q38 0 87 -5.5t100.5 -16.5t86.5 -31.5t35 -46.5q0 -46 -18.5 -84.5t-39.5 -38.5q-40 0 -120.5 7.5t-121.5 7.5q-79 0 -111.5 -32.5t-32.5 -118.5q0 -19 8 -83q1 -1 1 -5q6 -40 21.5 -46.5t102.5 -6.5h35q38 0 57.5 -2t31.5 -12t14.5 -23.5t2.5 -41.5 v-41.5t-3 -30t-4.5 -22.5t-11 -14.5t-15 -9.5t-24 -4t-31 -2h-41.5h-8q-9 -1 -24 -1q-35 -2 -42.5 -7t-13.5 -33q-19 -75 -57 -158q-14 -23 -14 -35q0 -15 133 -15q30 0 94.5 1t93.5 1h52t38.5 -3t28 -5t18 -10t11.5 -13t5.5 -20.5t2.5 -26v-34.5v-14q0 -54 -31 -63.5 t-194 -8.5h-43q-116 0 -173 1q-332 -8 -397 -8q-21 0 -34.5 5.5t-19.5 17.5t-7.5 23t-1.5 28z" />
<glyph unicode="&#xa4;" horiz-adv-x="1200" d="M160 176q0 14 28 48t32 43q-6 17 -16 43.5t-16.5 43t-11.5 39.5t-5 43q0 53 41 135q6 11 6 25t-29 49t-29 47q0 16 53 69t79 53q19 0 59.5 -26.5t58.5 -26.5q14 0 29 5q78 29 157 29q93 0 170 -31q12 -5 24 -5q20 0 59 30t58 30q20 0 57.5 -29.5t67 -64t29.5 -49.5 q0 -10 -15.5 -24.5t-30.5 -33t-15 -37.5q0 -17 20 -75.5t20 -90.5q0 -10 -1.5 -21t-2.5 -17.5t-5.5 -19.5t-6 -17t-7.5 -20.5t-8 -20.5q-8 -19 -8 -33q0 -20 27.5 -55.5t27.5 -42.5q0 -5 -27.5 -38.5t-64 -66.5t-54.5 -33q-12 0 -29.5 16t-38.5 32t-41 16q-23 0 -82.5 -16 t-90.5 -16q-36 0 -108 18.5t-95 18.5t-60.5 -28.5t-50.5 -28.5q-23 0 -88.5 56.5t-65.5 77.5zM412 423q0 -74 53.5 -122.5t135.5 -48.5q47 0 92 20t76.5 60.5t31.5 90.5q0 39 -16.5 72.5t-43.5 55.5t-62 34.5t-71 12.5q-38 0 -73 -12.5t-62.5 -34.5t-44 -55.5t-16.5 -72.5z " />
<glyph unicode="&#xa5;" horiz-adv-x="1148" d="M117 1100q0 26 128 25h12q111 0 139 -53q65 -132 165 -290q8 -13 17 -13q11 0 32 34.5t55 103.5t35 70q6 11 17 34t19.5 39t20 33t25.5 26t29 9t53.5 1t58.5 1q113 0 113 -25q0 -11 -10 -27q-36 -65 -109 -195.5t-109 -196.5q-2 -3 -7 -11t-7.5 -13t-5 -12t-2.5 -12 q0 -20 28 -20q16 0 48 0.5t50 0.5q63 0 75 -28q5 -13 5 -62v-33.5t-2.5 -25t-4 -18t-8.5 -11.5t-12.5 -7.5t-19 -4t-24.5 -2.5t-33 -2t-40 -3q-9 0 -32 0.5t-37 0.5q-63 0 -67 -28q0 -31 24 -34q27 -1 82.5 -2.5t83.5 -2.5q61 -1 75 -15.5t15 -77.5q0 -5 -0.5 -17t-0.5 -18 q0 -3 0.5 -9t0.5 -9q0 -16 -7 -28t-23.5 -20t-39.5 -8q-26 0 -78 3.5t-78 3.5q-14 0 -22 -0.5t-14.5 -4.5t-9 -6.5t-5 -13t-3 -18t-2.5 -27.5t-3 -36q-2 -13 -11 -23t-26 -15.5t-32.5 -9t-40 -4.5t-38 -1h-37.5h-15q-27 0 -41.5 16.5t-17.5 40.5t-5 48t-10 40.5t-26 16.5 q-32 0 -93 -0.5t-91 -0.5q-44 0 -53.5 19.5t-9.5 103.5q0 45 11.5 56.5t58.5 13.5q16 1 49 1t56 0.5t48.5 3.5t39 10.5t13.5 19.5q0 39 -133 39q-10 0 -20 -0.5t-18.5 -0.5t-16.5 -0.5t-14.5 -1t-11.5 -0.5h-7.5h-2.5q-16 1 -26 5t-15.5 9.5t-8 19t-3.5 26t-1 37.5 q0 23 0.5 33.5t3 24.5t7.5 19.5t14 10.5t24 6h57.5t78.5 5.5t27 19.5q0 7 -6 19.5t-14.5 27t-11.5 20.5q-35 60 -103 178.5t-102 177.5q-16 27 -16 44z" />
<glyph unicode="&#xa6;" horiz-adv-x="601" d="M175 229q0 35 2 60t7.5 41t11 24.5t18.5 13t22.5 5t29.5 0.5q143 0 154 -32q10 -58 10 -155q0 -72 -2 -208.5t-2 -206.5q0 -47 -28 -59q-26 -9 -126 -9q-31 0 -51 7.5t-29.5 23t-12.5 32t-3 40.5q0 33 1 76.5t2 86.5t1 76q0 20 -2.5 84t-2.5 100zM178 626q0 78 1 233.5 t1 233.5q0 18 0.5 29t2 21.5t5 15t9 10.5t14 6.5t20 3t26.5 1t35 -0.5h29q29 0 46.5 -3.5t32.5 -15t21.5 -35t6.5 -62.5v-220q0 -42 -1 -128.5t-1 -129.5q0 -18 -6.5 -30t-15 -18t-25.5 -9t-28.5 -3.5t-33.5 -0.5h-11q-32 0 -48.5 0.5t-33.5 4t-24 9.5t-13 18t-7.5 28 t-1.5 42z" />
<glyph unicode="&#xa7;" horiz-adv-x="939" d="M112 -22q0 48 20 93.5t52 45.5q211 -19 281 -23q23 0 42.5 4t35.5 15.5t16 29.5q0 21 -24.5 44.5t-54 39.5t-73 38.5t-61.5 33.5q-4 3 -27 17t-30.5 19t-29 19.5t-31 22t-27.5 22.5t-26.5 26t-21 27t-18.5 30.5t-10 32t-4 34.5q0 20 8.5 40t16.5 31t31 37t33 38 q11 12 11 24q0 13 -13.5 35t-30 43.5t-30.5 53t-14 61.5q0 63 42.5 113.5t126.5 80t197 29.5q55 0 112.5 -5t111 -20.5t53.5 -39.5q0 -54 -36.5 -99.5t-85.5 -45.5q-25 0 -74.5 3.5t-74.5 3.5q-106 0 -106 -32q0 -10 6 -22t14 -23t22 -23.5t26 -22t30.5 -22.5t29.5 -20.5 t30 -19.5t26 -16q13 -9 46.5 -31t50 -33.5t44.5 -33t43 -37t31.5 -36t24 -41t7.5 -42.5q0 -14 -4.5 -28t-14.5 -29t-19 -26t-25.5 -30.5t-26.5 -30.5q-8 -10 -8 -25q0 -10 8 -23t26.5 -34.5t23.5 -27.5q12 -17 21 -37.5t13 -38.5t4 -33q0 -44 -24.5 -82.5t-65 -64.5 t-87.5 -43t-97 -25q-18 -2 -115 -6q-50 1 -98 5.5t-104 13t-90.5 26t-34.5 40.5zM393 544q0 -27 24 -47t53 -28.5t56 -8.5q1 1 7 3t11 4t9.5 7t4.5 13q0 35 -46.5 63t-83.5 28q-13 0 -24 -8t-11 -26z" />
<glyph unicode="&#xa8;" horiz-adv-x="856" d="M123 1234q0 60 36.5 104.5t88.5 44.5q39 0 77.5 -19.5t64 -53.5t25.5 -71q0 -51 -41 -84t-100 -33q-3 0 -8 -1t-6 -1q-46 0 -91.5 33.5t-45.5 80.5zM442 1234q0 60 36.5 104.5t88.5 44.5q60 0 113.5 -44t53.5 -100q0 -51 -41 -84t-100 -33q-3 0 -7.5 -1t-5.5 -1 q-29 0 -60.5 14t-54.5 41t-23 59z" />
<glyph unicode="&#xa9;" horiz-adv-x="1548" d="M99 591q0 130 51.5 244.5t139.5 195t209.5 127t258.5 46.5q115 0 220 -28.5t189 -82t146 -126.5t95.5 -167t33.5 -199q0 -145 -64 -278t-178 -202q-189 -126 -418 -134q-282 2 -479 175q-104 90 -154 200.5t-50 228.5zM216 586q0 -104 42 -198t114 -162.5t174 -108.5 t218 -40q61 0 120 11.5t114.5 34t104 55.5t88.5 78.5t68.5 99t44.5 120.5t16 141q0 53 -1 82q-6 79 -48 158.5t-113.5 141.5t-156.5 86q-76 21 -232 32q-165 -8 -289.5 -74.5t-194 -184.5t-69.5 -272zM425 603q0 65 27.5 124.5t77 102t111.5 58.5q19 5 42.5 12.5t39 12.5 t36 9.5t39.5 4.5q35 0 96 -17t111.5 -43t50.5 -48q0 -29 -55.5 -74.5t-78.5 -45.5q-8 0 -37 8t-50 8q-34 0 -58 -4.5t-45 -17t-31.5 -36.5t-10.5 -61q0 -57 32.5 -86t86.5 -29q22 0 61.5 14t52.5 14q27 0 81 -54t54 -75q0 -26 -37.5 -47t-89 -32.5t-93 -17.5t-59.5 -6 q-26 -3 -39 -3q-72 0 -147 52t-121.5 129t-46.5 148z" />
<glyph unicode="&#xaa;" horiz-adv-x="1024" d="M102 885q0 64 21 118.5t60.5 96t102 64.5t142.5 23q89 0 150 -43q19 -12 26 -12q8 0 29.5 18t41.5 18q11 0 32 1q47 0 66.5 -0.5t44.5 -4.5t32.5 -10.5t16.5 -21.5t10 -34.5t1 -52.5q0 -18 -0.5 -77.5t-0.5 -102.5v-179q0 -62 -11 -86t-52 -24q-8 0 -25.5 1t-25.5 1 q-15 0 -43.5 -3.5t-43.5 -3.5t-29.5 10t-24.5 20t-14 10q-9 0 -23 -10q-53 -40 -136 -40q-67 0 -128.5 20.5t-110.5 59.5t-78.5 102t-29.5 142zM353 868q0 -49 38.5 -84t87.5 -35q39 0 70 15t49.5 44t18.5 67q0 61 -27 87.5t-85 26.5q-5 2 -16 2q-59 0 -97.5 -33t-38.5 -90z " />
<glyph unicode="&#xab;" horiz-adv-x="1139" d="M117 460q0 10 8.5 26.5t21.5 34.5t34 42t41 45.5t47 49t48 48.5l48 48t43 44q23 23 41 25q33 0 78.5 -37t71.5 -76q-12 -35 -39 -67t-55.5 -55t-55.5 -44.5t-44 -43t-17 -42.5q0 -24 88 -107q8 -9 29 -29t33.5 -32.5t27 -29t21.5 -30t7 -23.5q0 -11 -19.5 -35t-50.5 -46 t-56 -22q-15 0 -44 22.5t-68.5 63t-73.5 78.5t-78 88t-65 72q-22 22 -22 32zM529 460q0 12 9.5 30.5t29 43t40.5 48.5t51.5 55.5t53.5 54.5l56 56l50 50q23 23 41 25q34 0 79.5 -37t71.5 -76q-13 -35 -39.5 -67t-55 -55t-55.5 -44.5t-44 -43t-17 -42.5q0 -25 86 -107 q10 -9 30.5 -28.5t33 -32.5t27.5 -29.5t22 -30t7 -23.5q0 -8 -12.5 -24.5t-30 -34t-41 -31t-42.5 -13.5q-15 0 -44.5 22.5t-68.5 63t-73 78.5t-78 88t-65 72q-22 22 -22 32z" />
<glyph unicode="&#xac;" horiz-adv-x="1240" d="M144 499q0 55 15.5 69.5t77.5 14.5q59 0 215 -2t156 -3h396q43 0 62.5 -16t19.5 -51q0 -30 1 -87.5t1 -87.5q0 -28 -1 -86t-1 -87q0 -16 -5.5 -26.5t-12.5 -16t-22 -8t-25 -3t-30 -0.5h-12q-30 0 -43.5 0.5t-32.5 3.5t-27 10t-14.5 19.5t-7.5 32.5q-6 123 -8 179 q-2 40 -74 40q-10 0 -31.5 -0.5t-30.5 -0.5q-74 0 -221.5 0.5t-221.5 0.5q-31 0 -47.5 1t-33 4.5t-22.5 9.5t-12 19t-7 28.5t-1 42.5z" />
<glyph unicode="&#xad;" horiz-adv-x="800" d="M144 516q0 64 16.5 81.5t78.5 17.5q162 -2 162 -7h190q29 0 42 -6.5t20 -28t7 -66.5q0 -57 -15.5 -78t-68.5 -21q-55 0 -165 3.5t-166 3.5q-75 0 -88 12.5t-13 88.5z" />
<glyph unicode="&#xae;" horiz-adv-x="1546" d="M109 581q0 134 49.5 248t138 195.5t218.5 128t285 46.5q92 -3 193 -32t186 -85q254 -167 254 -489q0 -114 -35 -213.5t-97.5 -174t-146 -128t-183.5 -80.5t-208 -27q-87 0 -177.5 25.5t-175.5 78t-152.5 124t-108 171.5t-40.5 212zM226 617q0 -115 32.5 -210t85.5 -157.5 t123.5 -106t144 -62.5t149.5 -19q85 0 165 22t150 67t122.5 108.5t82.5 153t30 193.5q0 11 -0.5 34t-0.5 35q-3 63 -28.5 128.5t-69 123.5t-110.5 101.5t-145 59.5q-108 21 -186 21q-105 0 -195 -30.5t-151.5 -80.5t-106.5 -115t-67 -132t-25 -134zM574 583q2 45 3 110.5 t3 107.5t6 82q3 21 16.5 34.5t36.5 18.5t39.5 6.5t40.5 1.5q45 0 95 -14.5t93.5 -39.5t72 -64.5t28.5 -85.5q0 -28 -16.5 -60t-36 -55t-35.5 -44t-16 -30q0 -13 17.5 -44t53.5 -86.5t48 -74.5q12 -25 12 -30q0 -24 -75 -24q-41 0 -65.5 18t-54.5 66q-8 12 -26 49.5t-33.5 62 t-27.5 24.5q-13 0 -13 -10q-2 -44 -2.5 -82t-3 -66t-22 -44t-58.5 -16q-46 0 -58.5 12t-14.5 55q0 4 -7 222zM734 706q0 -12 0.5 -19t2 -16.5t6.5 -14t13 -4.5q34 0 58 26.5t26 58.5q0 33 -20 60.5t-48 27.5q-13 0 -21 -10t-11.5 -29.5t-4.5 -35.5t-1 -40v-4z" />
<glyph unicode="&#xaf;" horiz-adv-x="742" d="M101 1263q0 53 21 66.5t94 13.5q59 0 159 -0.5t159 -0.5q34 0 54.5 -10t31 -33t10.5 -62q0 -58 -22.5 -73t-104.5 -15q-15 0 -63 0.5t-82 0.5q-14 0 -53 -2t-61 -2q-77 0 -110 23t-33 94z" />
<glyph unicode="&#xb0;" horiz-adv-x="800" d="M99 955q0 57 26 102.5t69 73.5t95.5 43t108.5 15q127 0 211.5 -66t84.5 -176q0 -107 -79.5 -174.5t-201.5 -67.5q-82 0 -153.5 31t-116 89t-44.5 130zM319 934q0 -28 19.5 -47t52.5 -19q42 0 64 22.5t22 58.5q0 32 -19.5 53.5t-47.5 21.5q-20 0 -40.5 -11.5t-35.5 -33 t-15 -45.5z" />
<glyph unicode="&#xb1;" horiz-adv-x="1186" d="M126 453q0 39 8 54.5t36 18.5q50 4 148 5.5t115 2.5q23 0 28.5 9.5t5.5 42.5q0 12 -1 42t-1 47q0 144 44 148q26 2 89 2q6 -1 18.5 -1.5t22 -1t22 -3t21.5 -8t17 -14.5t12 -23.5t4 -34.5q0 -14 -1 -46.5t-1 -49.5q0 -31 4 -53t9.5 -34.5t15.5 -20t20 -9.5t24 -2 q20 0 67.5 1.5t71.5 1.5q44 0 66.5 -3t39.5 -15.5t22 -34.5t5 -62q0 -26 -1.5 -37.5t-12.5 -20t-25 -11t-48 -5.5q-13 0 -53.5 0.5t-63.5 0.5q-29 0 -50.5 -1t-42 -5t-31.5 -12t-11 -20q0 -8 1 -33t1 -39q0 -102 -41 -104q-40 -2 -117 -2q-17 0 -27.5 0.5t-23.5 3.5t-20 9 t-13 17t-7 27q-2 18 -3.5 55t-3.5 55q-3 32 -9.5 39t-35.5 7q-21 0 -70 -1.5t-73 -1.5q-34 0 -56 1.5t-40 6.5t-28 13t-16.5 22t-8.5 32t-2 45zM130 32q0 20 2 30t11 20t28 13.5t52 3.5h180q121 0 182 -1h367q18 0 30.5 -0.5t24 -3t19.5 -3.5t14.5 -7t10 -9.5t6.5 -14 t4.5 -16.5t2 -21.5t0.5 -25.5v-32v-15q-1 -15 -8.5 -25t-21 -14.5t-24.5 -5.5t-26 -1h-759q-20 0 -34 2t-25 5t-17 11t-10.5 15.5t-6 23.5t-2 30.5t-0.5 40.5z" />
<glyph unicode="&#xb2;" horiz-adv-x="814" d="M106 467q0 17 46.5 74.5t125.5 145t105 117.5q19 23 24.5 30t19.5 26.5t19 31t10.5 29.5t5.5 36q0 38 -32 38q-24 0 -85 -27t-95 -27q-23 0 -48.5 7t-44.5 21.5t-19 31.5q0 50 27.5 88.5t71 60t90 32t90.5 10.5q131 0 214.5 -69t83.5 -191q0 -29 -7 -55.5t-15 -45 t-27.5 -42.5t-31 -35.5t-39.5 -38.5t-39 -39q-5 -4 -18 -14t-20 -18.5t-7 -18.5q0 -26 29 -26q7 0 22.5 2t22.5 2q15 -3 34.5 -4.5t30.5 -2.5t24 -4t19.5 -9.5t12.5 -19.5t8.5 -33.5t2.5 -50.5q-4 -62 -150 -62q-45 0 -91 1.5t-69 1.5v-2q-16 1 -45.5 1h-55t-56.5 1.5 t-55 4.5t-45 7.5t-32.5 13.5t-11.5 21z" />
<glyph unicode="&#xb3;" horiz-adv-x="815" d="M84 596q0 23 25.5 38.5t57 21.5t62.5 6q33 0 89.5 -30.5t84.5 -30.5q22 0 38 17t16 42q0 16 -16 27t-39.5 16.5t-47.5 10t-43 13t-22 20.5q-2 8 -7 23.5t-8 26t-5.5 25t-2.5 26.5q0 24 19 35t47 13t55.5 4.5t46.5 15.5t19 41q0 26 -17.5 46t-44.5 20q-24 0 -63.5 -29.5 t-63.5 -29.5q-22 0 -56 11t-62.5 29.5t-28.5 35.5q0 40 28.5 71t73 48.5t89.5 26t86 8.5q62 0 116 -16.5t94.5 -46.5t64 -76.5t23.5 -102.5q0 -22 -4.5 -38.5t-11 -27t-22 -22t-27.5 -17.5l-38 -19l-18 -9q-7 -6 -7 -15q0 -5 10 -11t30.5 -14t21.5 -8q101 -39 101 -163 q0 -44 -21 -78.5t-53 -55.5t-75.5 -35.5t-81 -20.5t-76.5 -8q-100 1 -192 40.5t-135 115.5q-9 18 -9 30z" />
<glyph unicode="&#xb4;" horiz-adv-x="792" d="M99 1157q0 14 20 40.5t65.5 77t47.5 52.5q9 10 23.5 15.5t26.5 6.5t32 1.5t27 1.5q135 -4 135 -46q0 -21 -50.5 -71t-90.5 -76q-73 -47 -146 -47q-21 0 -41.5 6t-34.5 16.5t-14 22.5z" />
<glyph unicode="&#xb5;" horiz-adv-x="1034" d="M149 -186q0 41 2 152t2 167q0 61 -1 200t-1 194q0 19 4.5 31.5t10.5 19t21 9.5t26 3.5t35 0.5h14q35 0 56 -1t39 -6.5t26 -12.5t14 -23.5t7 -34.5t1 -50v-99q0 -35 1 -56t4 -50.5t10 -47t18.5 -34.5t30.5 -25t45 -8q21 0 37 5.5t27.5 15t20 23.5t13.5 29.5t8 35.5t4 38 t1 40q0 20 -1 57t-1 53q0 69 3 106q1 15 6.5 24.5t11.5 15t22.5 8t29 2.5h40.5h17q21 0 36.5 -1t33.5 -4.5t29.5 -10t20 -18.5t10.5 -28v-499q-6 -38 -35 -38q-19 0 -55.5 -2.5t-53.5 -2.5q-62 0 -96 21q-14 6 -21 6q-9 0 -21 -6q-33 -23 -71.5 -33.5t-84.5 -11.5 q-24 -1 -33 -19.5t-9 -50.5q0 -16 0.5 -36t1 -39.5t0.5 -34.5q0 -13 -0.5 -22.5t-2.5 -18t-3 -14t-6.5 -10.5t-9 -8t-13.5 -5t-15.5 -3t-21 -1.5t-25 -0.5h-31.5q-45 0 -69 4t-38 17.5t-17.5 32t-3.5 55.5z" />
<glyph unicode="&#xb6;" horiz-adv-x="1158" d="M85 856q2 42 20.5 88.5t49 88.5t76 74.5t96.5 42.5q134 26 213 26q57 0 174.5 -1t175.5 -1q43 -3 58.5 -20t15.5 -61v-598v-623v-26t-3 -19.5t-4.5 -14t-10 -9t-14 -6t-21.5 -3t-27 -1.5h-37h-14q-23 0 -38.5 2t-26.5 9t-17 14.5t-9 24.5t-4 33.5t-1 46.5 q0 162 -2.5 510.5t-2.5 505.5q0 31 -5.5 41.5t-24.5 10.5q-25 0 -33.5 -16t-8.5 -44q0 -7 1 -21t1 -20q0 -163 -1 -515t-1 -513q0 -62 -30 -62q-19 0 -55 -1.5t-54 -1.5q-17 0 -27.5 0.5t-23 4t-20 10t-12.5 18.5t-5 29q-3 117 -4 322t-3 286q0 26 -4.5 32t-30.5 12 q-306 72 -306 345z" />
<glyph unicode="&#xb7;" horiz-adv-x="543" d="M133 481q0 57 38 103t93 46q56 0 102 -42.5t47 -95.5q0 -53 -43 -93.5t-98 -40.5q-51 0 -95 37.5t-44 85.5z" />
<glyph unicode="&#xb8;" horiz-adv-x="780" d="M30 -277q0 17 21 24.5t50 9.5t58.5 5.5t50 17.5t20.5 40q0 17 -14.5 31.5t-31.5 23.5t-31.5 22t-14.5 26q0 20 9 38.5t21.5 29.5t22.5 17.5t14 6.5q11 0 20.5 -6.5t17 -15.5t25.5 -23t43 -26q69 -32 95.5 -57t26.5 -71q0 -31 -11.5 -54.5t-33.5 -39.5t-46 -27t-57 -17.5 t-58 -9.5t-57 -6q-6 1 -27 3.5t-37.5 6t-35 9.5t-29.5 16.5t-11 25.5z" />
<glyph unicode="&#xb9;" horiz-adv-x="656" d="M79 836q0 10 5.5 21t17 23.5t23 23.5t29 24.5t29 22.5t29.5 22t25 18q14 10 51.5 39t65 50t57 39t42.5 18q25 0 39.5 -17.5t14.5 -47.5q0 -70 -2 -202.5t-2 -384.5q0 -3 1 -9q0 -19 -0.5 -28.5t-3.5 -23t-10 -19.5t-18 -6q-17 0 -51 -1.5t-51 -1.5q-72 0 -85 24t-16 163 q0 25 -0.5 40t-1 41.5t-1.5 50.5q0 21 -14 21q-7 0 -23 -6t-24 -6q-30 0 -78 46t-48 66z" />
<glyph unicode="&#xba;" horiz-adv-x="792" d="M99 907q0 27 7.5 51.5t17.5 42t30.5 35.5t36 29t46.5 25.5t49 22l54 22.5q3 1 5 2t4.5 2t4.5 2q5 1 19 1q82 0 153.5 -33t115.5 -90t44 -124q0 -100 -86.5 -170t-218.5 -70q-35 2 -74 14.5t-76 35t-66.5 52t-47.5 68.5t-18 82zM317 883q0 -32 20.5 -49.5t52.5 -19.5 q92 21 92 77q0 32 -26.5 56t-59.5 24q-34 0 -56.5 -29t-22.5 -59z" />
<glyph unicode="&#xbb;" horiz-adv-x="1139" d="M119 710q26 39 72 76t80 37q17 -2 40 -25q18 -19 68 -68.5t80.5 -80.5t67.5 -71.5t55.5 -69t18.5 -45.5q0 -11 -21 -35q-20 -22 -65 -72.5t-79 -88t-73.5 -78t-69 -63t-45.5 -22.5q-24 0 -55 22t-50.5 46t-19.5 35q0 10 7.5 24t22.5 30.5t28 29.5t33.5 32t29.5 28 q86 82 86 107q0 21 -17 42.5t-44 43t-55.5 44.5t-55.5 55t-39 67zM531 710q16 24 41 49.5t56 44.5t53 19q19 -2 41 -25q19 -19 69 -68.5t80.5 -80.5t67.5 -71.5t55.5 -69t18.5 -45.5q0 -10 -22 -35q-21 -22 -65 -72.5t-78.5 -88t-73.5 -78t-68.5 -63t-45.5 -22.5 q-25 0 -56 22t-50.5 46t-19.5 35q0 10 7.5 24t22.5 30t28.5 29.5t33.5 32.5t29 28q87 82 87 107q0 21 -17.5 42.5t-44.5 43t-55.5 44.5t-55 55t-38.5 67z" />
<glyph unicode="&#xbc;" horiz-adv-x="1910" d="M106 922q0 21 33 47q169 138 306 245q21 18 37 18q15 0 26 -4.5t17.5 -15.5t10 -21t5 -28t2 -29t0.5 -32v-12q0 -80 -4 -243t-4 -241v-10q1 -19 0 -28.5t-3.5 -22.5t-10 -18.5t-19.5 -5.5q-21 0 -64 -1t-67 -1q-33 0 -52 10t-20 42q0 15 -1 51.5t-2 67.5t-3 63.5t-6.5 51 t-10.5 18.5t-21.5 -7t-22.5 -7q-23 0 -74.5 43t-51.5 70zM495 24q0 5 2 12t5.5 15.5t7.5 16t8.5 17t7.5 16.5q199 452 317 717q98 251 163 373q21 40 72 40q5 0 14.5 -1t14.5 -1q9 0 28.5 1t29.5 1q52 -4 80.5 -18.5t28.5 -34.5q0 -16 -13 -46q-13 -31 -79.5 -179.5 t-91.5 -204t-75.5 -171t-89 -206t-75.5 -182.5q-4 -8 -14.5 -35t-15.5 -38t-16 -34.5t-19 -34.5t-21.5 -27.5t-26.5 -24t-31 -14t-38 -6.5h-48q-125 7 -125 49zM1101 194q0 6 2 13.5t5.5 18t5.5 14.5q18 69 49.5 199t40.5 165q3 7 7.5 19.5t6.5 17t7 12.5t10.5 10.5 t14.5 6.5t21 5t29 1q34 0 61.5 -6t46 -19.5t18.5 -33.5q0 -45 -22 -135.5t-24 -132.5q0 -14 9.5 -19.5t28.5 -5.5q21 0 28.5 8.5t9.5 33.5q0 51 1 156t1 159q1 16 3 26t8.5 17t11.5 10.5t20 5.5t26 2h37h6q136 0 136 -62q0 -55 2.5 -161t2.5 -158q0 -19 11.5 -33.5t25 -22.5 t25 -23.5t11.5 -36.5q0 -5 0.5 -18.5t0.5 -19.5q0 -52 -32 -58q-25 -4 -33.5 -21t-9.5 -46q-2 -21 -3.5 -33t-7 -22t-10 -14t-19.5 -7t-26 -3h-39h-17q-7 0 -23.5 -0.5t-24.5 -0.5q-31 0 -49 7t-26.5 24t-8.5 47q0 39 -9.5 51.5t-45.5 12.5q-33 0 -97.5 -5t-95.5 -5 q-35 0 -71 16.5t-36 43.5z" />
<glyph unicode="&#xbd;" horiz-adv-x="1880" d="M99 918q0 7 6 17t14.5 18.5t16.5 14.5q261 209 313 251q21 17 36 17q16 0 27.5 -4t18 -14t10 -18t5 -24.5t2 -24t0.5 -26.5q-8 -399 -8 -561q0 -14 -2.5 -23.5t-5 -17t-11 -11.5t-14 -6.5t-21 -3.5t-25.5 -1.5t-33 -0.5h-7q-74 0 -98 13.5t-26 62.5q-1 14 -1.5 47.5 t-1 63.5t-2.5 61t-5.5 49.5t-9.5 18.5q-4 0 -22 -6.5t-26 -6.5q-23 0 -76.5 44.5t-53.5 70.5zM468 8q0 5 1.5 11.5t4 12.5t6 14.5t6 14.5t7 15l6.5 13q40 91 157.5 348t173.5 386q8 20 65.5 160t93.5 211q20 38 45 51t75 13q164 0 164 -58q0 -9 -4 -19.5t-12 -26.5t-9 -19 q-52 -117 -152.5 -338t-180 -401t-147.5 -348q-22 -52 -60.5 -70t-108.5 -18q-131 6 -131 48zM1178 59q0 12 6 27t20.5 36t23 32t29.5 36t23 28q17 18 55.5 54t65.5 63.5t57 62.5t45.5 69t15.5 64q0 57 -31 57q-9 0 -17 -8q-20 -21 -46 -32t-45.5 -12.5t-54.5 -1.5 q-26 0 -45.5 1.5t-41.5 6.5t-34 16.5t-12 29.5q0 45 29 83t72.5 61t90.5 36t87 13q138 0 222 -72.5t84 -189.5q0 -41 -11.5 -76t-35 -66.5t-46 -54.5t-57.5 -56t-55 -56q-2 -2 -2 -7q0 -12 18.5 -16.5t53.5 -4.5t41 -1q53 0 74.5 -20.5t21.5 -81.5q0 -32 -5.5 -46t-24 -22 t-58.5 -8q-14 0 -40.5 1t-40.5 1q-20 0 -63 -1t-64 -1q-22 0 -71 -1.5t-74 -1.5q-36 0 -62 2.5t-50 8.5t-36 18t-12 30z" />
<glyph unicode="&#xbe;" horiz-adv-x="1926" d="M123 662q0 19 18 32t46.5 18.5t50.5 7.5t42 2q25 0 67.5 -23.5t60.5 -23.5q31 0 53.5 11t22.5 38q-2 19 -22.5 29t-47.5 15.5t-53.5 14.5t-45 32.5t-18.5 62.5q0 33 19 50t46.5 21.5t54.5 8t46 18t19 43.5t-16.5 43.5t-42.5 14.5q-23 0 -60 -25t-60 -25q-56 0 -104 21.5 t-48 44.5q0 27 24 55t62.5 50t91.5 36t107 14q69 0 131 -25.5t104 -79t42 -124.5q0 -40 -10.5 -66.5t-39.5 -42.5q-6 -3 -16 -7.5t-19 -8t-17 -8t-13 -9t-5 -9.5q0 -6 5 -12t15 -11t18.5 -8.5t21 -8.5l17.5 -7q41 -20 59 -48.5t18 -70.5q0 -50 -17 -88.5t-44.5 -62.5 t-66 -40t-76.5 -22.5t-81 -7.5q-54 0 -110.5 10.5t-109 31t-86 57t-33.5 82.5zM551 -15q0 9 5 22t14.5 32t14.5 30q41 95 139 318t139 318q22 50 64.5 153.5t78 184.5t72.5 154q15 29 33 41.5t48 12.5q5 0 14.5 -0.5t13.5 -0.5q5 0 12.5 0.5t8.5 0.5q16 -2 43.5 -3.5 t42.5 -3.5t31.5 -6.5t24 -15.5t7.5 -28q0 -11 -6.5 -30.5t-13 -34.5t-18.5 -41t-16 -33q-275 -610 -386 -869q-6 -13 -20 -47t-21.5 -52.5t-21.5 -47.5t-25 -45t-25.5 -30t-27.5 -18q-40 -12 -86 -12q-45 0 -92 13.5t-47 37.5zM1128 218q0 18 4.5 44t8 40t13.5 51t11 41 q5 20 12 49t12 52t11.5 50.5t13 48t14.5 41.5t16 34t18 21.5t21 8.5h39q26 0 44.5 -2t39 -8t31 -19t10.5 -34q0 -40 -23 -121t-23 -132q0 -18 6.5 -25t23.5 -7q27 0 35 13.5t8 40.5v23q0 42 1 125t1 125q0 14 0.5 22.5t2.5 23t6.5 22.5t13.5 15t22 7q11 0 36.5 0.5t39.5 0.5 q28 0 48 -2.5t40 -10t31 -23t12 -38.5q7 -234 7 -310q0 -16 7.5 -28t17.5 -19.5t20.5 -15.5t18 -21t7.5 -30q0 -4 -1 -13t-1 -13q0 -2 1 -9t1 -10q0 -20 -11 -32.5t-24 -17.5t-24.5 -17.5t-13.5 -32.5v-37q0 -48 -12.5 -69.5t-57.5 -21.5q-8 0 -25.5 1t-25.5 1v-2 q-10 0 -26.5 -0.5t-23.5 -0.5q-22 0 -38 3t-26.5 10.5t-15.5 19.5t-6 29q0 23 -0.5 33t-2.5 26t-6 22t-10.5 15t-17 12t-25.5 5.5t-35.5 2.5t-64.5 -4.5t-66 -4.5q-120 0 -120 52z" />
<glyph unicode="&#xbf;" horiz-adv-x="1013" d="M11 189q0 30 5 55.5t11.5 45t23 42t28.5 37t40.5 39t47 39.5t58.5 46q22 17 33 26q31 25 49.5 62t21.5 74q1 22 1.5 31.5t4 22.5t5 17t12 10.5t16 7.5t25.5 3t34 2h47h3q29 0 44 -1t34 -6t28.5 -15t16 -28.5t6.5 -46.5t-10.5 -57.5t-29.5 -57t-41.5 -53t-50.5 -51.5 t-52 -46.5t-51 -43.5t-42 -39q-52 -49 -52 -124q0 -67 46 -99.5t127 -32.5q100 0 135 85q28 69 85 69q11 0 35 -3.5t35 -3.5q8 0 24 1t24 1q37 0 54 -9t17 -34q0 -38 -32 -124q-15 -39 -40.5 -67.5t-57 -47t-79 -31.5t-93 -20t-112.5 -13q-124 5 -220.5 43t-155 114.5 t-58.5 180.5zM319 950q0 50 42.5 86t115.5 36q39 0 85 -38.5t46 -88.5q0 -53 -42.5 -97.5t-86.5 -44.5q-60 0 -110 47.5t-50 99.5z" />
<glyph unicode="&#xc0;" horiz-adv-x="1074" d="M56 29q0 14 10 37l255 633q47 153 161 426q9 20 14 29.5t17 22t24 12.5q23 0 44 -22.5t37.5 -61t30 -77.5t29 -84.5t26.5 -70.5q337 -803 337 -838q0 -13 -12.5 -23t-39.5 -10h-72q-15 0 -51 -1t-50 -1q-24 0 -36 10.5t-15.5 26t-6.5 31t-13.5 26t-31.5 10.5h-333 q-27 0 -37.5 -9t-21.5 -50q-6 -47 -66 -47q-8 0 -21.5 1t-18.5 1h-121q-38 0 -38 29zM200 1460q0 21 80 21q9 0 24 -1t22 -1h16.5h18.5t16.5 -0.5t18 -1t15.5 -2t17 -4t14.5 -6t15 -8t12.5 -10.5q3 -3 28 -27.5t37 -37t31 -33.5t28 -35.5t9 -23.5q0 -16 -11 -25t-29 -9h-101 q-32 0 -52.5 9.5t-50.5 32.5q-77 58 -129 116q-30 21 -30 46zM450 344q0 -16 17 -19.5t72 -3.5h59q16 0 25 2t13 8t4.5 11t0.5 17v5q-45 126 -74 258q-9 9 -19 9q-98 -225 -98 -287z" />
<glyph unicode="&#xc1;" horiz-adv-x="1074" d="M56 29q0 14 10 37l255 633q47 153 161 426q9 20 14 29.5t17 22t24 12.5q23 0 44 -22.5t37.5 -61t30 -77.5t29 -84.5t26.5 -70.5q337 -803 337 -838q0 -13 -12.5 -23t-39.5 -10h-72q-15 0 -51 -1t-50 -1q-24 0 -36 10.5t-15.5 26t-6.5 31t-13.5 26t-31.5 10.5h-333 q-27 0 -37.5 -9t-21.5 -50q-6 -47 -66 -47q-8 0 -21.5 1t-18.5 1h-121q-38 0 -38 29zM450 344q0 -16 17 -19.5t72 -3.5h59q16 0 25 2t13 8t4.5 11t0.5 17v5q-45 126 -74 258q-9 9 -19 9q-98 -225 -98 -287zM479 1300q0 8 9 23.5t25.5 35.5t32 37.5t36 40t29.5 32.5t24 16 t26.5 7t31.5 1.5t28 1.5q133 -5 133 -46q0 -21 -50 -71.5t-91 -76.5q-72 -46 -144 -46q-33 0 -61.5 13t-28.5 32z" />
<glyph unicode="&#xc2;" horiz-adv-x="1074" d="M56 29q0 14 10 37l255 633q47 153 161 426q9 20 14 29.5t17 22t24 12.5q23 0 44 -22.5t37.5 -61t30 -77.5t29 -84.5t26.5 -70.5q337 -803 337 -838q0 -13 -12.5 -23t-39.5 -10h-72q-15 0 -51 -1t-50 -1q-24 0 -36 10.5t-15.5 26t-6.5 31t-13.5 26t-31.5 10.5h-333 q-27 0 -37.5 -9t-21.5 -50q-6 -47 -66 -47q-8 0 -21.5 1t-18.5 1h-121q-38 0 -38 29zM295 1288q0 21 54 64.5t110.5 78t69.5 34.5q38 0 139.5 -67.5t122.5 -102.5q1 -2 4 -4.5t4.5 -5t1.5 -5.5q0 -23 -12.5 -32t-25.5 -9q-33 0 -108.5 27t-117.5 27q-6 0 -42.5 -9.5 t-92.5 -25.5t-73 -21q-34 12 -34 51zM450 344q0 -16 17 -19.5t72 -3.5h59q16 0 25 2t13 8t4.5 11t0.5 17v5q-45 126 -74 258q-9 9 -19 9q-98 -225 -98 -287z" />
<glyph unicode="&#xc3;" horiz-adv-x="1074" d="M56 29q0 14 10 37l255 633q47 153 161 426q9 20 14 29.5t17 22t24 12.5q23 0 44 -22.5t37.5 -61t30 -77.5t29 -84.5t26.5 -70.5q337 -803 337 -838q0 -13 -12.5 -23t-39.5 -10h-72q-15 0 -51 -1t-50 -1q-24 0 -36 10.5t-15.5 26t-6.5 31t-13.5 26t-31.5 10.5h-333 q-27 0 -37.5 -9t-21.5 -50q-6 -47 -66 -47q-8 0 -21.5 1t-18.5 1h-121q-38 0 -38 29zM309 1333q0 36 31.5 69.5t66 50t53.5 16.5q31 0 66.5 -17t68 -34t54.5 -17q15 0 46.5 13.5t44.5 13.5q27 0 48 -15.5t21 -40.5q0 -22 -16.5 -45.5t-41.5 -41.5t-56 -30t-57 -12 q-4 2 -23 8.5t-34.5 14t-26.5 16.5q-44 37 -86 37q-15 0 -49 -18t-49 -18q-14 0 -28.5 7t-23.5 18.5t-9 24.5zM450 344q0 -16 17 -19.5t72 -3.5h59q16 0 25 2t13 8t4.5 11t0.5 17v5q-45 126 -74 258q-9 9 -19 9q-98 -225 -98 -287z" />
<glyph unicode="&#xc4;" horiz-adv-x="1074" d="M56 29q0 14 10 37l255 633q47 153 161 426q9 20 14 29.5t17 22t24 12.5q23 0 44 -22.5t37.5 -61t30 -77.5t29 -84.5t26.5 -70.5q337 -803 337 -838q0 -13 -12.5 -23t-39.5 -10h-72q-15 0 -51 -1t-50 -1q-24 0 -36 10.5t-15.5 26t-6.5 31t-13.5 26t-31.5 10.5h-333 q-27 0 -37.5 -9t-21.5 -50q-6 -47 -66 -47q-8 0 -21.5 1t-18.5 1h-121q-38 0 -38 29zM235 1345q0 60 37 104t89 44q60 0 113 -43t53 -99q0 -34 -19 -61.5t-51 -42.5t-71 -15q-2 0 -6.5 -0.5t-6.5 -0.5q-46 0 -92 33.5t-46 80.5zM450 344q0 -16 17 -19.5t72 -3.5h59 q16 0 25 2t13 8t4.5 11t0.5 17v5q-45 126 -74 258q-9 9 -19 9q-98 -225 -98 -287zM554 1345q0 60 37 104t89 44q60 0 113 -43t53 -99q0 -26 -11 -48t-30 -37.5t-45 -24.5t-55 -9q-2 0 -6.5 -0.5t-6.5 -0.5q-29 0 -60.5 14t-54.5 41t-23 59z" />
<glyph unicode="&#xc5;" horiz-adv-x="1077" d="M54 34q0 9 57.5 145.5t64.5 136.5q9 37 20 74.5t28 79.5t28.5 69t35 80t33.5 75q42 128 161 392q0 11 7 24q-78 21 -127.5 70t-49.5 110q0 50 35.5 92.5t85 64.5t98.5 22q56 0 112 -29t91 -76t35 -95q0 -55 -47 -102.5t-123 -59.5q20 -30 36 -72.5t32 -89t32 -77.5 q208 -496 305 -740q8 -9 22.5 -50t14.5 -48q0 -11 -11.5 -18.5t-40.5 -14.5h-72q-15 0 -51 7t-50 7q-20 0 -32 6.5t-16 16.5t-7 21.5t-6 21t-13.5 16t-28.5 6.5h-333q-13 0 -23 -9t-15 -20t-10.5 -20.5t-10.5 -9.5q-24 -27 -70 -35t-112 -8q-42 0 -63.5 7.5t-21.5 29.5z M450 339q0 -16 17 -19.5t72 -3.5h59q32 11 37.5 16.5t5.5 26.5q-8 20 -21.5 51.5t-21.5 50t-16.5 43.5t-14.5 45q-9 10 -19 10q-7 0 -22 -30.5t-32.5 -71t-26.5 -54.5q-17 -50 -17 -64zM484 1276q0 -40 53 -40q66 17 66 57q0 19 -18 31.5t-41 12.5t-41.5 -17t-18.5 -44z" />
<glyph unicode="&#xc6;" horiz-adv-x="1633" d="M32 39q0 16 43 77q63 88 143 203t147.5 211t140.5 200.5t148.5 210t145.5 201.5q23 34 78 34q15 0 44.5 -1t45.5 -1q30 0 90 1t89 1v-2h249q29 -2 43.5 -3.5t30 -7.5t20.5 -12t10 -21.5t5.5 -33t0.5 -48.5q0 -19 -3 -32t-13 -24t-29.5 -16t-50.5 -5q-45 0 -135.5 -3.5 t-135.5 -3.5q-26 0 -33.5 -8t-7.5 -31q0 -31 1 -91.5t1 -90t8.5 -38t35.5 -10.5q147 -3 226 -3q53 -4 65 -24.5t12 -96.5q0 -14 -2.5 -25t-5 -19.5t-10 -15t-12.5 -10.5t-16.5 -7t-17.5 -4.5t-21 -2t-21 -0.5h-24h-24q-28 0 -78.5 1t-72.5 1q-27 0 -35.5 -9.5t-8.5 -37.5 q0 -128 2 -190q1 -34 10 -39.5t58 -5.5q23 0 79 1.5t85 1.5q37 0 65 -2.5t53.5 -9t39 -20t13.5 -32.5v-38q-1 -24 0 -41t-2.5 -29t-7 -19.5t-14.5 -11.5t-24.5 -5.5t-36.5 -1.5h-496q-19 0 -32 1.5t-28.5 6t-24.5 15t-10 27.5q-3 13 -15 23.5t-28 11.5l-125 5t-141.5 5.5 t-123.5 2.5q-21 0 -39 -11t-32.5 -26l-29 -30t-34.5 -25.5t-44 -10.5q-183 0 -183 44zM489 321q0 -18 27 -18q126 0 260 5q31 0 38 7.5t7 42.5v203q-7 0 -7 91q0 33 0.5 56.5t1 37.5t0.5 25q0 9 -1.5 15.5t-5 14.5t-5.5 12q-44 -45 -85 -105.5t-67.5 -111.5t-63.5 -113.5 t-72 -106.5q-9 -8 -18 -25.5t-9 -29.5z" />
<glyph unicode="&#xc7;" horiz-adv-x="1331" d="M102 593q0 145 55.5 274t166.5 205q172 118 425 120q27 -2 44 -3.5t53.5 -5t62 -8t63 -12t64.5 -16t57.5 -21.5t51.5 -28t37.5 -35.5t22.5 -43.5q0 -1 1 -3t1.5 -4.5t0.5 -3.5q0 -37 -35.5 -82.5t-65.5 -45.5t-133 52q-83 41 -170 41q-90 0 -167 -24.5t-135.5 -72 t-92 -122t-33.5 -169.5q0 -108 31 -176t104 -117q38 -27 77.5 -43.5t80.5 -23.5t90 -7q139 0 276 81q26 13 47 13q28 0 55.5 -18.5t46 -44t29.5 -48t11 -33.5q0 -23 -61.5 -60t-146 -67.5t-146.5 -37.5h-5q-15 -2 -25 -4t-25.5 -7.5t-24 -15.5t-8.5 -24q0 -12 14.5 -21.5 t34.5 -18t40.5 -20t34.5 -33.5t14 -53q0 -40 -34 -74.5t-85.5 -52.5t-106.5 -18q-51 0 -94.5 17t-43.5 46q0 17 29 25t63.5 9t63 14t28.5 39q0 16 -13.5 30t-30 22.5t-30.5 20.5t-14 23q0 9 14.5 37t14.5 40q0 8 -4.5 14t-13 8.5t-16 3.5t-19.5 2t-17 1q-180 21 -359 171 q-42 35 -72 85t-46.5 105.5t-24 109.5t-7.5 109z" />
<glyph unicode="&#xc8;" horiz-adv-x="939" d="M170 82q0 87 0.5 258.5t0.5 255.5v490q0 25 0.5 37t4 24t8 16.5t16 8t24 4t36.5 0.5h477q46 0 59 -19.5t13 -79.5q0 -76 -15 -95t-75 -19h-229q-16 0 -26.5 -5t-16 -14.5t-7 -19.5t-1.5 -24v-128q0 -68 35 -68q47 -2 125 -2h16q103 0 123 -12t20 -79v-74 q0 -28 -17.5 -36.5t-72.5 -8.5q-14 0 -72.5 1t-96.5 1q-37 0 -48.5 -8.5t-11.5 -38.5q0 -33 1.5 -97.5t1.5 -97.5q0 -22 7.5 -29.5t29.5 -7.5q75 -3 226 -3q78 0 91 -14.5t13 -98.5v-17q0 -38 -13 -60t-52 -22h-470q-61 0 -82.5 17t-21.5 65zM173 1460q0 21 80 21 q9 0 24.5 -1t21.5 -1h17.5h18.5t16 -0.5t18 -1t16 -2t16.5 -4t14.5 -6t15.5 -8t12.5 -10.5l27 -27l38 -38t30.5 -33t28 -36t8.5 -23q0 -11 -5.5 -18.5t-14.5 -11.5t-21 -4h-100q-32 0 -52 9.5t-50 32.5q-80 59 -130 116q-30 21 -30 46z" />
<glyph unicode="&#xc9;" horiz-adv-x="939" d="M170 82q0 87 0.5 258.5t0.5 255.5v490q0 25 0.5 37t4 24t8 16.5t16 8t24 4t36.5 0.5h477q46 0 59 -19.5t13 -79.5q0 -76 -15 -95t-75 -19h-229q-16 0 -26.5 -5t-16 -14.5t-7 -19.5t-1.5 -24v-128q0 -68 35 -68q47 -2 125 -2h16q103 0 123 -12t20 -79v-74 q0 -28 -17.5 -36.5t-72.5 -8.5q-14 0 -72.5 1t-96.5 1q-37 0 -48.5 -8.5t-11.5 -38.5q0 -33 1.5 -97.5t1.5 -97.5q0 -22 7.5 -29.5t29.5 -7.5q75 -3 226 -3q78 0 91 -14.5t13 -98.5v-17q0 -38 -13 -60t-52 -22h-470q-61 0 -82.5 17t-21.5 65zM453 1300q0 13 20 40t65.5 77 t47.5 52q9 10 24 16t26.5 7t31.5 1.5t27 1.5q135 -5 135 -46q0 -21 -50.5 -71.5t-90.5 -76.5q-72 -46 -145 -46q-33 0 -62 13t-29 32z" />
<glyph unicode="&#xca;" horiz-adv-x="939" d="M170 82q0 87 0.5 258.5t0.5 255.5v490q0 25 0.5 37t4 24t8 16.5t16 8t24 4t36.5 0.5h477q46 0 59 -19.5t13 -79.5q0 -76 -15 -95t-75 -19h-229q-16 0 -26.5 -5t-16 -14.5t-7 -19.5t-1.5 -24v-128q0 -68 35 -68q47 -2 125 -2h16q103 0 123 -12t20 -79v-74 q0 -28 -17.5 -36.5t-72.5 -8.5q-14 0 -72.5 1t-96.5 1q-37 0 -48.5 -8.5t-11.5 -38.5q0 -33 1.5 -97.5t1.5 -97.5q0 -22 7.5 -29.5t29.5 -7.5q75 -3 226 -3q78 0 91 -14.5t13 -98.5v-17q0 -38 -13 -60t-52 -22h-470q-61 0 -82.5 17t-21.5 65zM269 1288q0 21 53.5 64.5 t110 78t69.5 34.5q38 0 139.5 -67.5t122.5 -102.5q1 -2 3 -4t3.5 -3t2.5 -3.5t1 -4.5q0 -23 -12.5 -32t-25.5 -9q-33 0 -108.5 27t-116.5 27q-7 0 -43 -9.5t-92 -25.5t-73 -21q-34 12 -34 51z" />
<glyph unicode="&#xcb;" horiz-adv-x="939" d="M170 82q0 87 0.5 258.5t0.5 255.5v490q0 25 0.5 37t4 24t8 16.5t16 8t24 4t36.5 0.5h477q46 0 59 -19.5t13 -79.5q0 -76 -15 -95t-75 -19h-229q-16 0 -26.5 -5t-16 -14.5t-7 -19.5t-1.5 -24v-128q0 -68 35 -68q47 -2 125 -2h16q103 0 123 -12t20 -79v-74 q0 -28 -17.5 -36.5t-72.5 -8.5q-14 0 -72.5 1t-96.5 1q-37 0 -48.5 -8.5t-11.5 -38.5q0 -33 1.5 -97.5t1.5 -97.5q0 -22 7.5 -29.5t29.5 -7.5q75 -3 226 -3q78 0 91 -14.5t13 -98.5v-17q0 -38 -13 -60t-52 -22h-470q-61 0 -82.5 17t-21.5 65zM208 1345q0 60 37 104t90 44 q59 0 112 -43t53 -99q0 -34 -19 -61.5t-51.5 -42.5t-70.5 -15q-3 0 -7.5 -0.5t-5.5 -0.5q-29 0 -60.5 14t-54.5 41t-23 59zM527 1345q0 60 37 104t90 44q28 0 58 -11.5t53.5 -30.5t38.5 -46t15 -54q0 -26 -11 -48t-30 -37.5t-45 -24.5t-55 -9q-3 0 -7.5 -0.5t-5.5 -0.5 q-46 0 -92 33.5t-46 80.5z" />
<glyph unicode="&#xcc;" horiz-adv-x="609" d="M-43 1468q0 22 80 22q9 0 24 -1t21 -1h17h18h16.5t18 -1t16 -2.5t17 -4t14 -6t15 -8t12.5 -10.5q1 0 28 -27l38 -38t30.5 -33t28 -36.5t8.5 -23.5q0 -16 -11 -25t-29 -9h-101q-31 0 -51.5 9.5t-50.5 32.5q-75 56 -129 117q-30 21 -30 45zM166 1127q0 51 39 51 q34 0 96.5 -2t96.5 -2q6 0 11.5 -1.5t9.5 -6t7 -8.5t4.5 -11t2.5 -12t1.5 -13.5t0.5 -13v-13.5v-12v-982v-27t-2 -21t-3 -17t-6 -12.5t-9.5 -10t-15 -6t-19.5 -4t-27 -2t-33.5 -1.5h-42.5q-22 0 -35.5 0.5t-26.5 3.5t-19.5 5t-13 11t-8.5 15.5t-4 23.5t-2 30v41v478 q0 91 -1 259t-1 260z" />
<glyph unicode="&#xcd;" horiz-adv-x="609" d="M166 1127q0 51 39 51q34 0 96.5 -2t96.5 -2q6 0 11.5 -1.5t9.5 -6t7 -8.5t4.5 -11t2.5 -12t1.5 -13.5t0.5 -13v-13.5v-12v-982v-27t-2 -21t-3 -17t-6 -12.5t-9.5 -10t-15 -6t-19.5 -4t-27 -2t-33.5 -1.5h-42.5q-22 0 -35.5 0.5t-26.5 3.5t-19.5 5t-13 11t-8.5 15.5 t-4 23.5t-2 30v41v478q0 91 -1 259t-1 260zM235 1308q0 14 20 40.5t65.5 76.5t47.5 53q9 10 24 15.5t26.5 6.5t31.5 1.5t27 1.5q17 -1 27.5 -1.5t28.5 -2t29.5 -4.5t24 -7.5t18.5 -12t6 -17.5q0 -14 -26 -44.5t-58.5 -59.5t-56.5 -44q-72 -47 -144 -47q-33 0 -62 13.5 t-29 31.5z" />
<glyph unicode="&#xce;" horiz-adv-x="609" d="M50 1296q0 16 33 46.5t75 59t79.5 50t46.5 21.5q38 0 139 -67.5t123 -102.5q1 -2 4 -4.5t4.5 -5t1.5 -5.5q0 -23 -12.5 -31.5t-26.5 -8.5q-33 0 -108 26.5t-117 26.5q-7 0 -42 -9t-94 -25.5t-72 -20.5q-34 12 -34 50zM166 1127q0 51 39 51q34 0 96.5 -2t96.5 -2 q6 0 11.5 -1.5t9.5 -6t7 -8.5t4.5 -11t2.5 -12t1.5 -13.5t0.5 -13v-13.5v-12v-982v-27t-2 -21t-3 -17t-6 -12.5t-9.5 -10t-15 -6t-19.5 -4t-27 -2t-33.5 -1.5h-42.5q-22 0 -35.5 0.5t-26.5 3.5t-19.5 5t-13 11t-8.5 15.5t-4 23.5t-2 30v41v478q0 91 -1 259t-1 260z" />
<glyph unicode="&#xcf;" horiz-adv-x="609" d="M-10 1354q0 60 36.5 103.5t89.5 43.5q60 0 113 -43t53 -99q0 -34 -19 -61t-51.5 -42t-70.5 -15q-3 0 -7.5 -1t-5.5 -1q-46 0 -92 34t-46 81zM166 1127q0 51 39 51q34 0 96.5 -2t96.5 -2q6 0 11.5 -1.5t9.5 -6t7 -8.5t4.5 -11t2.5 -12t1.5 -13.5t0.5 -13v-13.5v-12v-982 v-27t-2 -21t-3 -17t-6 -12.5t-9.5 -10t-15 -6t-19.5 -4t-27 -2t-33.5 -1.5h-42.5q-22 0 -35.5 0.5t-26.5 3.5t-19.5 5t-13 11t-8.5 15.5t-4 23.5t-2 30v41v478q0 91 -1 259t-1 260zM309 1354q0 39 16.5 73t45.5 54t64 20q60 0 113 -43t53 -99q0 -34 -19 -61t-51.5 -42 t-70.5 -15q-3 0 -7.5 -1t-5.5 -1q-46 0 -92 34t-46 81z" />
<glyph unicode="&#xd0;" horiz-adv-x="1221" d="M80 633q0 66 51 75q17 2 22 15t5 40q0 49 -4.5 149t-4.5 149q0 21 2 36.5t6.5 31t12.5 25.5t21.5 17t31.5 8q56 3 180 13q72 -2 138.5 -10.5t138 -27.5t132 -47.5t115.5 -73.5t93 -102t61 -136.5t23 -174.5q0 -143 -64 -312q-20 -56 -53.5 -100.5t-73.5 -75t-95.5 -55 t-108.5 -40t-123 -29.5q-91 -19 -185 -19q-110 0 -172 19q-24 7 -37 13t-21.5 16.5t-11.5 24t-3 37.5q-5 379 -5 380q0 20 -11 34t-23.5 21t-23.5 21.5t-11 35.5q0 8 -1 22.5t-1 19.5zM429 842.5q0 -9.5 0.5 -26t0.5 -21.5q0 -27 0.5 -40t2.5 -24t8 -13.5t13 -5t21 -2 t29.5 0t41.5 -3.5t53 -10q10 -2 16.5 -6t10.5 -11.5t6.5 -12t3 -17t0.5 -16.5v-19q0 -56 -7 -71t-43 -20q-14 -2 -36.5 -2.5t-39 -1.5t-33.5 -4.5t-27 -13.5t-11 -28q-5 -61 -8 -126q4 -74 9 -122q2 -17 11.5 -22.5t32.5 -5.5q80 0 143.5 33t103 90t60 131t20.5 159 q0 52 -10.5 105.5t-31.5 104t-58 88t-85 50.5q-80 20 -141 20q-10 0 -18.5 -4t-14 -12.5t-10 -17.5t-7 -23t-4 -25t-2 -28t-0.5 -26.5z" />
<glyph unicode="&#xd1;" horiz-adv-x="1359" d="M160 1035v33t1 32.5t3 32t5.5 25t9 18.5t12.5 6q12 0 36.5 -12t38.5 -26q77 -85 176.5 -175.5t223.5 -197t185 -162.5q12 -13 29 -26.5t25 -13.5q5 0 8.5 2.5t5 8t3 10.5t2 13.5t0.5 14t-0.5 15t-0.5 13.5q0 75 2 220t2 219q0 60 16.5 75.5t74.5 15.5h42q39 1 54.5 1.5 t34.5 -8.5t23.5 -16t10 -38t5.5 -56.5t-1 -89.5v-40q0 -217 4 -217q0 -76 -3.5 -226t-3.5 -224q0 -32 4 -93.5t4 -93.5q0 -72 -32 -72q-28 0 -109 81q-80 76 -169 154.5t-207 178t-175 149.5l-11 10t-19.5 16t-14.5 6q-19 0 -19 -77q0 -75 -2.5 -214t-2.5 -214 q0 -14 -0.5 -25t-3.5 -20.5t-5.5 -16t-9.5 -11.5t-11 -8.5t-15.5 -5.5t-18.5 -3.5t-23.5 -2t-26.5 -0.5h-32h-6q-25 0 -42.5 3t-34.5 11t-25.5 25.5t-8.5 44.5q0 92 -1.5 260.5t-1.5 259.5q0 47 1.5 148t1.5 145q0 21 -4 66.5t-4 71.5zM436 1333q0 36 31.5 69.5t66.5 50 t54 16.5q31 0 66.5 -17t67.5 -34t54 -17q15 0 47 13.5t45 13.5q26 0 47.5 -15.5t21.5 -40.5q0 -22 -16.5 -45.5t-41.5 -41.5t-56 -30t-57 -12q-5 2 -23.5 8.5t-34.5 14t-27 16.5q-44 37 -85 37q-15 0 -49.5 -18t-49.5 -18q-22 0 -41.5 15.5t-19.5 34.5z" />
<glyph unicode="&#xd2;" d="M104 585q0 88 23.5 171.5t75 160.5t125.5 136t183.5 96t241.5 42q5 0 10.5 -0.5t10.5 -1t8 -0.5q95 -1 180.5 -16.5t163 -46.5t141.5 -75.5t114.5 -108t81.5 -141.5q42 -111 42 -213q0 -112 -41.5 -210t-112 -169t-162.5 -122.5t-194.5 -77t-206.5 -25.5 q-104 2 -204.5 30t-186.5 80.5t-152 124t-103.5 166t-37.5 200.5zM394 576q0 -58 19.5 -112.5t56 -99.5t85.5 -79t111.5 -53t129.5 -19q76 0 150.5 28t134 76.5t96.5 122t37 156.5q0 87 -33.5 161.5t-95 124.5t-140.5 65q-37 7 -127 21q-10 -2 -38.5 -4.5t-49.5 -5.5t-40 -8 q-132 -28 -214 -127t-82 -247zM462 1460q0 21 81 21q8 0 23.5 -1t21.5 -1h17h18t16.5 -0.5t18 -1t16 -2t17 -4t14 -6t15 -8t12.5 -10.5q3 -3 28 -27.5t37.5 -37t31.5 -33.5t27.5 -35.5t8.5 -23.5q0 -11 -5 -18.5t-14 -11.5t-21 -4h-101q-31 0 -51.5 9.5t-50.5 32.5 q-80 59 -130 116q-30 21 -30 46z" />
<glyph unicode="&#xd3;" d="M104 585q0 88 23.5 171.5t75 160.5t125.5 136t183.5 96t241.5 42q5 0 10.5 -0.5t10.5 -1t8 -0.5q95 -1 180.5 -16.5t163 -46.5t141.5 -75.5t114.5 -108t81.5 -141.5q42 -111 42 -213q0 -112 -41.5 -210t-112 -169t-162.5 -122.5t-194.5 -77t-206.5 -25.5 q-104 2 -204.5 30t-186.5 80.5t-152 124t-103.5 166t-37.5 200.5zM394 576q0 -58 19.5 -112.5t56 -99.5t85.5 -79t111.5 -53t129.5 -19q76 0 150.5 28t134 76.5t96.5 122t37 156.5q0 87 -33.5 161.5t-95 124.5t-140.5 65q-37 7 -127 21q-10 -2 -38.5 -4.5t-49.5 -5.5t-40 -8 q-132 -28 -214 -127t-82 -247zM739 1300q0 13 19.5 40t65.5 77t48 52q9 10 23.5 16t26 7t31.5 1.5t28 1.5q134 -5 134 -46q0 -21 -50.5 -71.5t-90.5 -76.5q-72 -46 -144 -46q-33 0 -62 13t-29 32z" />
<glyph unicode="&#xd4;" d="M104 585q0 88 23.5 171.5t75 160.5t125.5 136t183.5 96t241.5 42q5 0 10.5 -0.5t10.5 -1t8 -0.5q95 -1 180.5 -16.5t163 -46.5t141.5 -75.5t114.5 -108t81.5 -141.5q42 -111 42 -213q0 -112 -41.5 -210t-112 -169t-162.5 -122.5t-194.5 -77t-206.5 -25.5 q-104 2 -204.5 30t-186.5 80.5t-152 124t-103.5 166t-37.5 200.5zM394 576q0 -58 19.5 -112.5t56 -99.5t85.5 -79t111.5 -53t129.5 -19q76 0 150.5 28t134 76.5t96.5 122t37 156.5q0 87 -33.5 161.5t-95 124.5t-140.5 65q-37 7 -127 21q-10 -2 -38.5 -4.5t-49.5 -5.5t-40 -8 q-132 -28 -214 -127t-82 -247zM556 1288q0 21 53.5 64.5t110.5 78t70 34.5q25 0 83.5 -33.5t111.5 -74.5t66 -62q1 -2 4 -4.5t4.5 -5t1.5 -5.5q0 -23 -12.5 -32t-25.5 -9q-33 0 -108.5 27t-116.5 27q-7 0 -43 -9.5t-92 -25.5t-73 -21q-34 12 -34 51z" />
<glyph unicode="&#xd5;" d="M104 585q0 88 23.5 171.5t75 160.5t125.5 136t183.5 96t241.5 42q5 0 10.5 -0.5t10.5 -1t8 -0.5q95 -1 180.5 -16.5t163 -46.5t141.5 -75.5t114.5 -108t81.5 -141.5q42 -111 42 -213q0 -112 -41.5 -210t-112 -169t-162.5 -122.5t-194.5 -77t-206.5 -25.5 q-104 2 -204.5 30t-186.5 80.5t-152 124t-103.5 166t-37.5 200.5zM394 576q0 -58 19.5 -112.5t56 -99.5t85.5 -79t111.5 -53t129.5 -19q76 0 150.5 28t134 76.5t96.5 122t37 156.5q0 87 -33.5 161.5t-95 124.5t-140.5 65q-37 7 -127 21q-10 -2 -38.5 -4.5t-49.5 -5.5t-40 -8 q-132 -28 -214 -127t-82 -247zM569 1333q0 36 31.5 69.5t66.5 50t54 16.5q30 0 65.5 -17t68 -34t54.5 -17q15 0 47 13.5t45 13.5q26 0 47.5 -15.5t21.5 -40.5q0 -22 -16.5 -45.5t-42 -41.5t-56 -30t-56.5 -12q-5 2 -23.5 8.5t-34.5 14t-27 16.5q-44 37 -85 37 q-15 0 -49.5 -18t-49.5 -18q-22 0 -41.5 15.5t-19.5 34.5z" />
<glyph unicode="&#xd6;" d="M104 585q0 88 23.5 171.5t75 160.5t125.5 136t183.5 96t241.5 42q5 0 10.5 -0.5t10.5 -1t8 -0.5q95 -1 180.5 -16.5t163 -46.5t141.5 -75.5t114.5 -108t81.5 -141.5q42 -111 42 -213q0 -112 -41.5 -210t-112 -169t-162.5 -122.5t-194.5 -77t-206.5 -25.5 q-104 2 -204.5 30t-186.5 80.5t-152 124t-103.5 166t-37.5 200.5zM394 576q0 -58 19.5 -112.5t56 -99.5t85.5 -79t111.5 -53t129.5 -19q76 0 150.5 28t134 76.5t96.5 122t37 156.5q0 87 -33.5 161.5t-95 124.5t-140.5 65q-37 7 -127 21q-10 -2 -38.5 -4.5t-49.5 -5.5t-40 -8 q-132 -28 -214 -127t-82 -247zM497 1345q0 60 37 104t89 44q60 0 113.5 -43t53.5 -99q0 -26 -11.5 -48t-30.5 -37.5t-45 -24.5t-54 -9q-3 0 -8 -0.5t-6 -0.5q-47 0 -92.5 33.5t-45.5 80.5zM816 1345q0 60 37 104t89 44q60 0 113.5 -43t53.5 -99q0 -34 -19.5 -61.5 t-51.5 -42.5t-70 -15q-3 0 -8 -0.5t-6 -0.5q-29 0 -60.5 14t-54.5 41t-23 59z" />
<glyph unicode="&#xd7;" horiz-adv-x="1168" d="M130 171q0 18 42.5 58t94 79t94 78.5t42.5 55.5q0 12 -14.5 28.5t-38 34.5t-51.5 38.5t-56.5 41.5t-52 41.5t-38 41.5t-14.5 39q0 22 22 48.5t48.5 42.5t43.5 16q14 0 31.5 -8t37 -23.5t35.5 -30.5t38.5 -36t35.5 -32q7 -7 26.5 -25t31.5 -28t28 -23t27.5 -19t19.5 -6 q19 0 87 54.5t131.5 111.5t68.5 59q24 8 33 8q46 0 89 -40.5t57 -83.5q-13 -25 -58.5 -66t-92.5 -76.5t-84.5 -72t-37.5 -56.5q0 -9 8.5 -21t25.5 -26.5t32 -26t38.5 -28.5t33.5 -25q2 -2 27 -21t37 -29t30.5 -27.5t27 -31.5t8.5 -25q0 -19 -57.5 -67t-67.5 -48 q-16 0 -48 24.5t-69 59.5t-74.5 69.5t-70 59t-47.5 24.5q-17 0 -77 -48t-128 -105.5t-91 -71.5q-15 -7 -23 -7q-22 0 -56.5 26t-59.5 55t-25 40z" />
<glyph unicode="&#xd8;" d="M80 601q0 103 37.5 197t103.5 166t152.5 125.5t187.5 81.5t205 28q21 0 63.5 -1.5t64.5 -1.5q28 0 63 23.5t57 23.5h20q40 0 62.5 -0.5t54.5 -5.5t47.5 -18t15.5 -33q0 -17 -6 -37.5t-6 -25.5q0 -14 10 -23.5t39 -24.5q89 -46 153 -130.5t94 -181.5t30 -197 q0 -111 -40.5 -208t-109.5 -166t-159.5 -120t-190 -77t-201.5 -30q-23 1 -68 6t-67 5q-15 0 -50.5 -21.5t-61.5 -21.5q-10 0 -32 -1t-34 -1q-26 0 -45.5 2t-38.5 6.5t-29 14.5t-10 26q0 15 7 37t7 26t-0.5 7t-2 6t-2.5 5.5t-4.5 5.5t-5.5 4.5t-7.5 5t-8.5 5t-10 6t-11 6.5 q-131 74 -202 211t-71 296zM390 596q0 -59 14 -127t43.5 -121t64.5 -53q15 0 30.5 26.5t34.5 75.5t24 60q23 47 87 184t100 212q3 6 11.5 23.5t14 29t10 25t4.5 21.5q0 10 -8.5 13.5t-26.5 3.5q-94 0 -171 -29t-127 -80t-77.5 -118.5t-27.5 -145.5zM781 226q0 -7 6.5 -12.5 t16.5 -5.5q192 0 303 102.5t111 285.5q-1 42 -17 106.5t-45.5 119.5t-60.5 55q-11 0 -25.5 -20t-32.5 -57.5t-34 -73.5t-37 -86t-34 -77q-14 -33 -39 -81.5t-44 -84.5t-38 -81t-29 -82q0 -1 -0.5 -4t-0.5 -4z" />
<glyph unicode="&#xd9;" horiz-adv-x="1179" d="M160 462q0 100 2.5 323.5t2.5 323.5q0 36 10 51.5t37 15.5q112 0 171 -3q11 0 19.5 -4t13.5 -12.5t8 -16.5t4 -22.5t1.5 -23.5t0.5 -26v-10q0 -95 -2 -315.5t-2 -321.5q0 -39 2.5 -66.5t11.5 -57t25 -47t43.5 -29t67.5 -11.5q86 0 125 49.5t39 145.5q0 104 1 340t1 343 q0 58 13 73t68 15q11 0 52 -1t74 -1q41 0 52.5 -21.5t11.5 -91.5q0 -15 -1 -62t-1 -81q0 -223 3 -223q0 -32 2 -104.5t2 -109.5q0 -60 -3.5 -107t-14.5 -101t-30 -94t-52.5 -78.5t-78.5 -63t-111 -39t-148 -14.5q-61 0 -116 9t-109 29.5t-95 59.5t-60 93q-40 112 -40 287z M250 1460q0 21 80 21q9 0 24.5 -1t21.5 -1h16h16h15t16 -0.5t15 -2t15 -3t13.5 -4t14 -5.5t12 -7.5t12.5 -9.5q3 -3 28 -27.5t37 -37t31 -33.5t28 -35.5t9 -23.5q0 -16 -11 -25t-30 -9h-101q-31 0 -51.5 9.5t-50.5 32.5q-80 59 -130 116q-30 21 -30 46z" />
<glyph unicode="&#xda;" horiz-adv-x="1179" d="M160 462q0 100 2.5 323.5t2.5 323.5q0 36 10 51.5t37 15.5q112 0 171 -3q11 0 19.5 -4t13.5 -12.5t8 -16.5t4 -22.5t1.5 -23.5t0.5 -26v-10q0 -95 -2 -315.5t-2 -321.5q0 -39 2.5 -66.5t11.5 -57t25 -47t43.5 -29t67.5 -11.5q86 0 125 49.5t39 145.5q0 104 1 340t1 343 q0 58 13 73t68 15q11 0 52 -1t74 -1q41 0 52.5 -21.5t11.5 -91.5q0 -15 -1 -62t-1 -81q0 -223 3 -223q0 -32 2 -104.5t2 -109.5q0 -60 -3.5 -107t-14.5 -101t-30 -94t-52.5 -78.5t-78.5 -63t-111 -39t-148 -14.5q-61 0 -116 9t-109 29.5t-95 59.5t-60 93q-40 112 -40 287z M529 1300q0 13 19.5 40t65.5 77t48 52q9 10 23.5 16t26 7t31.5 1.5t28 1.5q134 -5 134 -46q0 -21 -50.5 -71.5t-90.5 -76.5q-72 -46 -144 -46q-33 0 -62 13t-29 32z" />
<glyph unicode="&#xdb;" horiz-adv-x="1179" d="M160 462q0 100 2.5 323.5t2.5 323.5q0 36 10 51.5t37 15.5q112 0 171 -3q11 0 19.5 -4t13.5 -12.5t8 -16.5t4 -22.5t1.5 -23.5t0.5 -26v-10q0 -95 -2 -315.5t-2 -321.5q0 -39 2.5 -66.5t11.5 -57t25 -47t43.5 -29t67.5 -11.5q86 0 125 49.5t39 145.5q0 104 1 340t1 343 q0 58 13 73t68 15q11 0 52 -1t74 -1q41 0 52.5 -21.5t11.5 -91.5q0 -15 -1 -62t-1 -81q0 -223 3 -223q0 -32 2 -104.5t2 -109.5q0 -60 -3.5 -107t-14.5 -101t-30 -94t-52.5 -78.5t-78.5 -63t-111 -39t-148 -14.5q-61 0 -116 9t-109 29.5t-95 59.5t-60 93q-40 112 -40 287z M344 1288q0 16 33.5 46.5t75 59t79 50t46.5 21.5q39 0 139.5 -67.5t122.5 -102.5q1 -2 3.5 -4.5t4.5 -5t2 -5.5q0 -23 -13 -32t-26 -9q-33 0 -108 27t-117 27q-6 0 -42.5 -9.5t-92 -25.5t-73.5 -21q-34 12 -34 51z" />
<glyph unicode="&#xdc;" horiz-adv-x="1179" d="M160 462q0 100 2.5 323.5t2.5 323.5q0 36 10 51.5t37 15.5q112 0 171 -3q11 0 19.5 -4t13.5 -12.5t8 -16.5t4 -22.5t1.5 -23.5t0.5 -26v-10q0 -95 -2 -315.5t-2 -321.5q0 -39 2.5 -66.5t11.5 -57t25 -47t43.5 -29t67.5 -11.5q86 0 125 49.5t39 145.5q0 104 1 340t1 343 q0 58 13 73t68 15q11 0 52 -1t74 -1q41 0 52.5 -21.5t11.5 -91.5q0 -15 -1 -62t-1 -81q0 -223 3 -223q0 -32 2 -104.5t2 -109.5q0 -60 -3.5 -107t-14.5 -101t-30 -94t-52.5 -78.5t-78.5 -63t-111 -39t-148 -14.5q-61 0 -116 9t-109 29.5t-95 59.5t-60 93q-40 112 -40 287z M285 1345q0 29 10 56t27 47.5t40.5 32.5t49.5 12q60 0 113 -43t53 -99q0 -51 -41.5 -85t-100.5 -34q-2 0 -6.5 -0.5t-6.5 -0.5q-46 0 -92 33.5t-46 80.5zM604 1345q0 60 37 104t90 44q60 0 113 -43t53 -99q0 -26 -11 -48t-30.5 -37.5t-45 -24.5t-54.5 -9q-3 0 -7.5 -0.5 t-6.5 -0.5q-46 0 -92 33.5t-46 80.5z" />
<glyph unicode="&#xdd;" horiz-adv-x="1086" d="M71 1142q0 10 3 16.5t6.5 9.5t13.5 4.5t13.5 1.5h17.5l125 -1q64 0 83 -48q28 -51 78 -160.5t84.5 -172t53.5 -61.5q6 0 23.5 35.5t35.5 79.5t23 67q16 47 61 121t57 99q11 21 26 31t33 12.5t52 2.5q159 0 159 -35q0 -27 -62 -149q-149 -266 -265 -483q-9 -16 -15 -33 t-8 -40.5t-2.5 -34t0 -41.5t0.5 -36q0 -42 -1 -126t-1 -122q0 -27 -6.5 -42.5t-24.5 -23t-38 -9.5t-57 -2h-41t-31.5 1.5t-25.5 4.5t-17 8.5t-12.5 14t-6 20t-2.5 28.5q0 38 -2.5 118.5t-2.5 119.5q0 17 0.5 49t0.5 47q0 64 -31 122q-50 92 -141 280t-126 255q-3 5 -9.5 18 t-10 20.5t-7 17.5t-3.5 16zM484 1300q0 13 19.5 40t65.5 77t48 52q9 10 23.5 16t26 7t31.5 1.5t28 1.5q134 -5 134 -46q0 -21 -50.5 -71.5t-90.5 -76.5q-72 -46 -145 -46q-33 0 -61.5 13t-28.5 32z" />
<glyph unicode="&#xde;" horiz-adv-x="1038" d="M170 234q0 62 0.5 182t0.5 180q0 81 -0.5 243t-0.5 243v30.5t3 23t4.5 17t10 10.5t14 6.5t21.5 3t27.5 1.5h37.5h23q25 0 44 -2t37.5 -8.5t29 -20.5t11.5 -34q1 -21 9 -120q1 -20 6 -24t26 -6q15 -3 68 -11t75 -13t62.5 -15.5t71.5 -25.5t62 -35q139 -92 139 -287 q0 -192 -121 -295.5t-339 -103.5q-17 0 -25 -0.5t-15 -3.5t-9 -6.5t-4 -14t-2 -20t-1 -31t-3 -41.5q-1 -16 -9.5 -27t-18 -16.5t-26.5 -8t-27 -3t-29 0.5h-9q-36 0 -55 1t-39 4.5t-28.5 11.5t-14.5 21.5t-6 34.5q0 28 -0.5 80.5t-0.5 78.5zM428 569q7 -130 8 -152 q1 -29 13.5 -37.5t40.5 -8.5q38 0 72 19t56.5 49t36 67t13.5 72q0 87 -45.5 125t-138.5 44q-25 0 -34 -7.5t-11 -31.5q-3 -27 -6.5 -78.5t-4.5 -60.5z" />
<glyph unicode="&#xdf;" horiz-adv-x="1149" d="M141 715q0 45 1.5 79t7 81t17 83t29.5 71.5t48 60.5t68 37q4 1 31.5 13t35.5 15t31 11.5t36 11.5t31.5 6t34.5 3q52 0 102.5 -9t97.5 -26.5t87 -45t69.5 -62.5t46.5 -81t17 -98q0 -23 -2.5 -41t-12 -41t-14.5 -33t-24 -42.5t-26 -44.5q-25 -33 -25 -48q0 -13 13 -27.5 t33 -28.5t45 -30.5t49.5 -37t45 -43t33 -54t12.5 -65.5q0 -106 -59 -181.5t-164 -100.5q-8 -2 -27.5 -7.5t-29.5 -8t-29 -7t-31 -7.5t-29.5 -6t-31 -5t-28.5 -3t-29 -1q-62 0 -82 22.5t-20 68.5v48.5t3.5 29t7 16.5t14 5.5t22 3t34 2.5t45.5 9q3 0 9 2q23 5 34.5 8t31 9.5 t30 12.5t24 15.5t20 20.5t11.5 27t5 34q0 41 -30 73t-73 53.5t-85.5 41.5t-72.5 47.5t-30 61.5q0 18 7 34t25.5 34.5t33 31t44.5 36.5q5 4 8 5q46 37 46 92q0 68 -34 108.5t-95 40.5q-33 0 -56 -11t-36 -28t-20.5 -46.5t-9.5 -57.5t-2 -68q0 -57 1 -165.5t1 -165.5h-4 q0 -41 2 -129.5t2 -132.5q0 -79 -5 -149q-3 -26 -19.5 -35t-44.5 -9q-8 0 -22 1t-20 1q-11 0 -29.5 -1t-27.5 -1q-46 0 -70.5 17.5t-24.5 69.5q0 104 -4 316t-4 314z" />
<glyph unicode="&#xe0;" horiz-adv-x="998" d="M48 25q0 11 4.5 24.5t13.5 32.5t11 25q31 73 164.5 381.5t202.5 475.5q0 2 2 7q7 18 11.5 28t12 24.5t15 22t15.5 7.5q7 0 15 -7t17.5 -21.5t16.5 -27.5t17.5 -36t15.5 -35.5t15 -36.5t12 -29q202 -490 303 -716q35 -81 35 -114q0 -13 -7 -20.5t-30 -9.5l-174 2 q-16 0 -26 2t-20.5 13.5t-14.5 32.5q-7 21 -37 21q-37 0 -110.5 -2.5t-110.5 -2.5q-5 0 -16 0.5t-16 0.5q-56 0 -81 -47q-15 -25 -84 -25l-131 2q-25 0 -33 7.5t-8 20.5zM160 1325q0 21 80 21q9 0 24 -0.5t21 -0.5h19.5h20.5t18.5 -0.5t20 -2t17.5 -3.5t18 -5.5t15.5 -8.5 t15.5 -11q5 -6 17 -17.5t21 -20.5l21.5 -21.5t22 -23t19.5 -22.5t16.5 -21t11 -18t4.5 -15q0 -10 -5.5 -18t-14.5 -11.5t-21 -3.5h-101q-21 0 -39 5t-30.5 13t-32.5 24q-77 57 -130 116q-29 21 -29 45zM415 280q0 -5 1.5 -9t4.5 -6.5t7.5 -4t11.5 -2.5l118 2q12 0 20 8.5 t3 23.5l-50 165q-8 26 -14 35.5t-13 4t-17 -28.5l-66 -164q-6 -13 -6 -24z" />
<glyph unicode="&#xe1;" horiz-adv-x="998" d="M48 25q0 11 4.5 24.5t13.5 32.5t11 25q31 73 164.5 381.5t202.5 475.5q0 2 2 7q7 18 11.5 28t12 24.5t15 22t15.5 7.5q7 0 15 -7t17.5 -21.5t16.5 -27.5t17.5 -36t15.5 -35.5t15 -36.5t12 -29q202 -490 303 -716q35 -81 35 -114q0 -13 -7 -20.5t-30 -9.5l-174 2 q-16 0 -26 2t-20.5 13.5t-14.5 32.5q-7 21 -37 21q-37 0 -110.5 -2.5t-110.5 -2.5q-5 0 -16 0.5t-16 0.5q-56 0 -81 -47q-15 -25 -84 -25l-131 2q-25 0 -33 7.5t-8 20.5zM415 280q0 -5 1.5 -9t4.5 -6.5t7.5 -4t11.5 -2.5l118 2q12 0 20 8.5t3 23.5l-50 165q-8 26 -14 35.5 t-13 4t-17 -28.5l-66 -164q-6 -13 -6 -24zM439 1165q0 9 9 24.5t25.5 35.5t32 37.5t36 40t29.5 32.5t23.5 15.5t26 6.5t31.5 2t28 1q16 0 27 -0.5t29 -2.5t29.5 -5t24 -7.5t18.5 -12t6 -17.5q0 -21 -50.5 -71.5t-90.5 -76.5q-72 -47 -144 -47q-21 0 -42 6t-34.5 16.5 t-13.5 22.5z" />
<glyph unicode="&#xe2;" horiz-adv-x="998" d="M48 25q0 11 4.5 24.5t13.5 32.5t11 25q31 73 164.5 381.5t202.5 475.5q0 2 2 7q7 18 11.5 28t12 24.5t15 22t15.5 7.5q7 0 15 -7t17.5 -21.5t16.5 -27.5t17.5 -36t15.5 -35.5t15 -36.5t12 -29q202 -490 303 -716q35 -81 35 -114q0 -13 -7 -20.5t-30 -9.5l-174 2 q-16 0 -26 2t-20.5 13.5t-14.5 32.5q-7 21 -37 21q-37 0 -110.5 -2.5t-110.5 -2.5q-5 0 -16 0.5t-16 0.5q-56 0 -81 -47q-15 -25 -84 -25l-131 2q-25 0 -33 7.5t-8 20.5zM255 1154q0 15 33 46t75 59t79.5 49.5t46.5 21.5q25 0 84 -33.5t111.5 -74t65.5 -62.5l4 -4t5 -5.5 t2 -4.5q0 -23 -12.5 -32t-26.5 -9q-33 0 -108 27t-117 27q-4 0 -21 -4t-42 -11t-49.5 -13.5t-53 -14.5t-42.5 -12q-34 11 -34 50zM415 280q0 -5 1.5 -9t4.5 -6.5t7.5 -4t11.5 -2.5l118 2q12 0 20 8.5t3 23.5l-50 165q-8 26 -14 35.5t-13 4t-17 -28.5l-66 -164q-6 -13 -6 -24 z" />
<glyph unicode="&#xe3;" horiz-adv-x="998" d="M48 25q0 11 4.5 24.5t13.5 32.5t11 25q31 73 164.5 381.5t202.5 475.5q0 2 2 7q7 18 11.5 28t12 24.5t15 22t15.5 7.5q7 0 15 -7t17.5 -21.5t16.5 -27.5t17.5 -36t15.5 -35.5t15 -36.5t12 -29q202 -490 303 -716q35 -81 35 -114q0 -13 -7 -20.5t-30 -9.5l-174 2 q-16 0 -26 2t-20.5 13.5t-14.5 32.5q-7 21 -37 21q-37 0 -110.5 -2.5t-110.5 -2.5q-5 0 -16 0.5t-16 0.5q-56 0 -81 -47q-15 -25 -84 -25l-131 2q-25 0 -33 7.5t-8 20.5zM269 1199q0 36 31.5 69t66 50t53.5 17q30 0 65.5 -17t68 -34.5t54.5 -17.5q12 0 29.5 7t34.5 13.5 t28 6.5q26 0 47.5 -15.5t21.5 -40.5q0 -29 -27.5 -59.5t-68 -49.5t-75.5 -19q-5 2 -23.5 8t-34 13.5t-26.5 16.5q-44 37 -86 37q-15 0 -49.5 -17.5t-49.5 -17.5q-22 0 -41 15t-19 35zM415 280q0 -5 1.5 -9t4.5 -6.5t7.5 -4t11.5 -2.5l118 2q12 0 20 8.5t3 23.5l-50 165 q-8 26 -14 35.5t-13 4t-17 -28.5l-66 -164q-6 -13 -6 -24z" />
<glyph unicode="&#xe4;" horiz-adv-x="998" d="M48 25q0 11 4.5 24.5t13.5 32.5t11 25q31 73 164.5 381.5t202.5 475.5q0 2 2 7q7 18 11.5 28t12 24.5t15 22t15.5 7.5q7 0 15 -7t17.5 -21.5t16.5 -27.5t17.5 -36t15.5 -35.5t15 -36.5t12 -29q202 -490 303 -716q35 -81 35 -114q0 -13 -7 -20.5t-30 -9.5l-174 2 q-16 0 -26 2t-20.5 13.5t-14.5 32.5q-7 21 -37 21q-37 0 -110.5 -2.5t-110.5 -2.5q-5 0 -16 0.5t-16 0.5q-56 0 -81 -47q-15 -25 -84 -25l-131 2q-25 0 -33 7.5t-8 20.5zM195 1211q0 60 36.5 104t89.5 44q60 0 113 -43.5t53 -99.5q0 -20 -7 -38.5t-20 -33t-30.5 -25t-39 -16 t-44.5 -5.5q-3 0 -7.5 -1t-5.5 -1q-46 0 -92 34t-46 81zM415 280q0 -5 1.5 -9t4.5 -6.5t7.5 -4t11.5 -2.5l118 2q12 0 20 8.5t3 23.5l-50 165q-8 26 -14 35.5t-13 4t-17 -28.5l-66 -164q-6 -13 -6 -24zM514 1211q0 60 36.5 104t89.5 44q60 0 113 -43.5t53 -99.5 q0 -25 -11 -47t-30.5 -37.5t-45 -24.5t-54.5 -9q-3 0 -7.5 -1t-5.5 -1q-46 0 -92 34t-46 81z" />
<glyph unicode="&#xe5;" horiz-adv-x="998" d="M48 25q0 11 4.5 24.5t13.5 32.5t11 25q31 73 164.5 381.5t202.5 475.5q0 2 2 7q7 18 11.5 28t12 24.5t15 22t15.5 7.5q7 0 15 -7t17.5 -21.5t16.5 -27.5t17.5 -36t15.5 -35.5t15 -36.5t12 -29q202 -490 303 -716q35 -81 35 -114q0 -13 -7 -20.5t-30 -9.5l-174 2 q-16 0 -26 2t-20.5 13.5t-14.5 32.5q-7 21 -37 21q-37 0 -110.5 -2.5t-110.5 -2.5q-5 0 -16 0.5t-16 0.5q-56 0 -81 -47q-15 -25 -84 -25l-131 2q-25 0 -33 7.5t-8 20.5zM266 1325q0 38 20.5 72.5t53 57.5t70.5 36.5t74 13.5q56 0 112 -29.5t91 -76.5t35 -94 q0 -72 -61.5 -125t-155.5 -53q-56 0 -110.5 24t-91.5 70.5t-37 103.5zM415 280q0 -5 1.5 -9t4.5 -6.5t7.5 -4t11.5 -2.5l118 2q12 0 20 8.5t3 23.5l-50 165q-8 26 -14 35.5t-13 4t-17 -28.5l-66 -164q-6 -13 -6 -24zM436 1311q0 -51 54 -51q13 4 22 8t20.5 12t17.5 20t6 28 q0 20 -18 32t-41 12q-15 0 -29 -7.5t-23 -21.5t-9 -32z" />
<glyph unicode="&#xe6;" horiz-adv-x="1521" d="M34 37q0 5 2.5 12t7.5 15t9 14t11 15t10 13q52 72 284.5 399t363.5 498q22 28 46.5 40t64.5 12q17 0 50 -2t49 -2q23 0 67.5 1t66.5 1v-3h254q30 0 47 -6t26 -20.5t11.5 -32.5t2.5 -50t-2 -46t-11.5 -26t-28.5 -15t-55 -3q-38 -2 -114 -4t-113 -4q-27 -1 -35 -12t-8 -41 v-64.5t4 -41t7.5 -27.5t17 -12t25 -6t39.5 1h21q31 0 48.5 -0.5t40 -1.5t33.5 -2.5t25.5 -5t20.5 -8t14 -12t10.5 -16t6 -21.5t4 -27.5t0.5 -34.5q0 -22 -2.5 -34.5t-11 -24t-27 -16.5t-48.5 -5q-31 0 -91.5 -1.5t-91.5 -1.5q-28 0 -35 -9t-7 -38q0 -21 1 -64t1 -64 q0 -35 7.5 -43t45.5 -8q22 0 77.5 2.5t84.5 2.5q85 0 116 -21.5t31 -91.5v-21t-0.5 -18t-2 -16t-4 -12.5t-6 -10.5t-9 -7.5t-12.5 -6t-16.5 -3t-21.5 -1.5q-84 0 -249 -0.5t-246 -0.5q-24 0 -39.5 7.5t-22 19t-13 24.5t-11 24.5t-16 19t-28.5 7.5q-50 0 -150.5 4t-151.5 4 q-56 0 -86 -43q-18 -28 -29.5 -42t-26.5 -21t-25.5 -8t-37.5 -1h-8q-161 0 -161 45zM516 314q0 -22 58 -22q71 0 148 5q41 2 41 91q0 16 -2 48t-2 45q-5 0 -5 40q0 9 1 29.5t1 30.5q0 55 -7 55q-14 0 -18 -6q-10 -13 -55 -70.5t-63.5 -82.5t-46.5 -68t-44 -76q-6 -9 -6 -19z " />
<glyph unicode="&#xe7;" horiz-adv-x="1234" d="M98 517q0 114 40.5 212.5t115 171.5t185.5 115t245 42q125 -2 239 -35t192 -106q17 -12 17 -32q0 -35 -47 -83.5t-72 -48.5q-14 0 -32.5 8t-41.5 20.5t-35 18.5q-90 38 -178 38q-72 0 -132.5 -19.5t-101 -51t-69 -73t-41 -85t-12.5 -87.5q0 -77 27.5 -139.5t74.5 -101 t105.5 -59t122.5 -20.5q65 0 124.5 19t134.5 58q17 10 33 10q38 0 88 -52t50 -91q0 -18 -35.5 -46.5t-68.5 -45.5q-33 -16 -70.5 -28t-64.5 -18t-75 -15.5t-77 -16.5q-5 0 -8 -10q0 -8 13.5 -17t33.5 -19t39.5 -23t33.5 -37t14 -54q0 -32 -16.5 -56t-41 -37t-58 -21 t-61 -10.5t-57.5 -2.5q-11 0 -22 0.5t-27 2t-29 4t-25 7t-19 11.5t-7 15q0 20 19 30.5t46 14t54 7.5t46 16t19 33q0 17 -14 30.5t-31 21t-31 21t-14 30.5q0 7 3.5 23t3.5 19q0 7 -5 10t-21 6q-2 1 -3 1q-156 31 -262 100.5t-160 176.5t-54 248z" />
<glyph unicode="&#xe8;" horiz-adv-x="941" d="M158 1325q0 21 81 21q8 0 23.5 -0.5t21.5 -0.5h19h20.5t18.5 -0.5t20 -2t17.5 -3.5t18.5 -5.5t15 -8.5t15 -11q0 -1 27.5 -27.5t38 -38t30.5 -33.5t28.5 -36.5t8.5 -23.5q0 -10 -5 -18t-14 -11.5t-21 -3.5h-101q-31 0 -51.5 9t-51.5 33q-77 57 -129 116q-30 21 -30 45z M168 123v23q0 65 1 195t1 196v426q0 64 10.5 79.5t59.5 15.5q83 0 250.5 -1.5t253.5 -1.5q12 0 20 -0.5t15.5 -2.5t12.5 -3t9.5 -6.5t7 -8t4.5 -12.5t2.5 -15.5t1 -20.5t1 -24.5t0.5 -30.5v-16q0 -33 -11 -52.5t-43 -19.5q-48 0 -142.5 1.5t-153.5 1.5q-24 0 -24 -25v-161 q0 -22 33 -22q164 -3 240 -3q55 0 55 -71v-70q0 -17 -2 -28.5t-7.5 -20t-14.5 -13t-24 -6.5h-250q-18 0 -25 -7t-7 -25q0 -102 2 -154q0 -21 7 -28t28 -7q34 0 100 -2.5t99 -2.5q14 0 40 1t38 1q44 0 54.5 -17t10.5 -79q0 -31 -1 -48.5t-7 -32t-11.5 -20.5t-22.5 -10 t-31 -4.5t-46 -0.5q-160 0 -468 10q-17 0 -28 3t-18.5 11.5t-11.5 15.5t-5.5 24.5t-2 29.5t-0.5 39z" />
<glyph unicode="&#xe9;" horiz-adv-x="941" d="M168 123v23q0 65 1 195t1 196v426q0 64 10.5 79.5t59.5 15.5q83 0 250.5 -1.5t253.5 -1.5q12 0 20 -0.5t15.5 -2.5t12.5 -3t9.5 -6.5t7 -8t4.5 -12.5t2.5 -15.5t1 -20.5t1 -24.5t0.5 -30.5v-16q0 -33 -11 -52.5t-43 -19.5q-48 0 -142.5 1.5t-153.5 1.5q-24 0 -24 -25 v-161q0 -22 33 -22q164 -3 240 -3q55 0 55 -71v-70q0 -17 -2 -28.5t-7.5 -20t-14.5 -13t-24 -6.5h-250q-18 0 -25 -7t-7 -25q0 -102 2 -154q0 -21 7 -28t28 -7q34 0 100 -2.5t99 -2.5q14 0 40 1t38 1q44 0 54.5 -17t10.5 -79q0 -31 -1 -48.5t-7 -32t-11.5 -20.5t-22.5 -10 t-31 -4.5t-46 -0.5q-160 0 -468 10q-17 0 -28 3t-18.5 11.5t-11.5 15.5t-5.5 24.5t-2 29.5t-0.5 39zM436 1165q0 14 20 40.5t65.5 77t47.5 52.5q9 10 23.5 15.5t26.5 6.5t32 2t27 1q17 0 27.5 -0.5t28.5 -2.5t30 -5t24 -7.5t18.5 -12t6.5 -17.5q0 -21 -51 -71.5t-90 -76.5 q-73 -47 -145 -47q-33 0 -62 13.5t-29 31.5z" />
<glyph unicode="&#xea;" horiz-adv-x="941" d="M168 123v23q0 65 1 195t1 196v426q0 64 10.5 79.5t59.5 15.5q83 0 250.5 -1.5t253.5 -1.5q12 0 20 -0.5t15.5 -2.5t12.5 -3t9.5 -6.5t7 -8t4.5 -12.5t2.5 -15.5t1 -20.5t1 -24.5t0.5 -30.5v-16q0 -33 -11 -52.5t-43 -19.5q-48 0 -142.5 1.5t-153.5 1.5q-24 0 -24 -25 v-161q0 -22 33 -22q164 -3 240 -3q55 0 55 -71v-70q0 -17 -2 -28.5t-7.5 -20t-14.5 -13t-24 -6.5h-250q-18 0 -25 -7t-7 -25q0 -102 2 -154q0 -21 7 -28t28 -7q34 0 100 -2.5t99 -2.5q14 0 40 1t38 1q44 0 54.5 -17t10.5 -79q0 -31 -1 -48.5t-7 -32t-11.5 -20.5t-22.5 -10 t-31 -4.5t-46 -0.5q-160 0 -468 10q-17 0 -28 3t-18.5 11.5t-11.5 15.5t-5.5 24.5t-2 29.5t-0.5 39zM250 1154q0 20 53.5 64t110.5 78t70 34q25 0 84 -33.5t111.5 -74t65.5 -62.5q1 0 6 -5.5t5 -8.5q0 -23 -13 -32t-26 -9q-33 0 -108 27t-117 27q-7 0 -42 -9.5t-94 -26 t-72 -19.5q-34 11 -34 50z" />
<glyph unicode="&#xeb;" horiz-adv-x="941" d="M168 123v23q0 65 1 195t1 196v426q0 64 10.5 79.5t59.5 15.5q83 0 250.5 -1.5t253.5 -1.5q12 0 20 -0.5t15.5 -2.5t12.5 -3t9.5 -6.5t7 -8t4.5 -12.5t2.5 -15.5t1 -20.5t1 -24.5t0.5 -30.5v-16q0 -33 -11 -52.5t-43 -19.5q-48 0 -142.5 1.5t-153.5 1.5q-24 0 -24 -25 v-161q0 -22 33 -22q164 -3 240 -3q55 0 55 -71v-70q0 -17 -2 -28.5t-7.5 -20t-14.5 -13t-24 -6.5h-250q-18 0 -25 -7t-7 -25q0 -102 2 -154q0 -21 7 -28t28 -7q34 0 100 -2.5t99 -2.5q14 0 40 1t38 1q44 0 54.5 -17t10.5 -79q0 -31 -1 -48.5t-7 -32t-11.5 -20.5t-22.5 -10 t-31 -4.5t-46 -0.5q-160 0 -468 10q-17 0 -28 3t-18.5 11.5t-11.5 15.5t-5.5 24.5t-2 29.5t-0.5 39zM191 1211q0 60 37 104t89 44q60 0 113.5 -43.5t53.5 -99.5q0 -25 -11.5 -47t-30.5 -37.5t-45 -24.5t-54 -9q-3 0 -8 -1t-6 -1q-46 0 -92 34t-46 81zM511 1211 q0 60 36.5 104t88.5 44q60 0 113.5 -43.5t53.5 -99.5q0 -25 -11.5 -47t-30.5 -37.5t-45 -24.5t-54 -9q-3 0 -7.5 -1t-5.5 -1q-47 0 -92.5 34t-45.5 81z" />
<glyph unicode="&#xec;" horiz-adv-x="590" d="M-43 1325q0 21 80 21q9 0 24 -0.5t21 -0.5h19h20.5t18.5 -0.5t20 -2t17.5 -3.5t18.5 -5.5t15.5 -8.5t14.5 -11q1 -1 28 -27.5t38 -38t30.5 -33.5t28 -36.5t8.5 -23.5q0 -16 -11 -24.5t-29 -8.5h-101q-22 0 -39.5 5t-30 13t-32.5 24q-75 55 -129 116q-30 21 -30 45z M170 125v501v316q0 25 2.5 44t5.5 31.5t11.5 21t14.5 12.5t19.5 6t22 2.5t26.5 0.5q11 -1 17 -1q25 0 40 -0.5t34 -3.5t29.5 -9t20.5 -16.5t14 -26.5t4 -39q0 -52 1 -206t1 -246q0 -77 -1 -212t-1 -179q0 -19 -0.5 -33.5t-3 -26.5t-4 -21t-7 -15.5t-8.5 -11t-12.5 -7.5 t-14.5 -4.5t-18.5 -2t-21 -1t-25.5 -0.5q-23 0 -36 0.5t-31 3t-28 7.5t-21 14t-17 22.5t-9.5 33.5t-3.5 46z" />
<glyph unicode="&#xed;" horiz-adv-x="590" d="M170 125v501v316q0 25 2.5 44t5.5 31.5t11.5 21t14.5 12.5t19.5 6t22 2.5t26.5 0.5q11 -1 17 -1q25 0 40 -0.5t34 -3.5t29.5 -9t20.5 -16.5t14 -26.5t4 -39q0 -52 1 -206t1 -246q0 -77 -1 -212t-1 -179q0 -19 -0.5 -33.5t-3 -26.5t-4 -21t-7 -15.5t-8.5 -11t-12.5 -7.5 t-14.5 -4.5t-18.5 -2t-21 -1t-25.5 -0.5q-23 0 -36 0.5t-31 3t-28 7.5t-21 14t-17 22.5t-9.5 33.5t-3.5 46zM235 1165q0 14 20 40.5t65.5 77t47.5 52.5q9 10 24 15.5t26.5 6.5t31.5 2t27 1q17 0 27.5 -0.5t28.5 -2.5t29.5 -5t24 -7.5t18.5 -12t6 -17.5q0 -14 -26 -44.5 t-58.5 -59t-56.5 -44.5q-72 -47 -144 -47q-33 0 -62 13.5t-29 31.5z" />
<glyph unicode="&#xee;" horiz-adv-x="590" d="M52 1154q0 20 53.5 64t110.5 78t69 34q39 0 140 -67.5t123 -102.5q1 -1 3.5 -4t4.5 -5.5t2 -4.5q0 -23 -12.5 -32t-26.5 -9q-33 0 -108.5 27t-116.5 27q-7 0 -42 -9.5t-94 -26t-73 -19.5q-33 11 -33 50zM170 125v501v316q0 25 2.5 44t5.5 31.5t11.5 21t14.5 12.5t19.5 6 t22 2.5t26.5 0.5q11 -1 17 -1q25 0 40 -0.5t34 -3.5t29.5 -9t20.5 -16.5t14 -26.5t4 -39q0 -52 1 -206t1 -246q0 -77 -1 -212t-1 -179q0 -19 -0.5 -33.5t-3 -26.5t-4 -21t-7 -15.5t-8.5 -11t-12.5 -7.5t-14.5 -4.5t-18.5 -2t-21 -1t-25.5 -0.5q-23 0 -36 0.5t-31 3t-28 7.5 t-21 14t-17 22.5t-9.5 33.5t-3.5 46z" />
<glyph unicode="&#xef;" horiz-adv-x="590" d="M-8 1211q0 60 36.5 104t88.5 44q60 0 113.5 -43.5t53.5 -99.5q0 -25 -11.5 -47t-30.5 -37.5t-45 -24.5t-54 -9q-3 0 -7.5 -1t-5.5 -1q-47 0 -92.5 34t-45.5 81zM170 125v501v316q0 25 2.5 44t5.5 31.5t11.5 21t14.5 12.5t19.5 6t22 2.5t26.5 0.5q11 -1 17 -1 q25 0 40 -0.5t34 -3.5t29.5 -9t20.5 -16.5t14 -26.5t4 -39q0 -52 1 -206t1 -246q0 -77 -1 -212t-1 -179q0 -19 -0.5 -33.5t-3 -26.5t-4 -21t-7 -15.5t-8.5 -11t-12.5 -7.5t-14.5 -4.5t-18.5 -2t-21 -1t-25.5 -0.5q-23 0 -36 0.5t-31 3t-28 7.5t-21 14t-17 22.5t-9.5 33.5 t-3.5 46zM311 1211q0 60 36.5 104t88.5 44q39 0 77.5 -19.5t64 -53t25.5 -70.5q0 -25 -11.5 -47t-30.5 -37.5t-45 -24.5t-54 -9q-3 0 -7.5 -1t-5.5 -1q-47 0 -92.5 34t-45.5 81z" />
<glyph unicode="&#xf0;" horiz-adv-x="1160" d="M107 576q0 26 9 42t35 23q29 2 29 46q0 46 -5 139.5t-5 132.5q0 98 69 102q30 2 168 14q64 -3 122.5 -10t125 -24t122 -42t108 -65t88.5 -91.5t58 -124t22 -159.5q0 -68 -14.5 -137.5t-44.5 -138t-83 -125.5t-123 -87q-83 -37 -185 -55.5t-202 -18.5q-105 0 -157 16 q-43 12 -54 25.5t-12 55.5q-7 148 -7 334q0 22 -9.5 36t-21 20t-21.5 19t-10 34q0 7 -1 19.5t-1 19.5zM429.5 694q-0.5 -11 2 -24t4 -16t8.5 -7t13 -4t21 -1q56 -1 107 -12q11 -3 18.5 -8.5t11 -10.5t5 -16.5t2 -16.5t0.5 -20q0 -23 -1.5 -37.5t-7.5 -24t-11 -14.5t-19 -7.5 t-24.5 -2.5t-35 -0.5t-42.5 -1.5q-17 -2 -27.5 -11t-15 -27.5t-5.5 -33.5t-1 -41.5t-1 -37.5v-37q0 -99 45 -99q64 0 119 23.5t96.5 68t65.5 114.5t24 157q0 67 -17 132t-56.5 119t-94.5 70q-90 16 -132 16q-17 0 -28 -12t-15.5 -34t-6 -41.5t-1.5 -46.5v-17q0 -27 -0.5 -38 z" />
<glyph unicode="&#xf1;" horiz-adv-x="1301" d="M160 994q0 49 23 49q7 0 18.5 -5t22.5 -12t18 -13q105 -88 309 -239.5t260 -195.5q8 -7 20 -15.5t19 -8.5q12 0 15.5 91t3.5 210t3 149q1 29 13 42t40 13q26 0 54.5 -0.5t63.5 -2t55 -1.5q14 -1 23.5 -8.5t13.5 -20.5t5.5 -25.5t1.5 -29.5v-29q0 -144 1 -433t1 -432 q0 -28 -6.5 -41.5t-25.5 -13.5q-17 0 -44 15.5t-47.5 31.5t-54.5 45.5t-43 36.5q-52 41 -143.5 116.5t-169.5 137t-150 109.5q-3 2 -8 2q-19 0 -19 -244v-193q0 -61 -22 -71.5t-142 -10.5h-6.5h-6h-6.5q-52 0 -70 14t-18 64v457q0 76 -1 230.5t-1 231.5zM410 1199 q0 36 31.5 69t66 50t53.5 17q30 0 66 -17t68 -34.5t54 -17.5q15 0 47 13.5t45 13.5q26 0 47.5 -15.5t21.5 -40.5q0 -29 -27.5 -59.5t-68 -49.5t-75.5 -19q-5 2 -17.5 6.5t-23 8t-23 10t-20.5 13.5q-44 37 -86 37q-15 0 -49.5 -17.5t-49.5 -17.5q-22 0 -41 15t-19 35z" />
<glyph unicode="&#xf2;" horiz-adv-x="1479" d="M89 524q0 58 13 116.5t37.5 115t64 107t90 90.5t118 67.5t144.5 35.5l194 22q188 -13 326.5 -79.5t217 -186t78.5 -280.5q0 -126 -42 -231t-133 -170q-97 -69 -215.5 -107.5t-244.5 -38.5q-71 0 -145 15.5t-146.5 44t-136.5 75t-113.5 104t-78 135.5t-28.5 165zM385 517 q0 -49 15.5 -94.5t46 -83.5t71.5 -66t94.5 -44t113.5 -16q71 0 137 23t116.5 64.5t81 104t30.5 135.5q0 69 -30.5 132t-82.5 105t-111 51q-16 2 -37.5 5.5l-43 7t-37.5 5.5q-172 0 -268 -90t-96 -239zM398 1325q0 21 81 21q8 0 23.5 -0.5t21.5 -0.5h17h18t16.5 -0.5t18 -1 t16.5 -2t16.5 -4t14.5 -5.5t14.5 -8t12.5 -10q1 -1 28 -27.5t38 -38t30.5 -33.5t28 -36.5t8.5 -23.5q0 -10 -5 -18t-14 -11.5t-21 -3.5h-101q-31 0 -51.5 9t-50.5 33q-78 57 -130 116q-30 21 -30 45z" />
<glyph unicode="&#xf3;" horiz-adv-x="1479" d="M89 524q0 58 13 116.5t37.5 115t64 107t90 90.5t118 67.5t144.5 35.5l194 22q188 -13 326.5 -79.5t217 -186t78.5 -280.5q0 -126 -42 -231t-133 -170q-97 -69 -215.5 -107.5t-244.5 -38.5q-71 0 -145 15.5t-146.5 44t-136.5 75t-113.5 104t-78 135.5t-28.5 165zM385 517 q0 -49 15.5 -94.5t46 -83.5t71.5 -66t94.5 -44t113.5 -16q71 0 137 23t116.5 64.5t81 104t30.5 135.5q0 69 -30.5 132t-82.5 105t-111 51q-16 2 -37.5 5.5l-43 7t-37.5 5.5q-172 0 -268 -90t-96 -239zM676 1165q0 14 20 40.5t65.5 77t47.5 52.5q9 10 24 15.5t26.5 6.5 t31.5 2t27 1q17 0 27.5 -0.5t28.5 -2.5t30 -5t24.5 -7.5t18.5 -12t6 -17.5t-15.5 -31t-37.5 -43t-46 -42.5t-42 -31.5q-72 -47 -144 -47q-33 0 -62.5 13.5t-29.5 31.5z" />
<glyph unicode="&#xf4;" horiz-adv-x="1479" d="M89 524q0 58 13 116.5t37.5 115t64 107t90 90.5t118 67.5t144.5 35.5l194 22q188 -13 326.5 -79.5t217 -186t78.5 -280.5q0 -126 -42 -231t-133 -170q-97 -69 -215.5 -107.5t-244.5 -38.5q-71 0 -145 15.5t-146.5 44t-136.5 75t-113.5 104t-78 135.5t-28.5 165zM385 517 q0 -49 15.5 -94.5t46 -83.5t71.5 -66t94.5 -44t113.5 -16q71 0 137 23t116.5 64.5t81 104t30.5 135.5q0 69 -30.5 132t-82.5 105t-111 51q-16 2 -37.5 5.5l-43 7t-37.5 5.5q-172 0 -268 -90t-96 -239zM494 1154q0 15 33 46t74.5 59t79 49.5t46.5 21.5q26 0 84.5 -33.5 t111.5 -74t66 -62.5l5.5 -5.5t5.5 -8.5q0 -23 -13 -32t-27 -9q-33 0 -108 27t-116 27q-7 0 -42 -9.5t-94.5 -26t-72.5 -19.5q-33 11 -33 50z" />
<glyph unicode="&#xf5;" horiz-adv-x="1479" d="M89 524q0 58 13 116.5t37.5 115t64 107t90 90.5t118 67.5t144.5 35.5l194 22q188 -13 326.5 -79.5t217 -186t78.5 -280.5q0 -126 -42 -231t-133 -170q-97 -69 -215.5 -107.5t-244.5 -38.5q-71 0 -145 15.5t-146.5 44t-136.5 75t-113.5 104t-78 135.5t-28.5 165zM385 517 q0 -49 15.5 -94.5t46 -83.5t71.5 -66t94.5 -44t113.5 -16q71 0 137 23t116.5 64.5t81 104t30.5 135.5q0 69 -30.5 132t-82.5 105t-111 51q-16 2 -37.5 5.5l-43 7t-37.5 5.5q-172 0 -268 -90t-96 -239zM507 1199q0 36 31.5 69t66 50t53.5 17q31 0 66.5 -17t67.5 -34.5 t54 -17.5q13 0 30.5 7t34.5 13.5t28 6.5q16 0 31.5 -6.5t26.5 -19.5t11 -30q0 -44 -58 -86t-114 -42q-5 2 -17 6.5t-22.5 8t-23 10t-20.5 13.5q-45 37 -86 37q-16 0 -50 -17.5t-50 -17.5q-14 0 -28 6.5t-23 18.5t-9 25z" />
<glyph unicode="&#xf6;" horiz-adv-x="1479" d="M89 524q0 58 13 116.5t37.5 115t64 107t90 90.5t118 67.5t144.5 35.5l194 22q188 -13 326.5 -79.5t217 -186t78.5 -280.5q0 -126 -42 -231t-133 -170q-97 -69 -215.5 -107.5t-244.5 -38.5q-71 0 -145 15.5t-146.5 44t-136.5 75t-113.5 104t-78 135.5t-28.5 165zM385 517 q0 -49 15.5 -94.5t46 -83.5t71.5 -66t94.5 -44t113.5 -16q71 0 137 23t116.5 64.5t81 104t30.5 135.5q0 69 -30.5 132t-82.5 105t-111 51q-16 2 -37.5 5.5l-43 7t-37.5 5.5q-172 0 -268 -90t-96 -239zM433 1211q0 60 37 104t89 44q39 0 77.5 -19.5t64 -53t25.5 -70.5 q0 -25 -11.5 -47t-30.5 -37.5t-45 -24.5t-54 -9q-3 0 -8 -1t-6 -1q-47 0 -92.5 34t-45.5 81zM753 1211q0 60 36.5 104t88.5 44q60 0 113.5 -43.5t53.5 -99.5q0 -34 -19.5 -61t-51.5 -42t-70 -15q-3 0 -8 -1t-6 -1q-46 0 -91.5 34t-45.5 81z" />
<glyph unicode="&#xf7;" horiz-adv-x="815" d="M106 311q0 27 3.5 41t17 22t29.5 9.5t52 1.5q72 0 217 -2.5t220 -2.5q47 0 60.5 -22t13.5 -78q0 -21 -3 -33.5t-13 -20t-25.5 -9.5t-44.5 -2h-218q-20 0 -73.5 -2.5t-81.5 -2.5q-88 0 -121 19.5t-33 81.5zM289 74q0 43 36.5 79t79.5 36q55 0 91 -35.5t36 -81.5 q0 -36 -41 -70t-86 -34q-23 3 -48 14t-46.5 35.5t-21.5 56.5zM294 505q0 47 35.5 85t69.5 38q40 0 70.5 -19t45 -46t14.5 -54q0 -43 -34 -75.5t-80 -32.5q-48 0 -84.5 27.5t-36.5 76.5z" />
<glyph unicode="&#xf8;" horiz-adv-x="1479" d="M89 544q0 114 56 220.5t151 181t209 100.5q113 27 272 27q6 0 19 -0.5t18 -0.5q16 0 28 9.5t20.5 23t18 27.5t26 23.5t38.5 9.5q17 -1 47 -1t51.5 -1t43.5 -4.5t34 -14.5t12 -29q0 -14 -6 -27q-29 -56 -29 -77q0 -16 11 -27t27 -18t43 -25t50 -44q149 -164 149 -370 q0 -98 -38.5 -186t-103.5 -153t-149 -110t-177 -63q-20 -4 -43.5 -5.5t-52.5 -2.5t-45 -2v3h-65q-27 0 -41 -1.5t-26 -9t-19.5 -19.5t-18.5 -35q-14 -32 -37.5 -41t-66.5 -9h-25t-26.5 0.5t-27 2t-24.5 3.5t-22.5 5.5t-17.5 8t-12 11t-4 14.5q0 20 21 64.5t21 59.5 q0 16 -23.5 34.5t-58 39.5t-46.5 32q-69 64 -115 165.5t-46 210.5zM390 526q1 -62 16.5 -110.5t61.5 -98.5q5 -6 13 -6q11 0 32.5 33t49.5 92t54 116t57.5 128.5t47.5 107.5q2 5 4.5 12.5t4 14t1.5 10.5q0 23 -30 23q-100 -9 -171 -52t-106 -111.5t-35 -158.5zM744 247 q0 -8 5.5 -11.5t11.5 -4.5t20 -1q124 0 212.5 92.5t88.5 228.5q-1 1 -3 15t-3.5 24t-5 28t-7.5 32.5t-9 32t-11.5 30t-14.5 24t-17.5 17t-19.5 5.5q-23 0 -89 -146l-5 -10q-13 -28 -40 -83.5t-44 -91t-36.5 -84.5t-31.5 -89q-1 -3 -1 -8z" />
<glyph unicode="&#xf9;" horiz-adv-x="1097" d="M160 462q0 86 5 271.5t5 270.5q2 39 18 47t72 8h46t36 -1t30.5 -3.5t22 -7.5t17 -11.5t10 -17t7 -24t1.5 -31.5q0 -96 -3.5 -277t-3.5 -263q0 -25 0.5 -42t3 -40.5t6.5 -39.5t12.5 -33t19.5 -27.5t28 -17.5t39 -7q81 0 110.5 37.5t29.5 127.5q0 2 -1 47t-1 79q0 95 3 251 t3 245q0 58 64 58q28 0 79 -1t78 -1q11 0 18.5 -3t12 -11t7.5 -15t4 -19.5t1.5 -20.5t0.5 -22q0 -89 1.5 -280t1.5 -278q0 -76 -8 -132t-28 -107t-58 -87t-94 -59q-101 -41 -202 -41q-59 0 -111 8.5t-99.5 30t-83 54t-59 82.5t-30.5 113q-11 109 -11 190zM210 1325 q0 21 80 21q9 0 24.5 -0.5t21.5 -0.5h17.5h18t17 -0.5t17.5 -1t16 -2t16.5 -4t14.5 -5.5t15 -8t13 -10q0 -1 27.5 -27.5t38 -38t30 -33.5t28 -36.5t8.5 -23.5q0 -16 -11 -24.5t-30 -8.5h-100q-32 0 -52 9t-50 33q-78 57 -130 116q-30 21 -30 45z" />
<glyph unicode="&#xfa;" horiz-adv-x="1097" d="M160 462q0 86 5 271.5t5 270.5q2 39 18 47t72 8h46t36 -1t30.5 -3.5t22 -7.5t17 -11.5t10 -17t7 -24t1.5 -31.5q0 -96 -3.5 -277t-3.5 -263q0 -25 0.5 -42t3 -40.5t6.5 -39.5t12.5 -33t19.5 -27.5t28 -17.5t39 -7q81 0 110.5 37.5t29.5 127.5q0 2 -1 47t-1 79q0 95 3 251 t3 245q0 58 64 58q28 0 79 -1t78 -1q11 0 18.5 -3t12 -11t7.5 -15t4 -19.5t1.5 -20.5t0.5 -22q0 -89 1.5 -280t1.5 -278q0 -76 -8 -132t-28 -107t-58 -87t-94 -59q-101 -41 -202 -41q-59 0 -111 8.5t-99.5 30t-83 54t-59 82.5t-30.5 113q-11 109 -11 190zM489 1165 q0 14 19.5 40.5t65.5 77t48 52.5q8 10 23 15.5t26.5 6.5t31.5 2t28 1q16 0 26.5 -0.5t29 -2.5t30 -5t24 -7.5t18.5 -12t6 -17.5q0 -8 -10 -23.5t-26 -33t-35 -35t-37.5 -32.5t-32.5 -24q-72 -47 -144 -47q-33 0 -62 13.5t-29 31.5z" />
<glyph unicode="&#xfb;" horiz-adv-x="1097" d="M160 462q0 86 5 271.5t5 270.5q2 39 18 47t72 8h46t36 -1t30.5 -3.5t22 -7.5t17 -11.5t10 -17t7 -24t1.5 -31.5q0 -96 -3.5 -277t-3.5 -263q0 -25 0.5 -42t3 -40.5t6.5 -39.5t12.5 -33t19.5 -27.5t28 -17.5t39 -7q81 0 110.5 37.5t29.5 127.5q0 2 -1 47t-1 79q0 95 3 251 t3 245q0 58 64 58q28 0 79 -1t78 -1q11 0 18.5 -3t12 -11t7.5 -15t4 -19.5t1.5 -20.5t0.5 -22q0 -89 1.5 -280t1.5 -278q0 -76 -8 -132t-28 -107t-58 -87t-94 -59q-101 -41 -202 -41q-59 0 -111 8.5t-99.5 30t-83 54t-59 82.5t-30.5 113q-11 109 -11 190zM304 1154 q0 20 53.5 64t110 78t69.5 34q39 0 140 -67.5t123 -102.5q1 -1 3.5 -4t4 -5.5t1.5 -4.5q0 -23 -12.5 -32t-25.5 -9q-33 0 -108 27t-117 27q-6 0 -41.5 -9.5t-94.5 -26t-72 -19.5q-34 11 -34 50z" />
<glyph unicode="&#xfc;" horiz-adv-x="1097" d="M160 462q0 86 5 271.5t5 270.5q2 39 18 47t72 8h46t36 -1t30.5 -3.5t22 -7.5t17 -11.5t10 -17t7 -24t1.5 -31.5q0 -96 -3.5 -277t-3.5 -263q0 -25 0.5 -42t3 -40.5t6.5 -39.5t12.5 -33t19.5 -27.5t28 -17.5t39 -7q81 0 110.5 37.5t29.5 127.5q0 2 -1 47t-1 79q0 95 3 251 t3 245q0 58 64 58q28 0 79 -1t78 -1q11 0 18.5 -3t12 -11t7.5 -15t4 -19.5t1.5 -20.5t0.5 -22q0 -89 1.5 -280t1.5 -278q0 -76 -8 -132t-28 -107t-58 -87t-94 -59q-101 -41 -202 -41q-59 0 -111 8.5t-99.5 30t-83 54t-59 82.5t-30.5 113q-11 109 -11 190zM244 1211 q0 60 36.5 104t89.5 44q60 0 112.5 -43.5t52.5 -99.5q0 -25 -11 -47t-30 -37.5t-45 -24.5t-55 -9q-2 0 -6.5 -1t-6.5 -1q-46 0 -91.5 34t-45.5 81zM563 1211q0 39 16.5 73t45.5 54.5t64 20.5q60 0 112.5 -43.5t52.5 -99.5q0 -25 -11 -47t-30 -37.5t-45 -24.5t-55 -9 q-2 0 -6.5 -1t-6.5 -1q-46 0 -91.5 34t-45.5 81z" />
<glyph unicode="&#xfd;" horiz-adv-x="1017" d="M52 1036q0 18 12 22t47 3h17l127 -2q25 -1 38.5 -6.5t20.5 -14t15 -27.5q7 -13 52 -103t77.5 -145.5t44.5 -55.5q15 0 35 32t47.5 91.5t31.5 66.5q6 12 17.5 37t20.5 43.5t21 38.5t24 31t24 11q30 0 89 0.5t89 0.5q52 0 52 -23q0 -31 -37 -91q-36 -70 -78.5 -151 t-90.5 -173.5t-78 -150.5q-32 -61 -32 -206q0 -24 1 -69.5t1 -68.5q0 -21 -0.5 -34.5t-3 -27.5t-3.5 -22t-7.5 -16t-10 -12t-16.5 -7.5t-20.5 -4.5t-27.5 -2.5t-33 -1.5h-42h-6q-26 0 -41 1.5t-28 6.5t-19 12t-10 23t-5 34t-1 50q0 100 -4 100q0 24 1 72.5t1 72.5 q0 57 -28 109q-172 312 -282 547q-2 5 -2 10zM462 1165q0 14 19.5 40.5t65.5 77t47 52.5q8 8 18 13t22 7t22.5 3t25 1.5t22.5 0.5q134 -4 134 -45q0 -21 -50.5 -71.5t-90.5 -76.5q-72 -47 -144 -47q-33 0 -62 13.5t-29 31.5z" />
<glyph unicode="&#xfe;" horiz-adv-x="952" d="M144 123q0 67 1 206t1 208q0 76 -1 228.5t-1 228.5q0 21 5 35t11 21.5t21 11t26 4t35 0.5h16q24 0 39 -0.5t36 -2.5t34.5 -6t26.5 -11t19.5 -18.5t6.5 -26.5q0 -5 -1 -20t-1 -22q0 -72 34 -77q146 -25 179 -32q127 -30 195.5 -120t68.5 -231q0 -138 -88 -230t-241 -111 q-11 -1 -34.5 -2t-38.5 -3t-32.5 -6t-26.5 -14t-11 -26q-1 -8 -1.5 -25t-1.5 -28t-4.5 -23.5t-12.5 -19t-23 -6.5q-45 -2 -141 -2q-31 0 -46 3t-28 15t-17 36t-4 66zM413 514q1 -10 1.5 -29t1 -31t2 -28.5t4 -27t7 -21t12 -15t17.5 -4.5q66 0 106 47t40 114q0 68 -41 105.5 t-110 37.5q-12 0 -20 -9.5t-11.5 -28.5t-5 -34.5t-2 -41t-1.5 -34.5z" />
<glyph unicode="&#xff;" horiz-adv-x="1017" d="M52 1036q0 18 12 22t47 3h17l127 -2q25 -1 38.5 -6.5t20.5 -14t15 -27.5q7 -13 52 -103t77.5 -145.5t44.5 -55.5q15 0 35 32t47.5 91.5t31.5 66.5q6 12 17.5 37t20.5 43.5t21 38.5t24 31t24 11q30 0 89 0.5t89 0.5q52 0 52 -23q0 -31 -37 -91q-36 -70 -78.5 -151 t-90.5 -173.5t-78 -150.5q-32 -61 -32 -206q0 -24 1 -69.5t1 -68.5q0 -21 -0.5 -34.5t-3 -27.5t-3.5 -22t-7.5 -16t-10 -12t-16.5 -7.5t-20.5 -4.5t-27.5 -2.5t-33 -1.5h-42h-6q-26 0 -41 1.5t-28 6.5t-19 12t-10 23t-5 34t-1 50q0 100 -4 100q0 24 1 72.5t1 72.5 q0 57 -28 109q-172 312 -282 547q-2 5 -2 10zM218 1211q0 60 37 104t89 44q60 0 113.5 -43.5t53.5 -99.5q0 -20 -7.5 -38.5t-20.5 -33t-30.5 -25t-38.5 -16t-44 -5.5q-3 0 -8 -1t-6 -1q-46 0 -92 34t-46 81zM537 1211q0 39 16.5 73t46 54.5t63.5 20.5q39 0 77.5 -19.5 t64 -53t25.5 -70.5q0 -25 -11.5 -47t-30.5 -37.5t-45 -24.5t-54 -9q-3 0 -8 -1t-6 -1q-46 0 -92 34t-46 81z" />
<glyph unicode="&#x152;" horiz-adv-x="2006" d="M93 601q0 100 32 197.5t96.5 180t151.5 126.5q185 92 372 92q115 0 204.5 -11.5t165.5 -46.5q6 -2 17.5 -7.5t18.5 -9t15.5 -6t12.5 -2.5q7 0 15.5 10.5t17.5 23t26 23t38 10.5h517q19 0 32.5 -3t23.5 -7t16 -14t10 -18.5t5.5 -26.5t2 -32t0.5 -40q0 -30 -16.5 -43.5 t-73.5 -19.5q-177 -3 -265 -6q-26 0 -34.5 -6.5t-9.5 -30.5q-1 -39 -1 -115v-45t2.5 -30.5t6.5 -22t13 -11t20.5 -6t30.5 -0.5q10 0 34 0.5t39 0.5q34 0 56 -0.5t50 -4.5t44.5 -11t28.5 -20t12 -31q0 -7 1 -23t1 -24q0 -22 -0.5 -32t-3 -23.5t-8 -18t-16.5 -10.5t-27.5 -7 t-40.5 -1q-31 0 -92.5 -1t-93.5 -1q-15 0 -26.5 -8t-18 -24t-10.5 -30.5t-5.5 -38.5t-2 -37t0.5 -35v-12q0 -22 1 -37t5 -31t13.5 -24t23.5 -8q46 0 137 -1t135 -1q23 -1 37 -3.5t24.5 -9.5t15.5 -14.5t8.5 -24.5t4 -33.5t0.5 -47.5q0 -39 -18 -54.5t-77 -15.5h-235h-252 q-24 0 -40.5 3t-33 15.5t-25.5 35.5q-1 3 -8 6.5t-13 3.5q-9 0 -21.5 -4.5t-22 -8.5t-25.5 -11.5t-21 -9.5q-123 -53 -277 -53q-156 0 -290 44.5t-229 124.5t-148.5 195.5t-53.5 252.5zM381 585q0 -104 52.5 -190t146 -135.5t208.5 -49.5q79 0 155 27t136.5 75.5t97.5 122.5 t37 159q0 137 -71 234t-193 126q-23 5 -71 10t-73 10q-64 -2 -119.5 -14.5t-98.5 -33.5t-77.5 -49.5t-58.5 -62t-40 -72t-23.5 -77.5t-7.5 -80z" />
<glyph unicode="&#x153;" horiz-adv-x="1840" d="M91 527q0 58 14.5 117t43 117.5t76.5 111t110 87.5q185 106 391 106q128 0 242 -53q26 -15 56 -15q18 0 27 13q18 32 69 32q83 0 249 -1t250 -1q17 0 30 -1.5t22.5 -5t16.5 -9t11 -13.5t6.5 -18t3.5 -22t1 -27v-33v-24q-1 -12 -5 -20.5t-12.5 -13.5t-14.5 -7.5 t-20.5 -3.5t-20.5 -1.5t-23 -0.5q-41 0 -124 -3t-123 -3q-25 0 -32 -8t-7 -34q0 -21 2 -63.5t2 -64.5q0 -17 5 -24.5t14.5 -9t34.5 -1.5q19 0 60.5 0.5t63.5 0.5q32 0 55 -2t45 -8.5t34 -20.5t13 -34q2 -27 2 -82q0 -32 -23.5 -42.5t-76.5 -10.5q-32 0 -97.5 -1.5 t-97.5 -1.5q-20 0 -28 -8t-8 -29q0 -25 2 -74.5t2 -74.5q0 -20 7.5 -27.5t29.5 -7.5q41 0 128.5 -1t130.5 -1q24 0 41 -5.5t25 -13t12.5 -22t5 -24t-0.5 -28.5v-11v-29.5t-2 -21.5t-4 -16.5t-8 -11.5t-12 -8t-18 -3.5t-23.5 -2t-31.5 -0.5h-225q-23 0 -82.5 -2.5t-90.5 -2.5 q-126 0 -158 32q-12 10 -25 10q-16 0 -47 -13q-104 -45 -228 -45q-88 0 -172 17t-158 49t-135.5 79.5t-106 106.5t-69 133t-24.5 155zM361 517q0 -65 27.5 -125t77 -105t122.5 -72t157 -27q29 0 61.5 4t66.5 11.5t65 20.5t56 28.5t39.5 37t14.5 45.5q0 32 -1 96t-1 98v207 q0 31 -31 56.5t-78.5 39.5t-96 21t-91.5 7q-110 0 -197.5 -41t-139 -119.5t-51.5 -182.5z" />
<glyph unicode="&#x178;" horiz-adv-x="1086" d="M71 1142q0 10 3 16.5t6.5 9.5t13.5 4.5t13.5 1.5h17.5l125 -1q64 0 83 -48q28 -51 78 -160.5t84.5 -172t53.5 -61.5q6 0 23.5 35.5t35.5 79.5t23 67q16 47 61 121t57 99q11 21 26 31t33 12.5t52 2.5q159 0 159 -35q0 -27 -62 -149q-149 -266 -265 -483q-9 -16 -15 -33 t-8 -40.5t-2.5 -34t0 -41.5t0.5 -36q0 -42 -1 -126t-1 -122q0 -27 -6.5 -42.5t-24.5 -23t-38 -9.5t-57 -2h-41t-31.5 1.5t-25.5 4.5t-17 8.5t-12.5 14t-6 20t-2.5 28.5q0 38 -2.5 118.5t-2.5 119.5q0 17 0.5 49t0.5 47q0 64 -31 122q-50 92 -141 280t-126 255q-3 5 -9.5 18 t-10 20.5t-7 17.5t-3.5 16zM240 1345q0 60 37 104t89 44q60 0 113 -43t53 -99q0 -34 -19 -61.5t-51.5 -42.5t-70.5 -15q-3 0 -7.5 -0.5t-5.5 -0.5q-46 0 -92 33.5t-46 80.5zM559 1345q0 60 37 104t90 44q59 0 112 -43t53 -99q0 -26 -11 -48t-30 -37.5t-45 -24.5t-55 -9 q-3 0 -7.5 -0.5t-5.5 -0.5q-29 0 -60.5 14t-54.5 41t-23 59z" />
<glyph unicode="&#x2c6;" horiz-adv-x="934" d="M171 1144q0 20 54 64t110.5 78t69.5 34q26 0 84.5 -33t111 -74t66.5 -63q0 -1 1.5 -2.5l3 -3t2.5 -3t1.5 -3t0.5 -3.5q0 -23 -12 -31.5t-26 -8.5q-33 0 -108 27t-117 27q-6 0 -42.5 -10t-92 -25.5t-73.5 -20.5q-34 11 -34 51z" />
<glyph unicode="&#x2dc;" horiz-adv-x="683" d="M93 1213q0 36 31 69t65.5 50t54.5 17q30 0 65.5 -17.5t67.5 -34.5t54 -17q16 0 48 13t45 13q26 0 47.5 -15t21.5 -40q0 -44 -58 -86.5t-114 -42.5q-3 1 -8.5 3t-11.5 4t-13 4.5t-13.5 5.5l-13 6t-12.5 7t-11 8q-45 37 -86 37q-15 0 -49.5 -17.5t-49.5 -17.5 q-23 0 -41.5 15.5t-18.5 35.5z" />
<glyph unicode="&#x2000;" horiz-adv-x="752" />
<glyph unicode="&#x2001;" horiz-adv-x="1505" />
<glyph unicode="&#x2002;" horiz-adv-x="752" />
<glyph unicode="&#x2003;" horiz-adv-x="1505" />
<glyph unicode="&#x2004;" horiz-adv-x="501" />
<glyph unicode="&#x2005;" horiz-adv-x="376" />
<glyph unicode="&#x2006;" horiz-adv-x="250" />
<glyph unicode="&#x2007;" horiz-adv-x="250" />
<glyph unicode="&#x2008;" horiz-adv-x="188" />
<glyph unicode="&#x2009;" horiz-adv-x="301" />
<glyph unicode="&#x200a;" horiz-adv-x="83" />
<glyph unicode="&#x2010;" horiz-adv-x="800" d="M144 516q0 64 16.5 81.5t78.5 17.5q162 -2 162 -7h190q29 0 42 -6.5t20 -28t7 -66.5q0 -57 -15.5 -78t-68.5 -21q-55 0 -165 3.5t-166 3.5q-75 0 -88 12.5t-13 88.5z" />
<glyph unicode="&#x2011;" horiz-adv-x="800" d="M144 516q0 64 16.5 81.5t78.5 17.5q162 -2 162 -7h190q29 0 42 -6.5t20 -28t7 -66.5q0 -57 -15.5 -78t-68.5 -21q-55 0 -165 3.5t-166 3.5q-75 0 -88 12.5t-13 88.5z" />
<glyph unicode="&#x2012;" horiz-adv-x="800" d="M144 516q0 64 16.5 81.5t78.5 17.5q162 -2 162 -7h190q29 0 42 -6.5t20 -28t7 -66.5q0 -57 -15.5 -78t-68.5 -21q-55 0 -165 3.5t-166 3.5q-75 0 -88 12.5t-13 88.5z" />
<glyph unicode="&#x2013;" horiz-adv-x="1133" d="M143 586q0 73 43 79h190q127 0 193 -2h340q69 0 88 -18.5t19 -86.5q0 -20 -0.5 -31t-2 -22.5t-6 -17t-10 -11t-16.5 -7.5t-23.5 -3t-32.5 -1h-677q-22 0 -36.5 1.5t-26.5 4t-19 9.5t-12 14.5t-7.5 22t-3 30t-0.5 39.5z" />
<glyph unicode="&#x2014;" horiz-adv-x="1553" d="M143 586q0 75 43 81q366 0 734 -1t460 -1q71 0 90.5 -19.5t19.5 -91.5q0 -24 -0.5 -36.5t-4 -26t-8.5 -18.5t-16 -9.5t-25.5 -5.5t-38.5 -1h-1147q-22 0 -36.5 1.5t-27 4t-19.5 9.5t-12.5 15.5t-7.5 23.5t-3 32t-1 43z" />
<glyph unicode="&#x2018;" horiz-adv-x="597" d="M125 859q0 6 5 16q13 26 41 87.5t50.5 105t49.5 81.5q4 7 9.5 12.5t12.5 9.5t12 7t15.5 5t16 3t18.5 1t19 0.5t22.5 0t23.5 -0.5q37 0 57 -5.5t20 -22.5q0 -15 -5 -35.5t-11.5 -37t-15.5 -38.5t-13 -35q-8 -26 -22 -78.5t-22 -78.5q-5 -19 -23.5 -25t-51.5 -6q-9 0 -32 1 t-35 1q-14 0 -31.5 -0.5t-37 1t-35.5 4t-26.5 9.5t-10.5 18z" />
<glyph unicode="&#x2019;" horiz-adv-x="582" d="M133 859q0 24 19 81.5t21 63.5q18 71 42 155q5 20 23 26.5t49 6.5q9 0 29 -0.5t30 -0.5q12 -1 28 -0.5t34 -0.5t33 -3.5t25 -9.5t10 -18q0 -5 -6 -17q-9 -20 -37 -86.5t-48.5 -109t-43.5 -81.5q-4 -7 -9 -12.5t-12 -9.5t-12 -7t-14.5 -5t-14.5 -3t-17 -1t-17.5 -0.5 t-20.5 0t-21 0.5q-18 0 -27.5 0.5t-21 3t-16.5 9.5t-5 19z" />
<glyph unicode="&#x201a;" horiz-adv-x="592" d="M96 -138q0 37 28 155.5t41 157.5q17 53 34.5 64t76.5 11q27 0 27 -3l13.5 0.5t23.5 0t26.5 -1.5t28.5 -4t24 -7.5t18.5 -13t6.5 -19.5q0 -22 -21.5 -78t-59 -143t-44.5 -104q-16 -38 -43.5 -54.5t-68.5 -16.5q-111 9 -111 56z" />
<glyph unicode="&#x201c;" horiz-adv-x="970" d="M126 859q0 6 5 16q11 22 27 56.5t27.5 58.5t26.5 53.5t31 57t33 53.5q4 7 9 12.5t11.5 9.5t11 7t14 4.5t14.5 3t17.5 1.5t17.5 0.5t20.5 0t21.5 -0.5q33 0 51 -6t18 -24q0 -12 -3 -27t-8 -30t-10 -29.5t-10.5 -30.5t-8.5 -27q-17 -61 -41 -162q-6 -21 -23 -27t-49 -6 q-9 0 -28.5 1t-29.5 1h-30.5t-39.5 1t-35 4t-29.5 10t-10.5 19zM500 859q0 6 5 16q11 23 33 69.5t35.5 74t34.5 65.5t42 70q5 7 9.5 12.5t11 9.5t11.5 7t14 4.5t14 3t17 1.5t17 0.5t20.5 0t21.5 -0.5q33 0 51.5 -6t18.5 -24q0 -12 -3 -27t-8 -30t-10 -29.5t-10.5 -30.5 t-8.5 -27l-21 -81l-21 -81q-6 -21 -21.5 -27t-45.5 -6q-9 0 -30 1t-32 1h-31t-39.5 1t-35 4t-29.5 10t-10 19z" />
<glyph unicode="&#x201d;" horiz-adv-x="955" d="M133 856q0 25 19 83t21 64q7 26 19.5 78t19.5 78q3 14 14.5 22t24 9.5t33.5 1.5q9 0 28 -0.5t29 -0.5q12 -1 27.5 -0.5t33 -0.5t32 -3.5t24 -9.5t9.5 -18q0 -7 -5 -17q-10 -23 -29 -69t-31 -74.5t-30 -66.5t-36 -69q-4 -7 -8.5 -12.5t-11.5 -9.5t-11.5 -7t-14 -4.5 t-14.5 -2.5t-17 -1.5t-17 -0.5h-20h-20h-19t-15.5 1t-14.5 2.5t-10 5t-8 9t-2 13.5zM509 856q0 24 18 79.5t21 67.5q21 85 42 156q5 20 22.5 26.5t47.5 6.5q8 0 27 -0.5t30 -0.5q8 -1 18.5 -0.5t23 0t24 -1t22.5 -2.5t19.5 -5.5t13.5 -9t5 -13.5q0 -7 -5 -17 q-13 -28 -37.5 -88.5t-45 -106t-43.5 -84.5q-5 -7 -9.5 -12.5t-11.5 -9.5t-11.5 -7t-14 -4.5t-14 -2.5t-16.5 -1.5t-17 -0.5h-19.5h-20.5h-18t-15.5 1t-15 2.5t-10.5 5t-8 9t-2 13.5z" />
<glyph unicode="&#x201e;" horiz-adv-x="952" d="M94 -139q0 37 28.5 155t40.5 157q5 15 8.5 25t9.5 18.5t9 13.5t11.5 9t13.5 5.5t19 2.5t23 1h30q34 0 84 -3q71 -8 71 -45q0 -17 -15 -60.5t-33 -86t-43 -99t-34 -79.5q-16 -37 -43 -53.5t-69 -16.5q-111 8 -111 56zM449 -138q0 37 28 155.5t40 157.5q17 50 32 62.5 t60 12.5q78 0 117 -3q70 -8 70 -45q0 -22 -21 -78t-59 -143t-44 -104q-17 -38 -44 -54.5t-69 -16.5q-110 9 -110 56z" />
<glyph unicode="&#x2022;" horiz-adv-x="755" d="M163 297q0 55 23.5 101.5t65.5 74t94 27.5q95 0 170 -59t75 -132q0 -68 -61 -112t-149 -44q-6 -2 -20 -2q-24 0 -51.5 7t-53 20t-46.5 30.5t-34 40.5t-13 48z" />
<glyph unicode="&#x2026;" horiz-adv-x="1261" d="M119 119q0 17 10.5 37.5t28 39t44.5 31t56 12.5q57 0 104.5 -41t47.5 -92q0 -44 -49 -76t-103 -32q-46 0 -92.5 36t-46.5 85zM484 121q0 45 41 79t83 34q36 0 75.5 -16t68.5 -47t29 -69q0 -48 -41.5 -76t-98.5 -28q-55 0 -106 36.5t-51 86.5zM859 104q0 36 16 66.5 t45 48.5t62 18q63 0 115 -39.5t52 -90.5q0 -45 -41 -74.5t-102 -29.5q-3 0 -7.5 -0.5t-6.5 -0.5q-43 0 -88 30t-45 72z" />
<glyph unicode="&#x202f;" horiz-adv-x="301" />
<glyph unicode="&#x2039;" horiz-adv-x="729" d="M111 460q0 16 17 44t56 70.5t65.5 70.5t82 83t69.5 70q23 23 41 25q23 0 53.5 -19t56 -44.5t41.5 -49.5q-11 -29 -32 -57t-44 -47.5t-47.5 -40t-44 -36.5t-32 -34.5t-12.5 -36.5q0 -25 87 -107q8 -8 21 -20.5t23.5 -22.5t22.5 -22t20.5 -22t16.5 -20.5t12 -20t4 -16.5 q0 -11 -20 -35t-51 -46t-55 -22q-16 0 -45 22.5t-68 63t-73.5 78.5t-78.5 88t-64 72q-22 22 -22 32z" />
<glyph unicode="&#x203a;" horiz-adv-x="729" d="M130 710q16 24 41 49.5t56 44.5t53 19q18 -2 41 -25q18 -19 56.5 -57t65.5 -65t61 -63t55.5 -61.5t36.5 -50t15 -38.5q0 -11 -21 -35q-20 -22 -65 -72.5t-79 -88t-73.5 -78t-69 -63t-45.5 -22.5q-24 0 -55 22t-50.5 46t-19.5 35q0 10 7.5 24t22.5 30.5t28 29.5t33 32 t29 28q88 83 88 107q0 21 -17.5 42.5t-44.5 43t-55.5 44.5t-55 55t-38.5 67z" />
<glyph unicode="&#x205f;" horiz-adv-x="376" />
<glyph unicode="&#x20ac;" horiz-adv-x="1621" d="M119 364q0 47 42 86t81 50q9 1 25.5 1.5t28 1t24 3.5t18.5 9.5t6 18.5q0 20 -6 32t-17 16.5t-26 6t-31.5 0.5t-34.5 1q-6 0 -18 -1t-17 -1q-25 0 -42.5 6t-25 14.5t-7.5 19.5q0 39 52 86t100 47q19 0 34 1.5t26 4.5t19 7t14 10.5t10.5 12t8 15t6.5 17t7.5 19t8.5 20.5 q168 324 618 324q82 0 191 -25t193.5 -68.5t84.5 -87.5q0 -35 -46 -84t-71 -49q-4 0 -8.5 1t-10 3.5t-9.5 4t-12.5 6t-12.5 6.5q-122 70 -252 70q-109 0 -215.5 -42.5t-170.5 -126.5q-6 -12 -6 -18q0 -5 5 -8.5t15 -5.5t19 -3.5t24.5 -2t25 -0.5t25.5 0.5t21 0.5 q24 0 72.5 2.5t48.5 5.5q16 0 58.5 0.5t66.5 0.5q40 0 69.5 -2t58 -7.5t43.5 -17.5t15 -30q0 -8 -6 -16q-24 -39 -56 -63.5t-74 -36t-80.5 -15.5t-92.5 -4q-36 0 -110 5.5t-111 5.5q-43 0 -65 -8t-22 -34q0 -13 4 -22t9.5 -13.5t16.5 -7t19 -3t23 -0.5q20 0 76 2t87 2 q200 0 200 -57q0 -16 -26.5 -44t-54.5 -48q-20 -20 -60.5 -29t-76.5 -9.5t-63.5 -4.5t-27.5 -14q0 -17 31.5 -35.5t71.5 -30t70 -12.5q32 -2 97 -2q98 0 157 12t124 56q37 14 55 14q30 0 60 -32t66 -90q6 -11 6 -18q0 -27 -46 -51q-227 -122 -440 -122q-60 0 -125 10 t-135.5 32.5t-131.5 55t-112 83t-77 111.5q-18 45 -77 45q-26 0 -76 -4t-74 -4q-27 0 -53 12.5t-26 32.5z" />
<glyph unicode="&#x2122;" horiz-adv-x="1751" d="M146 1090q0 58 12 73t52 15h116q81 0 119 -2h235q17 0 30 -3t21.5 -7t14 -12t8.5 -14.5t4.5 -17t2 -17t0.5 -17.5q0 -24 -0.5 -36t-6.5 -24.5t-12.5 -17t-25 -9t-38 -6t-58.5 -3.5q-19 -1 -29 -5t-15 -14t-7 -29q-3 -47 -3 -143q0 -29 1.5 -65.5t3 -73.5t1.5 -66v-31 t-3 -22.5t-5 -16.5t-10.5 -11t-14 -7t-21.5 -3t-27 -1.5t-36 -0.5h-11q-31 0 -48.5 2.5t-31 9.5t-18.5 21t-5 36q-8 158 -8 378q0 15 -3 23.5t-8.5 12.5t-16.5 5t-22 0.5t-30.5 0.5t-37.5 3q-42 3 -55.5 24t-13.5 71zM687 553q0 7 1.5 15.5t4.5 19.5t4 16q6 29 21 98.5 t24 108t22 96.5t26 108t26 99q11 30 21 42.5t24.5 17t47.5 4.5q38 0 62 -3t41 -11t25 -18t16.5 -30.5t15 -41t21 -56.5t32.5 -71q1 -2 4.5 -12t7.5 -16t10 -6q15 0 32 38.5t32.5 90t19.5 59.5q19 45 44 61.5t79 16.5q25 0 41 -1.5t35.5 -7.5t31.5 -20t17 -36 q16 -76 69 -264.5t67 -288.5q0 -35 -13.5 -48.5t-53.5 -13.5q-6 0 -17 0.5t-17 0.5q-6 1 -18 2q-22 1 -31.5 2t-24.5 4t-20 6.5t-15 12.5t-14 19t-11 29t-12 39.5t-13 52.5q-1 4 -4 8t-7.5 8.5t-7.5 6.5q-6 -6 -12 -14.5t-10.5 -15.5t-9.5 -18.5t-7.5 -17t-8 -20t-7.5 -18.5 q-9 -24 -13 -35t-13 -22.5t-13.5 -15t-20 -7t-27 -3.5h-39.5h-22q-18 1 -33 5.5t-26 9.5t-21.5 17.5t-16.5 22t-15 29.5t-14 32.5t-14 40.5q-5 13 -8 20q-3 9 -9 9q-15 0 -62 -149l-2 -9q-3 -5 -6.5 -9t-8.5 -7t-9 -5t-11 -3t-11 -2t-13 -1.5t-12.5 -0.5h-13h-11.5 q-25 0 -42 1.5t-39 6t-33.5 15t-11.5 27.5z" />
<glyph unicode="&#x25fc;" horiz-adv-x="1057" d="M0 0v1058h1058v-1058h-1058z" />
</font>
</defs>
</svg>
